<?xml version="1.0" encoding="UTF-8"?>
<svg id="Calque_1" data-name="Calque 1" xmlns="http://www.w3.org/2000/svg" viewBox="0 0 50 50">
  <defs>
    <style>
      .cls-1 {
        fill: #8fb22f;
      }
    </style>
  </defs>
  <path class="cls-1" d="m27.9,30.44c-2.52,2.65-4.41,3.98-5.66,3.98-.69,0-1.27-.35-1.75-1.06-.47-.71-.71-1.59-.71-2.66,0-2.3.78-5.47,2.33-9.54l4.11-.86h.19l-1.62,5.06c-.67,2.09-1,3.58-1,4.48,0,.36.08.64.23.86.16.22.35.33.59.33.42,0,.84-.15,1.27-.46.43-.31,1.1-.97,2.01-2v1.86Zm-.32-16.46c0,2.59-.95,3.88-2.86,3.88-.93,0-1.72-.28-2.38-.84.62-.95,1.11-2.02,1.45-3.2.85.53,1.54.79,2.05.79.58,0,1.16-.21,1.73-.63Z"/>
  <path class="cls-1" d="m24.36,3.13C12.68,3.13,3.18,12.63,3.18,24.31s9.5,21.18,21.18,21.18,21.18-9.5,21.18-21.18S36.04,3.13,24.36,3.13Zm17.8,21.18c0,9.82-7.99,17.8-17.8,17.8S6.56,34.12,6.56,24.31,14.54,6.51,24.36,6.51s17.8,7.99,17.8,17.8Z"/>
</svg>