<?xml version="1.0" encoding="UTF-8"?>
<svg id="Calque_1" data-name="Calque 1" xmlns="http://www.w3.org/2000/svg" viewBox="0 0 50 50">
  <defs>
    <style>
      .cls-1 {
        fill: #4cb4d3;
      }

      .cls-2 {
        fill: #baac00;
      }
    </style>
  </defs>
  <path class="cls-1" d="m29.2,43.62c-1.46.36-2.97.55-4.54.55-1.17,0-2.32-.11-3.44-.32-.54-1.4-1-2.88-1.38-4.41,1.54-.4,3.16-.62,4.82-.62,1.91,0,3.76.29,5.5.81l-.29-3.03c-1.67-.41-3.42-.63-5.22-.63s-3.68.24-5.41.68c-.24-1.37-.42-2.79-.53-4.23h10.75l-.27-2.85h-10.61c0-.17,0-.34,0-.52,0-2.4.19-4.74.55-6.97h12.04c.25,1.54.41,3.14.49,4.76l2.89,1.32c-.04-2.08-.21-4.12-.51-6.09h9.47c.15.97.23,1.97.23,2.99,0,1.55-.19,3.06-.54,4.5h-5.6l7.49,3.43c.08-.19.16-.38.23-.58.33-.92.6-1.87.8-2.85.3-1.45.47-2.96.47-4.5,0-1.01-.07-2.01-.21-2.99-.13-.97-.33-1.92-.58-2.85-1.1-3.99-3.3-7.52-6.25-10.26-.7-.65-1.45-1.26-2.24-1.81-2.61-1.85-5.63-3.15-8.91-3.71-.92-.16-1.86-.26-2.81-.31-.29-.01-.58-.02-.87-.02-.03,0-.06,0-.08,0-.98,0-1.95.07-2.9.2-3.61.48-6.94,1.83-9.77,3.85-.78.56-1.53,1.16-2.24,1.81-2.95,2.74-5.15,6.27-6.25,10.26-.26.93-.45,1.88-.58,2.85-.13.98-.21,1.97-.21,2.99,0,1.54.16,3.05.47,4.5.2.97.47,1.93.8,2.85,1.26,3.53,3.4,6.64,6.15,9.08.72.64,1.49,1.24,2.29,1.78,2.04,1.38,4.33,2.42,6.79,3.05,1.09.28,2.22.48,3.37.59.69.07,1.39.1,2.09.1,1.08,0,2.13-.08,3.17-.23,1.01-.15,1.99-.36,2.95-.64l-.55-5.77c-.31,1.11-.65,2.2-1.04,3.24Zm-9.5-24.39c.38-1.64.85-3.2,1.41-4.69,1.16.19,2.34.29,3.55.29,1.54,0,3.04-.16,4.49-.46.58,1.54,1.08,3.17,1.48,4.87h-10.93Zm23.15,0h-9.32c-.43-1.96-.99-3.85-1.65-5.63,1.96-.68,3.79-1.64,5.45-2.82,2.53,2.25,4.46,5.15,5.52,8.45Zm-7.92-10.26c-1.29.83-2.68,1.5-4.16,2-.79-1.69-1.68-3.26-2.66-4.69,2.47.45,4.78,1.38,6.82,2.69Zm-9.77-2.01s0,0,0,0c0,0,0,0,0,0,1.05,1.41,2.01,2.99,2.84,4.72-1.09.19-2.21.3-3.35.3-.81,0-1.61-.06-2.4-.16.85-1.79,1.82-3.42,2.91-4.86Zm-2.83-.85c-1.09,1.56-2.06,3.28-2.91,5.14-1.8-.51-3.5-1.29-5.05-2.28,2.35-1.51,5.05-2.51,7.96-2.86ZM5.56,25.06c0-1.02.08-2.01.23-2.99h10.48c-.34,2.25-.53,4.58-.53,6.97,0,.17,0,.34,0,.52H6.1c-.35-1.44-.54-2.95-.54-4.5Zm1.47,7.35h8.84c.13,1.75.35,3.47.66,5.13-1.45.58-2.83,1.31-4.12,2.17-2.33-1.95-4.2-4.45-5.39-7.3Zm7.9,9.08c.71-.42,1.46-.81,2.23-1.14.23.87.47,1.73.75,2.57-1.04-.39-2.03-.87-2.97-1.43Zm1.87-22.26H6.47c1.06-3.29,2.99-6.2,5.52-8.45,1.92,1.36,4.06,2.42,6.36,3.11-.62,1.69-1.14,3.48-1.55,5.33Z"/>
  <path class="cls-2" d="m46.62,38.38l-3.43-1.57-2.61-1.19-6.14-2.81-.65-.3.31,3.28.23,2.44.59,6.23.2,2.1,2.22-3.59s.06-.05.09-.07l3.49,4.9,4.98-3.54-3.58-5.04,4.31-.85Z"/>
</svg>