<?xml version="1.0" encoding="UTF-8"?>
<svg id="Calque_1" data-name="Calque 1" xmlns="http://www.w3.org/2000/svg" viewBox="0 0 50 50">
  <defs>
    <style>
      .cls-1 {
        fill: #283456;
      }

      .cls-2 {
        fill: #d4ad00;
      }
    </style>
  </defs>
  <g>
    <path class="cls-1" d="m35.48,15.41s1.59-9.02-6.81-8.97c-8.06.05-7.57,8.52-7.57,8.52,0,0,5.66-1.59,14.38.44Z"/>
    <path class="cls-1" d="m46.98,16.41l-.12-.15c-.48-.62-1.37-.73-1.99-.25l-4.99,3.87c-1.97-2.92-6.33-4.51-13.07-4.47-6.4.04-9.91,1.78-11.54,4.39l-4.88-3.79c-.62-.48-1.51-.37-1.99.25l-.12.15c-.48.62-.37,1.51.25,1.99l5.68,4.41c-.12.87-.11,1.78,0,2.72.25-.02.51-.04.77-.04,6.41,0,11.61,5.2,11.61,11.61v-16.97c0-.35.28-.63.63-.63h.78c.35,0,.63.28.63.63v23.03c0,.35-.28.63-.63.63h-.78c-.35,0-.63-.28-.63-.63v-6.06c0,2.5-.8,4.82-2.15,6.71,1.16,1.1,2.11,1.75,2.63,1.75,1.8,0,4.87-2.71,7.69-6.5.02.02.03.05.06.07l5.26,4.08c.66.51,1.61.39,2.12-.27.51-.66.39-1.61-.27-2.12l-5.26-4.08c-.07-.06-.16-.08-.24-.12.94-1.47,1.79-3.03,2.52-4.62h5.32c.78,0,1.42-.63,1.42-1.42v-.19c0-.78-.63-1.42-1.42-1.42h-4.13c.29-.89.55-1.77.71-2.63.25-1.26.23-2.39.08-3.46l5.78-4.49c.62-.48.73-1.37.25-1.99Z"/>
  </g>
  <g>
    <path class="cls-2" d="m16.46,36.04c0-1.62-1.33-2.94-2.96-2.94s-2.96,1.32-2.96,2.94,1.33,2.94,2.96,2.94,2.96-1.32,2.96-2.94Zm-4.87,0c0-1.05.86-1.9,1.91-1.9s1.91.85,1.91,1.9-.86,1.9-1.91,1.9-1.91-.85-1.91-1.9Z"/>
    <path class="cls-2" d="m20.88,36.47l-.45-.22c-.49-.24-1-.4-1.4-.44l-1.2-.05.25,1.19c.09.42.32,1.53-.88,2.71h0c-.9.88-2.41,1.33-4.49,1.33-4.26,0-4.57-3.21-4.58-3.86l-.04-1.44-1.27.67c-.71.38-1.09.84-1.28,1.16l-.18.3.07.34c.34,1.64,1.73,5.46,7.29,5.46,2.89,0,5.09-.72,6.55-2.14,1.9-1.86,1.75-3.59,1.67-4.52l-.04-.5Z"/>
    <path class="cls-2" d="m24.01,33.65c-3.72-3.44-7.61-5.07-11.56-4.84-5.91.35-9.68,4.78-9.84,4.97l-.62.74,2.36,1.68.53-.63s3.16-3.66,7.75-3.93c3.1-.18,6.25,1.18,9.35,4.06l.61.56,2.12-1.96-.71-.66Z"/>
  </g>
</svg>