<?xml version="1.0" encoding="UTF-8"?>
<svg id="Calque_1" data-name="Calque 1" xmlns="http://www.w3.org/2000/svg" viewBox="0 0 50 50">
  <defs>
    <style>
      .cls-1 {
        fill: #8e142e;
      }

      .cls-2 {
        fill: #283456;
      }
    </style>
  </defs>
  <g>
    <path class="cls-2" d="m28.69,23.28v-12.28c0-3.96-3.22-7.18-7.18-7.18h-.32c-3.96,0-7.18,3.22-7.18,7.18v12.28c-3.29,2.36-5.29,6.19-5.29,10.27,0,6.97,5.67,12.64,12.64,12.64s12.64-5.67,12.64-12.64c0-4.08-2-7.91-5.29-10.27Zm-7.35,18.81c-4.71,0-8.53-3.83-8.53-8.53,0-3.03,1.64-5.86,4.27-7.38l1.02-.59v-14.58c0-1.7,1.38-3.08,3.08-3.08h.32c1.7,0,3.08,1.38,3.08,3.08v14.58l1.02.59c2.63,1.53,4.27,4.35,4.27,7.38,0,4.71-3.83,8.53-8.53,8.53Z"/>
    <path class="cls-1" d="m22.5,30.66V11.61c0-.6-.48-1.08-1.08-1.08s-1.08.48-1.08,1.08v18.87c-1.45.37-2.53,1.67-2.53,3.24,0,1.85,1.5,3.35,3.35,3.35s3.35-1.5,3.35-3.35c0-1.37-.83-2.55-2.01-3.07Z"/>
  </g>
  <g>
    <rect class="cls-1" x="30.77" y="5.96" width="6.48" height="2.28"/>
    <rect class="cls-1" x="30.77" y="10.72" width="6.48" height="2.28"/>
    <rect class="cls-1" x="30.77" y="15.49" width="6.48" height="2.28"/>
    <rect class="cls-1" x="30.77" y="20.26" width="6.48" height="2.28"/>
  </g>
</svg>