<?xml version="1.0" encoding="UTF-8"?>
<svg id="Calque_1" data-name="Calque 1" xmlns="http://www.w3.org/2000/svg" viewBox="0 0 50 50">
  <defs>
    <style>
      .cls-1 {
        fill: #aac100;
      }

      .cls-2 {
        fill: #8e142e;
      }
    </style>
  </defs>
  <g>
    <path class="cls-2" d="m32.81,14.08s1.43-8.13-6.14-8.09c-7.27.04-6.83,7.69-6.83,7.69,0,0,5.11-1.44,12.97.4Z"/>
    <path class="cls-2" d="m43.19,14.99l-.11-.14c-.43-.56-1.24-.66-1.79-.23l-4.5,3.49c-1.77-2.64-5.71-4.07-11.78-4.03-5.77.03-8.94,1.6-10.41,3.96l-4.4-3.42c-.56-.43-1.36-.33-1.79.23l-.11.14c-.43.56-.33,1.36.23,1.79l5.13,3.98c-.1.78-.1,1.61,0,2.46.23-.01.46-.03.69-.03,5.78,0,10.47,4.69,10.47,10.47v-15.31c0-.31.25-.56.56-.56h.7c.31,0,.56.25.56.56v20.77c0,.31-.25.56-.56.56h-.7c-.31,0-.56-.25-.56-.56v-5.47c0,2.26-.72,4.34-1.94,6.05,1.04.99,1.9,1.58,2.37,1.58,1.63,0,4.4-2.44,6.94-5.86.02.02.03.04.05.06l4.74,3.68c.6.46,1.45.35,1.91-.24.46-.6.35-1.45-.24-1.91l-4.74-3.68c-.07-.05-.15-.07-.22-.11.84-1.33,1.62-2.74,2.27-4.17h4.8c.71,0,1.28-.57,1.28-1.28v-.17c0-.71-.57-1.28-1.28-1.28h-3.73c.26-.8.49-1.59.64-2.37.22-1.14.21-2.16.07-3.12l5.22-4.05c.56-.43.66-1.24.23-1.79Z"/>
  </g>
  <path class="cls-1" d="m26.16,43.09c-2.12-.38-4.61-1.53-6.91-4.32-.62-.75-1.22-1.6-1.8-2.6-.43-.75-.85-1.56-1.25-2.47l3.9-2.16.44-.25-6.96-3.32-4.04-1.93-1.24,4.86-2,7.8.58-.3,3.28-1.67s1.73,2.34,4.88,4.37c2.39,1.54,5.59,2.88,9.48,2.89.84,0,1.72-.06,2.63-.19,1.23-.19,2.51-.51,3.84-1-.77.24-2.59.68-4.83.28Z"/>
</svg>