<?xml version="1.0" encoding="UTF-8"?>
<svg id="Calque_1" data-name="Calque 1" xmlns="http://www.w3.org/2000/svg" viewBox="0 0 50 50">
  <defs>
    <style>
      .cls-1 {
        fill: #e90027;
      }

      .cls-2 {
        fill: #283456;
      }
    </style>
  </defs>
  <g>
    <path class="cls-2" d="m32.63,14.69s1.55-8.77-6.62-8.73c-7.84.05-7.37,8.29-7.37,8.29,0,0,5.51-1.55,13.99.43Z"/>
    <path class="cls-2" d="m43.82,15.67l-.11-.15c-.47-.6-1.33-.71-1.93-.24l-4.85,3.77c-1.91-2.85-6.16-4.39-12.71-4.35-6.23.04-9.65,1.73-11.23,4.27l-4.75-3.69c-.6-.47-1.47-.36-1.93.24l-.11.15c-.47.6-.36,1.47.24,1.93l5.53,4.29c-.11.84-.1,1.73,0,2.65.25-.02.49-.04.74-.04,6.24,0,11.29,5.06,11.29,11.29v-16.51c0-.34.27-.61.61-.61h.76c.34,0,.61.27.61.61v22.41c0,.34-.27.61-.61.61h-.76c-.34,0-.61-.27-.61-.61v-5.9c0,2.44-.78,4.69-2.09,6.53,1.13,1.07,2.05,1.7,2.56,1.7,1.75,0,4.74-2.63,7.48-6.32.02.02.03.05.06.07l5.12,3.97c.64.5,1.57.38,2.07-.26.5-.64.38-1.57-.26-2.07l-5.12-3.97c-.07-.06-.16-.08-.24-.12.91-1.43,1.75-2.95,2.45-4.5h5.18c.76,0,1.38-.62,1.38-1.38v-.19c0-.76-.62-1.38-1.38-1.38h-4.02c.28-.86.53-1.72.7-2.56.24-1.23.22-2.33.08-3.36l5.63-4.37c.6-.47.71-1.33.24-1.93Z"/>
  </g>
  <polygon class="cls-1" points="19.8 30.65 17.87 28.76 13.26 33.48 8.64 28.76 6.71 30.65 11.37 35.41 6.79 40.08 8.72 41.97 13.26 37.34 17.8 41.97 19.73 40.08 15.15 35.41 19.8 30.65"/>
</svg>