<?xml version="1.0" encoding="UTF-8"?>
<svg id="Calque_1" data-name="Calque 1" xmlns="http://www.w3.org/2000/svg" viewBox="0 0 50 50">
  <defs>
    <style>
      .cls-1 {
        fill: #af11bc;
      }

      .cls-2 {
        fill: #283456;
      }
    </style>
  </defs>
  <g>
    <path class="cls-2" d="m34.73,13.42s1.68-9.51-7.18-9.46c-8.5.05-7.98,8.99-7.98,8.99,0,0,5.97-1.68,15.16.47Z"/>
    <path class="cls-2" d="m46.86,14.48l-.12-.16c-.51-.65-1.44-.77-2.1-.26l-5.26,4.08c-2.07-3.08-6.67-4.76-13.78-4.72-6.75.04-10.46,1.88-12.17,4.63l-5.15-4c-.65-.51-1.59-.39-2.1.26l-.12.16c-.51.65-.39,1.59.26,2.1l5.99,4.65c-.12.91-.11,1.88,0,2.87.27-.02.53-.04.81-.04,6.76,0,12.24,5.48,12.24,12.24v-17.9c0-.36.29-.66.66-.66h.82c.36,0,.66.3.66.66v24.29c0,.36-.3.66-.66.66h-.82c-.36,0-.66-.3-.66-.66v-6.4c0,2.64-.84,5.08-2.27,7.08,1.22,1.16,2.22,1.84,2.77,1.84,1.9,0,5.14-2.86,8.11-6.85.02.02.04.05.06.07l5.55,4.31c.7.54,1.7.41,2.24-.28.54-.7.41-1.7-.28-2.24l-5.55-4.31c-.08-.06-.17-.08-.26-.13.99-1.55,1.89-3.2,2.66-4.88h5.62c.83,0,1.49-.67,1.49-1.49v-.2c0-.83-.67-1.49-1.49-1.49h-4.36c.31-.93.57-1.86.75-2.77.26-1.33.24-2.53.08-3.65l6.1-4.74c.65-.51.77-1.44.26-2.1Z"/>
  </g>
  <path class="cls-1" d="m18.36,28.5c-1.67-1.09-3.58-1.51-5.42-1.34-.81.07-1.6.26-2.36.56-.93.37-1.8.91-2.56,1.6-.52.47-1,1.01-1.4,1.62-2.28,3.48-1.66,8.02,1.25,10.79l-2.14,3.09c-.21.32-.28.7-.23,1.05.06.41.29.8.66,1.05.38.25.82.3,1.22.19.35-.09.67-.3.88-.63l2.14-3.09c3.56,1.51,7.79.4,10.13-2.79.09-.12.18-.24.26-.37,2.56-3.91,1.47-9.18-2.44-11.74Zm-.09,10.08c-.23.35-.5.66-.79.94l-.88.68c-1.62,1.01-3.7,1.13-5.45.19-.14-.08-.29-.16-.42-.25-2.51-1.65-3.21-5.03-1.57-7.54.47-.72,1.09-1.28,1.78-1.69,1.73-1.02,3.97-1.05,5.76.12,2.51,1.65,3.22,5.03,1.57,7.54Z"/>
</svg>