<?xml version="1.0" encoding="UTF-8"?>
<svg id="Calque_1" data-name="Calque 1" xmlns="http://www.w3.org/2000/svg" viewBox="0 0 50 50">
  <defs>
    <style>
      .cls-1 {
        fill: #106299;
      }

      .cls-2 {
        fill: #07a0a0;
      }
    </style>
  </defs>
  <g>
    <path class="cls-2" d="m36.33,14.18s1.43-8.13-6.14-8.09c-7.27.04-6.83,7.69-6.83,7.69,0,0,5.11-1.44,12.97.4Z"/>
    <path class="cls-2" d="m46.71,15.08l-.11-.14c-.43-.56-1.24-.66-1.79-.23l-4.5,3.49c-1.77-2.64-5.71-4.07-11.78-4.03-5.77.03-8.94,1.6-10.41,3.96l-4.4-3.42c-.56-.43-1.36-.33-1.79.23l-.11.14c-.43.56-.33,1.36.23,1.79l5.13,3.98c-.1.78-.1,1.61,0,2.46.23-.01.46-.03.69-.03,5.78,0,10.47,4.69,10.47,10.47v-15.31c0-.31.25-.56.56-.56h.7c.31,0,.56.25.56.56v20.77c0,.31-.25.56-.56.56h-.7c-.31,0-.56-.25-.56-.56v-5.47c0,2.26-.72,4.34-1.94,6.05,1.04.99,1.9,1.58,2.37,1.58,1.63,0,4.4-2.44,6.94-5.86.02.02.03.04.05.06l4.74,3.68c.6.46,1.45.35,1.91-.24.46-.6.35-1.45-.24-1.91l-4.74-3.68c-.07-.05-.15-.07-.22-.11.84-1.33,1.62-2.74,2.27-4.17h4.8c.71,0,1.28-.57,1.28-1.28v-.17c0-.71-.57-1.28-1.28-1.28h-3.73c.26-.8.49-1.59.64-2.37.22-1.14.21-2.16.07-3.12l5.22-4.05c.56-.43.66-1.24.23-1.79Z"/>
  </g>
  <g>
    <polygon class="cls-1" points="14.92 43.91 14.92 43.88 14.86 43.89 14.92 43.91"/>
    <polygon class="cls-1" points="22.08 34.4 22.08 40.77 15.41 42.58 15.41 31.16 15.96 31.01 15.28 30.36 14.92 30.69 14.43 31.15 10.41 34.94 7.63 34.17 7.63 41.89 14.43 43.77 14.86 43.89 14.92 43.88 23.06 41.66 23.06 34.13 22.08 34.4"/>
    <polygon class="cls-1" points="23.06 28.26 22.92 28.13 22.92 28.12 22.64 28.03 22.19 27.89 17.31 26.36 8.55 27.94 7.59 28.12 7.6 28.16 7.6 28.16 3.02 32.46 7.63 33.73 10.31 34.48 14.43 30.61 14.92 30.14 14.89 30.14 8.22 28.29 9.18 28.12 17.29 26.65 21.7 28.03 22.14 28.17 22.43 28.26 15.63 30.14 16.42 30.88 20.24 34.48 22.08 33.97 23.06 33.69 27.53 32.46 23.06 28.26"/>
  </g>
</svg>