<?xml version="1.0" encoding="UTF-8"?>
<svg id="Calque_1" data-name="Calque 1" xmlns="http://www.w3.org/2000/svg" viewBox="0 0 150 150">
  <defs>
    <style>
      .cls-1 {
        fill: #283456;
      }
    </style>
  </defs>
  <path class="cls-1" d="m66.48,109.61c0,6.91,5.48,17.16,13.05,17.16s13.05-10.25,13.05-17.16v-1.84h-26.09v1.84Zm22.27,1.84c-.82,5.44-4.98,11.64-9.23,11.64s-8.41-6.21-9.22-11.64h18.45Z"/>
  <path class="cls-1" d="m117.4,102.96c-.53-1.82-.58-3.57-.63-5.27-.09-3.05-.2-6.47-3.68-8.81-1.61-16.19-8.98-44.74-26.27-47.35.12-.55.17-1.12.17-1.69,0-4.7-3.82-8.52-8.52-8.52s-8.52,3.82-8.52,8.52c0,.56.06,1.12.18,1.68-14.54,1.66-23.32,17.57-26.1,47.35-3.5,2.33-3.66,5.65-3.81,8.87-.08,1.68-.16,3.41-.68,5.21l-.68,2.35h79.23l-.68-2.35Zm-38.94-67.84c1.97,0,3.57,1.6,3.57,3.57s-1.6,3.57-3.57,3.57-3.57-1.6-3.57-3.57,1.6-3.57,3.57-3.57Z"/>
  <path class="cls-1" d="m78.47,40.74c.96,0,1.73-.78,1.73-1.73s-.78-1.73-1.73-1.73-1.73.78-1.73,1.73.78,1.73,1.73,1.73Z"/>
</svg>