<?xml version="1.0" encoding="UTF-8"?>
<svg id="Calque_1" data-name="Calque 1" xmlns="http://www.w3.org/2000/svg" viewBox="0 0 150 150">
  <defs>
    <style>
      .cls-1 {
        fill: #283456;
      }
    </style>
  </defs>
  <path class="cls-1" d="m124.56,56.18l2.1-.03-43.96-6.18-56.17-.2,20.58,7.19v60.41h30.85v2.97h22.85v-2.97h27.06v-61.19h-3.3Zm-46.05-5.17l5.45,1.58,4.11,1.2,4.11,1.2,4.11,1.2.15.04-16.1.25-1.09.02s-.07-.05-.11-.07c-.11-.07-.25-.15-.43-.24-.2-.1-.45-.22-.76-.35-1.83-.79-5.76-2.2-14.25-4.81h14.81Zm19.89,5.98v21.05h-18.06v-20.76l18.06-.28Zm-20.46,39.26h-28.46v-19.44h28.46v1.22h-5.05v16.74h5.05v1.48Zm20.46,0v21.69h-18.06v-23.17h18.06v1.48Zm1.2-3.87h-24.31v-11.95h28.16v11.95h-3.85Zm25.87-15.08v18.95h-24.67v-1.48h5.05v-16.74h-5.05v-1.22h24.67v.49Z"/>
  <polygon class="cls-1" points="82.69 84.13 82.69 85.32 82.69 86.52 82.69 89.54 96.04 89.54 96.04 86.52 96.04 85.32 96.04 84.13 96.04 83.27 82.69 83.27 82.69 84.13"/>
  <path class="cls-1" d="m46.62,75.65l-19.84-10.1-.26-14.34v54.88l20.1,10.77-19.13-11.56-.32-17.77c3.51,3.45,19.45,9.28,19.45,9.28l-19.46-9.9-.38-20.98c2.43,3.37,19.84,9.73,19.84,9.73Z"/>
</svg>