<?xml version="1.0" encoding="UTF-8"?>
<svg id="Calque_1" data-name="Calque 1" xmlns="http://www.w3.org/2000/svg" viewBox="0 0 150 150">
  <defs>
    <style>
      .cls-1 {
        fill: #283456;
      }
    </style>
  </defs>
  <path class="cls-1" d="m74.06,67.34c-2.34,0-4.23-1.9-4.23-4.23v-9.1c0-2.34,1.9-4.23,4.23-4.23s4.23,1.9,4.23,4.23v9.1c0,2.34-1.9,4.23-4.23,4.23Z"/>
  <path class="cls-1" d="m46.75,78.65c-1.08,0-2.17-.41-2.99-1.24l-6.43-6.43c-1.65-1.65-1.65-4.33,0-5.99,1.65-1.65,4.33-1.65,5.99,0l6.43,6.43c1.65,1.65,1.65,4.33,0,5.99-.83.83-1.91,1.24-2.99,1.24Z"/>
  <path class="cls-1" d="m35.44,105.96h-9.1c-2.34,0-4.23-1.9-4.23-4.23s1.9-4.23,4.23-4.23h9.1c2.34,0,4.23,1.9,4.23,4.23s-1.9,4.23-4.23,4.23Z"/>
  <path class="cls-1" d="m121.78,105.96h-9.1c-2.34,0-4.23-1.9-4.23-4.23s1.9-4.23,4.23-4.23h9.1c2.34,0,4.23,1.9,4.23,4.23s-1.9,4.23-4.23,4.23Z"/>
  <path class="cls-1" d="m101.37,78.65c-1.08,0-2.17-.41-2.99-1.24-1.65-1.65-1.65-4.33,0-5.99l6.43-6.43c1.65-1.65,4.33-1.65,5.99,0,1.65,1.65,1.65,4.33,0,5.99l-6.43,6.43c-.83.83-1.91,1.24-2.99,1.24Z"/>
  <path class="cls-1" d="m13.2,101.73c0-33.56,27.3-60.86,60.86-60.86s60.86,27.3,60.86,60.86c0,1.42-.07,2.83-.16,4.23h7.08c.09-1.4.15-2.81.15-4.23,0-37.45-30.47-67.91-67.91-67.91S6.14,64.28,6.14,101.73c0,1.42.06,2.83.15,4.23h7.08c-.1-1.4-.16-2.81-.16-4.23Z"/>
  <path class="cls-1" d="m72.86,108.04c-12.38-5.18,11.47-31.01,11.47-31.01,0,0,.71,36.11-11.47,31.01Z"/>
</svg>