<?xml version="1.0" encoding="UTF-8"?>
<svg id="Calque_1" data-name="Calque 1" xmlns="http://www.w3.org/2000/svg" viewBox="0 0 10 10">
  <defs>
    <style>
      .cls-1 {
        fill: #fff;
      }

      .cls-2 {
        fill: #3caf75;
      }

      .cls-3 {
        fill: #293456;
      }
    </style>
  </defs>
  <g>
    <path class="cls-1" d="m7.81,2.82c-.85,0-1.55-.69-1.55-1.55v-.66c-.09,0-.19-.01-.28-.01h-3.83c-.49,0-.89.4-.89.89v7.05c0,.49.4.89.89.89h5.7c.49,0,.89-.4.89-.89V3.35c0-.18-.02-.36-.05-.53h-.87Z"/>
    <path class="cls-1" d="m7.81,2.22h.68c-.31-.7-.91-1.24-1.64-1.49v.53c0,.52.43.95.95.95Z"/>
    <path class="cls-3" d="m9.32,2.82l-.11-.38-.06-.22h0c-.37-1.03-1.23-1.82-2.28-2.11h0s-.24-.06-.24-.06l-.36-.07V0c-.09,0-.19-.01-.28-.01h-3.83C1.33,0,.67.66.67,1.48v7.05c0,.82.67,1.49,1.49,1.49h5.7c.82,0,1.49-.67,1.49-1.49V3.35c0-.18-.02-.35-.04-.53h.02ZM6.86.74c.72.25,1.32.79,1.64,1.49h-.68c-.52,0-.95-.43-.95-.95v-.53Zm1.88,7.79c0,.49-.4.89-.89.89H2.15c-.49,0-.89-.4-.89-.89V1.48c0-.49.4-.89.89-.89h3.83c.09,0,.19,0,.28.01v.66c0,.85.69,1.55,1.55,1.55h.87c.03.17.05.35.05.53v5.18Z"/>
  </g>
  <g>
    <path class="cls-3" d="m3.44,3.66c.17.1.36.18.57.18.16,0,.3-.03.44-.09.42-.17.71-.58.71-1.06s-.29-.89-.71-1.06c-.14-.06-.28-.09-.44-.09-.21,0-.4.07-.57.18-.34.2-.57.55-.57.97s.24.77.57.97Z"/>
    <path class="cls-3" d="m4.26,4.12c-.08-.01-.17-.02-.25-.02-.16,0-.31.02-.46.05-.89.19-1.57.94-1.68,1.85h4.29c-.12-.99-.9-1.77-1.89-1.88Z"/>
  </g>
  <circle class="cls-1" cx="5.43" cy="5.52" r="1.42"/>
  <path class="cls-2" d="m7.55,6.67h-2.19v1.31h-.79v-3.28h3.11v.61h-2.32v.75h2.19v.61Z"/>
</svg>