<?xml version="1.0" encoding="UTF-8"?>
<svg id="Calque_1" data-name="Calque 1" xmlns="http://www.w3.org/2000/svg" viewBox="0 0 100 100">
  <defs>
    <style>
      .cls-1 {
        fill: #1b3f7e;
      }
    </style>
  </defs>
  <path class="cls-1" d="m50.03,18.06c-18.54,0-33.63,15.08-33.63,33.63s15.08,33.63,33.63,33.63,33.63-15.08,33.63-33.63-15.08-33.63-33.63-33.63Zm-6.68,11.41c2.06-1.22,4.32-2.12,6.88-2.12,1.87,0,3.65.38,5.28,1.06,4.98,2.07,8.5,6.97,8.5,12.69s-3.52,10.62-8.52,12.7c-1.61.66-3.39,1.06-5.26,1.06-2.55,0-4.82-.9-6.88-2.12-4.03-2.41-6.87-6.61-6.87-11.64s2.84-9.24,6.87-11.63Zm6.68,52.1c-8.31,0-15.82-3.42-21.24-8.91,3.62-5.64,9.12-9.95,15.9-11.43,1.79-.39,3.63-.64,5.54-.64,1.04,0,2.03.17,3.02.29,7.74.91,14.14,5.37,18.23,11.52-5.44,5.63-13.03,9.17-21.45,9.17Z"/>
</svg>