<?xml version="1.0" encoding="UTF-8"?>
<svg id="Calque_1" data-name="Calque 1" xmlns="http://www.w3.org/2000/svg" viewBox="0 0 100 100">
  <defs>
    <style>
      .cls-1 {
        fill: #1b3f7e;
      }
    </style>
  </defs>
  <path class="cls-1" d="m35.22,53.72c2.39,0,4.56-.68,6.56-1.67-4.14-3.08-7.01-7.79-7.01-13.34s2.87-10.26,7.02-13.34c-2.01-.99-4.18-1.66-6.56-1.66-8.3,0-15.02,6.71-15.02,15s6.72,15.01,15.02,15.01Z"/>
  <path class="cls-1" d="m40.23,55.84c-1.63-.32-3.3-.51-5.01-.51-13.73,0-24.92,10.38-26.45,23.69h14.72c1.15-10.36,7.55-19.15,16.75-23.18Z"/>
  <path class="cls-1" d="m68.62,38.71c0,6.02-3.35,11.08-8.1,14.08,1.48.48,2.98.93,4.63.93,8.3,0,15-6.71,15-15.01s-6.7-15-15-15c-1.64,0-3.15.45-4.63.93,4.75,3,8.1,8.06,8.1,14.08Z"/>
  <path class="cls-1" d="m65.15,55.33c-.88,0-1.71.18-2.56.26,9.49,3.92,16.15,12.85,17.32,23.43h11.68c-1.53-13.31-12.71-23.69-26.43-23.69Z"/>
  <path class="cls-1" d="m45.14,49.79c1.96,1.16,4.12,2.01,6.54,2.01,1.78,0,3.47-.38,5.01-1.01,4.76-1.98,8.1-6.64,8.1-12.08s-3.35-10.1-8.09-12.07c-1.55-.65-3.24-1.01-5.02-1.01-2.43,0-4.59.85-6.54,2.01-3.84,2.28-6.54,6.29-6.54,11.07s2.7,8.79,6.54,11.08Z"/>
  <path class="cls-1" d="m54.56,57.53c-.94-.11-1.89-.28-2.88-.28-1.82,0-3.57.24-5.27.61-10.17,2.22-17.88,10.7-19.2,21.16h48.95c-1.42-11.26-10.29-20.17-21.61-21.5Z"/>
</svg>