<?xml version="1.0" encoding="UTF-8"?>
<svg id="Calque_1" data-name="Calque 1" xmlns="http://www.w3.org/2000/svg" viewBox="0 0 100 100">
  <defs>
    <style>
      .cls-1 {
        fill: #1b3f7e;
      }
    </style>
  </defs>
  <path class="cls-1" d="m78.17,49.57v-1.99c4.48-.29,8.06-3.93,8.06-8.48s-3.59-8.19-8.06-8.48v-1.67c0-6.7-5.45-12.14-12.14-12.14h-28.04c-6.7,0-12.15,5.45-12.15,12.14v41.53c0,6.7,5.45,12.15,12.15,12.15h28.04c6.7,0,12.14-5.45,12.14-12.15v-3.95c4.48-.29,8.06-3.93,8.06-8.48s-3.59-8.2-8.06-8.48Zm2.61-10.46c0,1.52-1.16,2.63-2.61,2.91-.19.04-.32.22-.52.22h-9.7c-1.73,0-3.13-1.4-3.13-3.13s1.4-3.13,3.13-3.13h9.7c.2,0,.33.18.52.22,1.44.28,2.61,1.39,2.61,2.91Zm-8.06,31.38c0,3.69-3,6.69-6.69,6.69h-21.41V22.26h21.41c3.69,0,6.69,3,6.69,6.69v1.57h-4.77c-4.73,0-8.58,3.85-8.58,8.58s3.85,8.58,8.58,8.58h4.77v1.77h-4.77c-4.73,0-8.58,3.85-8.58,8.59s3.85,8.58,8.58,8.58h4.77v3.85Zm5.46-9.52c-.19.04-.32.22-.52.22h-9.7c-1.73,0-3.13-1.4-3.13-3.13s1.4-3.13,3.13-3.13h9.7c.2,0,.33.18.52.22,1.44.28,2.61,1.39,2.61,2.92s-1.16,2.63-2.61,2.91Z"/>
</svg>