<?xml version="1.0" encoding="UTF-8"?>
<svg id="Calque_1" data-name="Calque 1" xmlns="http://www.w3.org/2000/svg" viewBox="0 0 100 100">
  <defs>
    <style>
      .cls-1 {
        fill: #567096;
      }

      .cls-2 {
        fill: #9baec5;
      }

      .cls-3 {
        fill: #1b3f7e;
      }
    </style>
  </defs>
  <g>
    <path class="cls-2" d="m28.28,49.48c2.2,1.3,4.64,2.27,7.37,2.27,2,0,3.91-.43,5.64-1.14,5.36-2.23,9.13-7.48,9.13-13.61s-3.77-11.38-9.11-13.6c-1.74-.73-3.65-1.14-5.66-1.14-2.73,0-5.16.96-7.37,2.27-4.32,2.57-7.36,7.08-7.36,12.47s3.04,9.9,7.36,12.48Z"/>
    <path class="cls-2" d="m38.89,58.2c-1.06-.13-2.13-.31-3.24-.31-2.05,0-4.02.27-5.94.69-11.45,2.5-20.14,12.05-21.62,23.83h55.13c-1.6-12.68-11.59-22.72-24.33-24.21Z"/>
  </g>
  <g>
    <path class="cls-1" d="m42.28,49.48c2.2,1.3,4.64,2.27,7.37,2.27,2,0,3.91-.43,5.64-1.14,5.36-2.23,9.13-7.48,9.13-13.61s-3.77-11.38-9.11-13.6c-1.74-.73-3.65-1.14-5.66-1.14-2.73,0-5.16.96-7.37,2.27-4.32,2.57-7.36,7.08-7.36,12.47s3.04,9.9,7.36,12.48Z"/>
    <path class="cls-1" d="m52.89,58.2c-1.06-.13-2.13-.31-3.24-.31-2.05,0-4.02.27-5.94.69-11.45,2.5-20.14,12.05-21.62,23.83h55.13c-1.6-12.68-11.59-22.72-24.33-24.21Z"/>
  </g>
  <g>
    <path class="cls-3" d="m55.85,49.48c2.2,1.3,4.64,2.27,7.37,2.27,2,0,3.91-.43,5.64-1.14,5.36-2.23,9.13-7.48,9.13-13.61s-3.77-11.38-9.11-13.6c-1.74-.73-3.65-1.14-5.66-1.14-2.73,0-5.16.96-7.37,2.27-4.32,2.57-7.36,7.08-7.36,12.47s3.04,9.9,7.36,12.48Z"/>
    <path class="cls-3" d="m66.45,58.2c-1.06-.13-2.13-.31-3.24-.31-2.05,0-4.02.27-5.94.69-11.45,2.5-20.14,12.05-21.62,23.83h55.13c-1.6-12.68-11.59-22.72-24.33-24.21Z"/>
  </g>
</svg>