<?xml version="1.0" encoding="UTF-8"?>
<svg id="Calque_1" data-name="Calque 1" xmlns="http://www.w3.org/2000/svg" viewBox="0 0 100 100">
  <defs>
    <style>
      .cls-1 {
        fill: #998635;
      }

      .cls-2 {
        fill: #22384b;
      }
    </style>
  </defs>
  <g>
    <g>
      <path class="cls-1" d="m73.11,65.07c-4.2,0-7.62-3.42-7.62-7.62s3.42-7.63,7.62-7.63,7.63,3.42,7.63,7.63-3.42,7.62-7.63,7.62Zm0-12.55c-2.72,0-4.92,2.21-4.92,4.93s2.21,4.92,4.92,4.92,4.93-2.21,4.93-4.92-2.21-4.93-4.93-4.93Z"/>
      <path class="cls-1" d="m85.48,65.13c-2.76,3.31-7.19,4.98-13.19,4.98-13.38,0-14.08-13.47-14.11-14.88-1.22.79-1.98,1.76-2.41,2.62.85,5,4.09,14.96,16.52,14.96,6.82,0,11.96-2,15.26-5.95,4-4.79,3.84-8.93,3.63-11.98-1.06-.64-2.1-1.02-2.83-1.11.16,1.07,1.38,6.27-2.87,11.36Z"/>
    </g>
    <path class="cls-1" d="m97.8,57.07c-8.47-8.47-17.15-12.5-25.79-11.95-12.92.81-21.52,11.7-21.6,11.81l-2.32-1.79c.38-.49,9.46-12.03,23.71-12.94,9.53-.61,18.97,3.7,28.07,12.8l-2.07,2.07Z"/>
  </g>
  <path class="cls-2" d="m88.21,39.97v-5.12c0-4.63-3.69-8.4-8.22-8.4h-27.84l-2.47-7.45c-.95-3.69-4.22-6.27-7.95-6.27H8.9c-4.53,0-8.22,3.77-8.22,8.4v59.03c0,4.63,3.69,8.4,8.22,8.4h71.09c4.53,0,8.22-3.77,8.22-8.4v-6.71h-5.93v6.71c0,1.29-1.03,2.34-2.29,2.34H8.9c-1.26,0-2.29-1.05-2.29-2.34V21.13c0-1.29,1.03-2.34,2.29-2.34h32.83c1.04,0,1.95.72,2.23,1.8l3.72,11.92h32.32c1.26,0,2.29,1.05,2.29,2.34v5.12h5.93Z"/>
</svg>