<?xml version="1.0" encoding="UTF-8"?>
<svg id="Calque_1" data-name="Calque 1" xmlns="http://www.w3.org/2000/svg" viewBox="0 0 100 100">
  <defs>
    <style>
      .cls-1 {
        fill: #2eac68;
      }

      .cls-2 {
        fill: #22384b;
      }
    </style>
  </defs>
  <path class="cls-1" d="m44.54,86.58s10.49-24.16,40.28-38l-3.06-8.03,17.61,10.61-6.59,18.08-3.53-9.26s-30.91,2.25-44.7,26.6Z"/>
  <g>
    <path class="cls-2" d="m80.98,85.19c0,4.88-3.97,8.85-8.85,8.85H15.3c-4.88,0-8.85-3.97-8.85-8.85V14.89c0-4.88,3.97-8.85,8.85-8.85h38.17c.93,0,1.88.05,2.82.15v6.62c0,8.52,6.93,15.45,15.45,15.45h8.72c.34,1.74.51,3.51.51,5.28v2.28h5.96v-2.28c0-1.77-.16-3.53-.44-5.28h.25l-1.06-3.77s0-.01,0-.02l-.61-2.17h-.09c-3.67-10.23-12.26-18.18-22.73-21.04v-.1l-2.42-.47-3.54-.68v.2c-.94-.08-1.88-.13-2.82-.13H15.3C7.13.07.49,6.72.49,14.89v70.3c0,8.17,6.65,14.81,14.81,14.81h56.82c8.17,0,14.81-6.65,14.81-14.81v-10.07h-5.96v10.07ZM62.26,7.47c7.21,2.45,13.18,7.87,16.31,14.81h-6.83c-5.23,0-9.49-4.25-9.49-9.48v-5.33Z"/>
    <path class="cls-2" d="m57.93,54.67H17.51c-1.67,0-3.02-1.35-3.02-3.02s1.35-3.02,3.02-3.02h40.42c1.67,0,3.02,1.35,3.02,3.02s-1.35,3.02-3.02,3.02Z"/>
    <path class="cls-2" d="m57.93,38.06H17.51c-1.67,0-3.02-1.35-3.02-3.02s1.35-3.02,3.02-3.02h40.42c1.67,0,3.02,1.35,3.02,3.02s-1.35,3.02-3.02,3.02Z"/>
    <path class="cls-2" d="m17.51,65.25c-1.67,0-3.02,1.35-3.02,3.02s1.35,3.02,3.02,3.02h30.33c1.83-2.24,3.64-4.24,5.41-6.04H17.51Z"/>
  </g>
</svg>