<?xml version="1.0" encoding="UTF-8"?>
<svg id="Calque_1" data-name="Calque 1" xmlns="http://www.w3.org/2000/svg" viewBox="0 0 150 150">
  <defs>
    <style>
      .cls-1 {
        fill: #283456;
      }
    </style>
  </defs>
  <path class="cls-1" d="m120.19,90.3l12.47-26.05c2.17-4.54,7.62-6.46,12.16-4.29,4.54,2.18,6.46,7.62,4.29,12.16l-16.98,35.47c-1.14,2.37-3.25,4.14-5.78,4.85-.8.22-1.62.33-2.44.33-1.76,0-3.51-.51-5.02-1.5l-9.27-6.11,7.95-16.6,2.63,1.74Z"/>
  <path class="cls-1" d="m37.91,57.92c-4.2-2.77-5.37-8.42-2.6-12.63,2.77-4.2,8.42-5.37,12.63-2.6l45.28,29.83-7.95,16.6-47.37-31.21Z"/>
  <path class="cls-1" d="m1.5,54.15c2.77-4.2,8.42-5.37,12.63-2.6l72.25,47.6,3.38-7.07,7.95-16.6,1.14-2.38c2.17-4.54,7.62-6.46,12.16-4.29,4.54,2.18,6.46,7.62,4.29,12.16l-2.22,4.63-7.95,16.6-6.82,14.24c-1.14,2.37-3.25,4.14-5.78,4.85-.8.22-1.62.33-2.44.33-1.76,0-3.51-.51-5.02-1.5L4.1,66.78c-4.2-2.77-5.37-8.42-2.6-12.63Z"/>
</svg>