<?xml version="1.0" encoding="UTF-8"?>
<svg id="Calque_1" data-name="Calque 1" xmlns="http://www.w3.org/2000/svg" viewBox="0 0 150 150">
  <defs>
    <style>
      .cls-1 {
        fill: #e5910b;
      }

      .cls-2 {
        fill: #283456;
      }

      .cls-3 {
        fill: none;
      }

      .cls-4 {
        fill: #e5d1b5;
      }

      .cls-5 {
        fill: #dbb985;
      }

      .cls-6 {
        fill: #e9e0d3;
      }
    </style>
  </defs>
  <g>
    <path class="cls-3" d="m65.49,57.84h2.12c.93,0,1.69.76,1.69,1.69v62.35c0,.94-.76,1.69-1.69,1.69h-2.11c-.94,0-1.7-.76-1.7-1.7v-62.35c0-.94.76-1.69,1.69-1.69Z"/>
    <path class="cls-2" d="m87.83,46.74s4.31-24.41-18.43-24.28c-21.81.13-20.49,23.08-20.49,23.08,0,0,15.33-4.31,38.92,1.2Z"/>
    <path class="cls-2" d="m93.07,52.63c-6.44-3.91-16-5.96-28.66-5.88-17.32.1-26.84,4.81-31.25,11.89l-13.22-10.26c-1.67-1.3-4.08-1-5.38.68l-.32.41c-1.3,1.67-.99,4.08.68,5.38l15.39,11.95c-.68,5.13.17,10.84,2.05,16.68h-9.23c-2.12,0-3.83,1.72-3.83,3.84v.52c0,2.12,1.72,3.84,3.83,3.84h12.43c1.99,4.35,4.4,8.62,6.96,12.65-.13.08-.27.1-.4.2l-15.8,12.27c-1.79,1.39-2.11,3.96-.72,5.74,1.39,1.79,3.96,2.11,5.75.72l15.76-12.23c7.44,10.14,15.12,17.37,18,17.37,4,0,10.3-4.92,16.64-12.34-5.95-7.32-9.52-16.65-9.52-26.81,0-15.57,8.37-29.18,20.85-36.59Zm-23.77,69.26c0,.94-.76,1.69-1.7,1.69h-2.11c-.94,0-1.69-.76-1.69-1.69v-62.35c0-.94.76-1.69,1.69-1.69h2.11c.94,0,1.7.76,1.7,1.69v62.35Z"/>
  </g>
  <g>
    <path class="cls-5" d="m104.55,77.54c-1.49,0-2.71-.75-2.71-1.67v-12.1c0-.92,1.21-1.67,2.71-1.67s2.71.75,2.71,1.67v12.1c0,.92-1.21,1.67-2.71,1.67Z"/>
    <path class="cls-4" d="m97.64,79.73c-1.14.96-2.55,1.17-3.15.46l-7.78-9.27c-.59-.71-.15-2.06,1-3.02,1.14-.96,2.55-1.17,3.15-.46l7.78,9.27c.59.71.15,2.06-1,3.02Z"/>
    <path class="cls-6" d="m93.74,85.86c-.26,1.47-1.21,2.53-2.11,2.37l-11.92-2.1c-.91-.16-1.43-1.48-1.17-2.95.26-1.47,1.21-2.53,2.11-2.37l11.92,2.1c.91.16,1.43,1.48,1.17,2.95Z"/>
    <path class="cls-4" d="m94.7,93.05c.75,1.29.71,2.72-.09,3.18l-10.48,6.05c-.8.46-2.05-.21-2.8-1.51-.75-1.29-.71-2.72.09-3.18l10.48-6.05c.8-.46,2.05.21,2.8,1.51Z"/>
    <path class="cls-5" d="m100.05,97.94c1.4.51,2.29,1.63,1.97,2.49l-4.14,11.37c-.32.87-1.71,1.15-3.11.64s-2.29-1.63-1.97-2.49l4.14-11.37c.32-.87,1.71-1.15,3.11-.64Z"/>
    <path class="cls-1" d="m107.3,98.25c1.4-.51,2.8-.22,3.11.64l4.14,11.37c.32.87-.57,1.98-1.97,2.49s-2.8.22-3.11-.64l-4.14-11.37c-.32-.87.57-1.98,1.97-2.49Z"/>
    <path class="cls-1" d="m113.05,93.83c.75-1.29,2-1.97,2.8-1.51l10.48,6.05c.8.46.84,1.88.09,3.18s-2,1.97-2.8,1.51l-10.48-6.05c-.8-.46-.84-1.88-.09-3.18Z"/>
    <path class="cls-1" d="m114.61,86.74c-.26-1.47.27-2.79,1.17-2.95l11.92-2.1c.91-.16,1.85.9,2.11,2.37.26,1.47-.27,2.79-1.17,2.95l-11.92,2.1c-.91.16-1.85-.9-2.11-2.37Z"/>
    <path class="cls-1" d="m111.26,80.31c-1.14-.96-1.59-2.31-1-3.02l7.78-9.27c.59-.71,2-.5,3.15.46s1.59,2.31,1,3.02l-7.78,9.27c-.59.71-2,.5-3.15-.46Z"/>
  </g>
</svg>