<?xml version="1.0" encoding="UTF-8"?>
<svg id="Calque_1" data-name="Calque 1" xmlns="http://www.w3.org/2000/svg" viewBox="0 0 150 150">
  <defs>
    <style>
      .cls-1 {
        fill: #e30613;
      }

      .cls-2 {
        fill: #283456;
      }

      .cls-3 {
        fill: none;
      }
    </style>
  </defs>
  <path class="cls-1" d="m133.3,71.21l.19-.19-2.51-2.86h0s-2.93-3.33-2.93-3.33l-.25.25c-4.93-4.07-11.15-6.35-17.62-6.35-15.27,0-27.69,12.42-27.69,27.69,0,6.74,2.44,13.16,6.81,18.17l-.25.25,3.41,2.84s0,0,0,0l2.92,2.44.19-.19c4.36,2.71,9.43,4.18,14.6,4.18,15.27,0,27.69-12.42,27.69-27.69,0-5.44-1.6-10.72-4.57-15.21Zm-23.12,32.88c-.29,0-.58,0-.87-.02-.09,0-.18-.01-.27-.02-.2-.01-.4-.03-.61-.05-.1-.01-.2-.02-.3-.03-.2-.02-.4-.05-.6-.08-.09-.01-.18-.03-.27-.04-.28-.05-.56-.1-.84-.16,0,0,0,0,0,0-.28-.06-.56-.13-.84-.21-.09-.02-.17-.05-.26-.07-.19-.06-.39-.11-.58-.18-.1-.03-.19-.06-.29-.1-.19-.07-.38-.13-.57-.21-.09-.03-.17-.06-.26-.1-.26-.1-.51-.21-.77-.33,0,0-.02,0-.03-.01l23.21-23.82s.02.04.03.07c.13.27.26.55.38.82.02.04.03.09.05.13.1.24.19.48.28.72.03.09.07.19.1.28.07.2.13.4.2.6.03.1.06.19.09.29.07.23.13.46.18.69.02.06.03.13.05.19.07.29.13.59.18.89.01.08.02.16.04.24.04.22.07.45.1.67.01.1.02.21.03.31.02.22.04.43.06.65,0,.09.01.19.02.28.02.31.03.61.03.92,0,9.74-7.93,17.67-17.67,17.67Zm0-35.33c.29,0,.58,0,.86.02.09,0,.17.01.25.02.21.01.42.03.63.05.09,0,.17.02.25.03.27.03.55.07.82.11,0,0,.02,0,.03,0,.28.05.56.1.84.16.08.02.16.04.24.06.2.05.41.1.61.15.08.02.16.04.25.07.25.07.51.15.76.23.02,0,.04.01.05.02.27.09.53.19.79.29.08.03.15.06.23.09.19.08.39.16.58.25.08.03.16.07.23.11.23.11.46.22.69.34.02.01.05.02.07.03.25.13.5.27.74.41.07.04.14.08.21.12.18.11.36.22.53.34.07.05.14.09.22.14.21.14.42.29.62.44.03.02.05.04.08.06,0,0,.01,0,.02.01l-24.44,25.08s-.04-.05-.06-.07c-.05-.06-.09-.12-.14-.18-.13-.18-.26-.35-.39-.53-.05-.08-.11-.15-.16-.23-.13-.19-.25-.38-.38-.57-.04-.06-.07-.11-.11-.17-.15-.25-.3-.5-.44-.75-.03-.06-.06-.12-.1-.18-.11-.2-.21-.4-.3-.6-.04-.08-.08-.17-.12-.25-.09-.2-.18-.4-.26-.6-.03-.07-.06-.14-.09-.21-.11-.27-.21-.54-.31-.81-.02-.05-.03-.11-.05-.16-.08-.22-.15-.45-.21-.68-.03-.09-.05-.18-.08-.27-.06-.21-.11-.42-.16-.62-.02-.08-.04-.16-.06-.24-.06-.28-.12-.57-.17-.86,0-.04-.01-.07-.02-.11-.04-.25-.08-.51-.11-.77-.01-.09-.02-.18-.03-.27-.02-.21-.04-.43-.05-.64,0-.09-.01-.18-.02-.27-.01-.3-.02-.59-.02-.89,0-9.74,7.93-17.67,17.67-17.67Z"/>
  <g>
    <path class="cls-3" d="m68.9,57.84h2.12c.93,0,1.69.76,1.69,1.69v62.35c0,.94-.76,1.69-1.69,1.69h-2.11c-.94,0-1.7-.76-1.7-1.7v-62.35c0-.94.76-1.69,1.69-1.69Z"/>
    <path class="cls-2" d="m91.23,46.74s4.31-24.41-18.43-24.28c-21.81.13-20.49,23.08-20.49,23.08,0,0,15.33-4.31,38.92,1.2Z"/>
    <path class="cls-2" d="m96.47,52.63c-6.44-3.91-16-5.96-28.66-5.88-17.32.1-26.84,4.81-31.25,11.89l-13.22-10.26c-1.67-1.3-4.08-1-5.38.68l-.32.41c-1.3,1.67-.99,4.08.68,5.38l15.39,11.95c-.68,5.13.17,10.84,2.05,16.68h-9.23c-2.12,0-3.83,1.72-3.83,3.84v.52c0,2.12,1.72,3.84,3.83,3.84h12.43c1.99,4.35,4.4,8.62,6.96,12.65-.13.08-.27.1-.4.2l-15.8,12.27c-1.79,1.39-2.11,3.96-.72,5.74,1.39,1.79,3.96,2.11,5.75.72l15.76-12.23c7.44,10.14,15.12,17.37,18,17.37,4,0,10.3-4.92,16.64-12.34-5.95-7.32-9.52-16.65-9.52-26.81,0-15.57,8.37-29.18,20.85-36.59Zm-23.77,69.26c0,.94-.76,1.69-1.7,1.69h-2.11c-.94,0-1.69-.76-1.69-1.69v-62.35c0-.94.76-1.69,1.69-1.69h2.11c.94,0,1.7.76,1.7,1.69v62.35Z"/>
  </g>
</svg>