<?xml version="1.0" encoding="UTF-8"?>
<svg id="Calque_1" data-name="Calque 1" xmlns="http://www.w3.org/2000/svg" viewBox="0 0 150 150">
  <defs>
    <style>
      .cls-1 {
        fill: #3aaf74;
      }

      .cls-2 {
        fill: #283456;
      }

      .cls-3 {
        fill: none;
      }
    </style>
  </defs>
  <g>
    <path class="cls-3" d="m65.49,57.84h2.12c.93,0,1.69.76,1.69,1.69v62.35c0,.93-.76,1.69-1.69,1.69h-2.11c-.94,0-1.7-.76-1.7-1.7v-62.35c0-.94.76-1.69,1.69-1.69Z"/>
    <path class="cls-2" d="m87.83,46.74s4.31-24.41-18.43-24.28c-21.81.13-20.49,23.08-20.49,23.08,0,0,15.33-4.31,38.92,1.2Z"/>
    <path class="cls-2" d="m93.07,52.63c-6.44-3.91-16-5.96-28.66-5.88-17.32.1-26.84,4.81-31.25,11.89l-13.22-10.26c-1.67-1.3-4.08-1-5.38.68l-.32.41c-1.3,1.67-.99,4.08.68,5.38l15.39,11.95c-.68,5.13.17,10.84,2.05,16.68h-9.23c-2.12,0-3.83,1.72-3.83,3.84v.52c0,2.12,1.72,3.84,3.83,3.84h12.43c1.99,4.35,4.4,8.62,6.96,12.65-.13.08-.27.1-.4.2l-15.8,12.27c-1.79,1.39-2.11,3.96-.72,5.74,1.39,1.79,3.96,2.11,5.75.72l15.76-12.23c7.44,10.14,15.12,17.37,18,17.37,4,0,10.3-4.92,16.64-12.34-5.95-7.32-9.52-16.65-9.52-26.81,0-15.57,8.37-29.18,20.85-36.59Zm-23.77,69.26c0,.94-.76,1.69-1.7,1.69h-2.11c-.94,0-1.69-.76-1.69-1.69v-62.35c0-.94.76-1.69,1.69-1.69h2.11c.94,0,1.7.76,1.7,1.69v62.35Z"/>
  </g>
  <path class="cls-1" d="m134.13,78.7h-19.19v-19.19c0-3.14-2.54-5.68-5.68-5.68h0c-3.14,0-5.68,2.54-5.68,5.68v19.19h-19.19c-3.14,0-5.68,2.54-5.68,5.68h0c0,3.14,2.54,5.68,5.68,5.68h19.19v19.19c0,3.14,2.54,5.68,5.68,5.68h0c3.14,0,5.68-2.54,5.68-5.68v-19.19h19.19c3.14,0,5.68-2.54,5.68-5.68h0c0-3.14-2.54-5.68-5.68-5.68Z"/>
</svg>