<?xml version="1.0" encoding="UTF-8"?>
<svg id="Calque_1" data-name="Calque 1" xmlns="http://www.w3.org/2000/svg" viewBox="0 0 150 150">
  <defs>
    <style>
      .cls-1 {
        fill: #283456;
      }
    </style>
  </defs>
  <path class="cls-1" d="m86.94,83.07l1.26-1.2c32.47-30.97,36.57-35.63,36.57-41.56v-18.35H35.52v19.52c0,.23,0,.45-.02.65-.16,4.34.65,5.25,21.66,24.48l1.3,1.19c1.65,1.51,3.79,2.28,6.03,2.19,2.24-.1,4.3-1.06,5.82-2.72,1.51-1.65,2.29-3.8,2.19-6.03-.1-2.24-1.06-4.3-2.72-5.81l-1.3-1.19c-7.54-6.9-13.23-12.35-16.18-15.5h55.42c-4.33,5.47-20.3,20.71-31.1,31l-1.25,1.19c-34.27,32.69-39.85,39.08-39.85,45.58v16.01h89.26v-18.35c0-5.17-1.04-6.27-14.84-19.22-2.91-2.73-5.92-5.55-8.5-8.09-3.3-3.24-8.62-3.19-11.86.11-3.24,3.3-3.19,8.62.11,11.86,2.79,2.73,6,5.75,8.83,8.4l1.7,1.59c2.75,2.57,5.38,5.03,7.14,6.93h-53.17c6.35-7.46,23.13-23.46,32.77-32.66Zm-1.74-1.83h0s0,0,0,0Z"/>
</svg>