<?xml version="1.0" encoding="UTF-8"?>
<svg id="Calque_1" data-name="Calque 1" xmlns="http://www.w3.org/2000/svg" viewBox="0 0 150 150">
  <defs>
    <style>
      .cls-1 {
        fill: #283456;
      }
    </style>
  </defs>
  <path class="cls-1" d="m114.95,50.89h-13.01v66.3c0,1.45-1.81,3.07-4.41,3.07h-40.09c-2.6,0-4.41-1.62-4.41-3.07V50.89h-14.16c-4.6,0-8.34,3.74-8.34,8.34,0,3.72,2.45,6.88,5.82,7.95v50.02c0,10.88,9.46,19.74,21.08,19.74h40.09c11.62,0,21.08-8.86,21.08-19.74v-50.48c2.76-1.36,4.67-4.2,4.67-7.49,0-4.6-3.74-8.34-8.34-8.34Z"/>
  <path class="cls-1" d="m122.89,28.08h-29.54v-.53c0-5.12-4.17-9.29-9.29-9.29h-12.67c-5.12,0-9.29,4.17-9.29,9.29v.53h-31.52v16.67h92.3v-16.67Z"/>
  <path class="cls-1" d="m69.48,73.32v32.95c0,4.12,3.65,7.23,8.49,7.23s8.49-3.11,8.49-7.23v-32.95c0-4.12-3.65-7.22-8.49-7.22s-8.49,3.11-8.49,7.22Z"/>
</svg>