<?xml version="1.0" encoding="UTF-8"?>
<svg id="Calque_1" data-name="Calque 1" xmlns="http://www.w3.org/2000/svg" xmlns:xlink="http://www.w3.org/1999/xlink" viewBox="0 0 100 43.26">
  <defs>
    <style>
      .cls-1 {
        fill: url(#linear-gradient-2);
      }

      .cls-2 {
        fill: #fff;
      }

      .cls-3 {
        fill: #878787;
      }

      .cls-4 {
        fill: url(#linear-gradient);
      }

      .cls-5 {
        fill: #1d1d1b;
      }
    </style>
    <linearGradient id="linear-gradient" x1="-6.49" y1="27.02" x2="51.71" y2="29.17" gradientUnits="userSpaceOnUse">
      <stop offset="0" stop-color="#3991b4"/>
      <stop offset="1" stop-color="#396184"/>
    </linearGradient>
    <linearGradient id="linear-gradient-2" x1="-6.26" y1="20.9" x2="51.94" y2="23.05" gradientUnits="userSpaceOnUse">
      <stop offset="0" stop-color="#2e9aba"/>
      <stop offset="1" stop-color="#396184"/>
    </linearGradient>
  </defs>
  <g>
    <path class="cls-3" d="m52.39,35.85c-.14,0-.28-.03-.4-.08-.12-.05-.23-.13-.33-.23s-.17-.21-.22-.34c-.05-.13-.08-.27-.08-.41s.03-.28.08-.41.13-.24.22-.34c.09-.1.2-.17.33-.23.12-.06.26-.08.4-.08.13,0,.24.02.35.06.1.04.21.1.3.18.02.01.03.03.03.04s0,.03,0,.05c0,.01-.02.03-.03.03,0,.01-.01.03-.03.03-.01,0-.03,0-.05,0-.02,0-.04-.01-.05-.02-.07-.06-.14-.11-.23-.13-.08-.03-.18-.04-.28-.04-.12,0-.22.02-.32.07-.1.05-.19.11-.26.19s-.14.17-.18.28c-.04.1-.07.22-.07.33s.02.23.07.34c.04.11.1.2.18.28.08.08.16.14.26.19.1.04.21.07.32.07.1,0,.19-.02.28-.05.09-.03.17-.08.25-.14.02-.02.04-.02.07-.02s.04.01.06.03c.02.02.03.04.03.07,0,.01,0,.03,0,.04,0,.01-.01.02-.02.04-.09.08-.19.14-.3.18s-.23.05-.35.05Zm.68-.3l-.2-.04v-.53h-.41s-.06,0-.07-.03c-.02-.02-.03-.04-.03-.07s0-.05.03-.07c.02-.02.04-.03.07-.03h.51s.05,0,.07.03c.02.02.03.04.03.07v.66Z"/>
    <path class="cls-3" d="m53.61,35.82s-.06,0-.07-.03c-.02-.02-.03-.04-.03-.07v-1.87s0-.06.03-.07c.02-.02.04-.03.07-.03h1.25s.05,0,.07.03c.02.02.03.04.03.07,0,.03-.01.05-.03.07-.02.02-.04.03-.07.03h-1.14v.73h.83s.05,0,.07.03c.02.02.03.04.03.07s0,.05-.03.07c-.02.02-.04.03-.07.03h-.83v.74h1.14s.05,0,.07.03c.02.02.03.04.03.07,0,.03-.01.05-.03.07-.02.02-.04.03-.07.03h-1.25Z"/>
    <path class="cls-3" d="m55.98,35.85c-.11,0-.22-.02-.31-.05s-.18-.08-.25-.14c-.07-.06-.12-.13-.16-.21-.01-.03-.01-.05,0-.08s.04-.04.07-.05c.02,0,.05,0,.07,0,.02.01.04.03.05.06.03.05.07.1.12.14.05.04.11.07.18.09.07.02.15.03.23.03.09,0,.18-.02.25-.05.07-.03.13-.08.17-.14.04-.06.06-.13.06-.22,0-.11-.04-.2-.12-.28-.08-.08-.2-.13-.37-.15-.21-.03-.37-.09-.49-.19-.12-.1-.18-.23-.18-.38,0-.11.03-.2.09-.28.06-.08.14-.14.24-.18.1-.04.22-.07.35-.07.1,0,.19.02.27.05s.15.07.21.12.11.11.15.17c.02.03.02.06.02.08,0,.03-.02.05-.05.06-.03.01-.05.01-.08,0-.03,0-.05-.03-.06-.05-.03-.04-.06-.08-.1-.12-.04-.04-.09-.06-.15-.09-.06-.02-.12-.03-.2-.03-.14,0-.25.03-.34.09-.09.06-.13.15-.13.26,0,.06.02.12.05.17s.08.09.16.13c.07.04.17.06.3.08.22.03.39.1.49.2.11.1.16.24.16.41,0,.1-.02.18-.05.25-.03.07-.08.14-.15.19s-.14.09-.22.12c-.08.03-.17.04-.27.04Z"/>
    <path class="cls-3" d="m56.87,33.94s-.05,0-.07-.03c-.02-.02-.03-.04-.03-.07s0-.05.03-.07c.02-.02.04-.03.07-.03h1.47s.05,0,.07.03c.02.02.03.04.03.07s0,.05-.03.07c-.02.02-.04.03-.07.03h-1.47Zm.73,1.89s-.05,0-.07-.03-.03-.05-.03-.07v-1.97h.21v1.97s0,.05-.03.07c-.02.02-.04.03-.07.03Z"/>
    <path class="cls-3" d="m58.84,35.82s-.06,0-.07-.03c-.02-.02-.03-.04-.03-.07v-1.87s0-.06.03-.07c.02-.02.04-.03.07-.03s.05,0,.07.03c.02.02.03.04.03.07v1.87s0,.05-.03.07c-.02.02-.04.03-.07.03Z"/>
    <path class="cls-3" d="m60.43,35.85c-.15,0-.3-.03-.43-.08-.13-.05-.24-.13-.34-.22-.09-.1-.17-.21-.22-.34-.05-.13-.08-.27-.08-.42s.03-.29.08-.42.13-.24.22-.34.21-.17.34-.22c.13-.05.27-.08.43-.08s.29.03.42.08c.13.05.24.13.34.22.1.1.17.21.22.34s.08.27.08.42-.03.3-.08.42c-.05.13-.13.24-.22.34-.1.09-.21.17-.34.22-.13.05-.27.08-.42.08Zm0-.2c.12,0,.24-.02.34-.06.1-.04.19-.1.27-.18.08-.08.14-.17.18-.28.04-.11.06-.22.06-.34s-.02-.24-.06-.34c-.04-.11-.1-.2-.18-.28-.08-.08-.17-.14-.27-.18-.1-.04-.22-.06-.34-.06s-.24.02-.34.06c-.1.04-.19.11-.27.18-.08.08-.14.17-.18.28-.04.1-.06.22-.06.34s.02.24.06.34c.04.11.1.2.18.28.08.08.17.14.27.18.1.04.22.06.34.06Z"/>
    <path class="cls-3" d="m62.03,35.82s-.06,0-.07-.03c-.02-.02-.03-.04-.03-.07v-1.87s0-.06.03-.07c.02-.02.04-.03.07-.03s.06.01.08.04l1.27,1.67v-1.6s0-.06.03-.07c.02-.02.04-.03.07-.03.03,0,.05,0,.07.03s.03.04.03.07v1.87s-.01.05-.03.07c-.02.02-.04.03-.07.03-.01,0-.03,0-.04,0-.01,0-.03-.01-.03-.03l-1.27-1.67v1.6s-.01.05-.03.07c-.02.02-.04.03-.07.03Z"/>
    <path class="cls-3" d="m65,35.82s-.06,0-.07-.03c-.02-.02-.03-.04-.03-.07v-1.87s0-.06.03-.07c.02-.02.04-.03.07-.03h.48c.15,0,.29.03.42.08s.24.12.33.21c.09.09.16.2.21.33.05.13.08.27.08.42s-.03.29-.08.42c-.05.13-.12.24-.21.33-.09.09-.2.16-.33.21s-.27.08-.42.08h-.48Zm.1-.19h.37c.16,0,.31-.04.43-.11.12-.07.22-.17.29-.3s.11-.28.11-.44-.04-.31-.11-.44-.17-.23-.29-.3c-.13-.07-.27-.11-.43-.11h-.37v1.7Z"/>
    <path class="cls-3" d="m67.04,35.82s-.06,0-.07-.03c-.02-.02-.03-.04-.03-.07v-1.87s0-.06.03-.07c.02-.02.04-.03.07-.03h1.25s.05,0,.07.03c.02.02.03.04.03.07,0,.03-.01.05-.03.07-.02.02-.04.03-.07.03h-1.14v.73h.83s.05,0,.07.03c.02.02.03.04.03.07s0,.05-.03.07c-.02.02-.04.03-.07.03h-.83v.74h1.14s.05,0,.07.03c.02.02.03.04.03.07,0,.03-.01.05-.03.07-.02.02-.04.03-.07.03h-1.25Z"/>
    <path class="cls-3" d="m69.41,35.85c-.11,0-.22-.02-.31-.05s-.18-.08-.25-.14c-.07-.06-.12-.13-.16-.21-.01-.03-.01-.05,0-.08s.04-.04.07-.05c.02,0,.05,0,.07,0,.02.01.04.03.05.06.03.05.07.1.12.14.05.04.11.07.18.09.07.02.15.03.23.03.09,0,.18-.02.25-.05.07-.03.13-.08.17-.14.04-.06.06-.13.06-.22,0-.11-.04-.2-.12-.28-.08-.08-.2-.13-.37-.15-.21-.03-.37-.09-.49-.19-.12-.1-.18-.23-.18-.38,0-.11.03-.2.09-.28.06-.08.14-.14.24-.18.1-.04.22-.07.35-.07.1,0,.19.02.27.05s.15.07.21.12.11.11.15.17c.02.03.02.06.02.08,0,.03-.02.05-.05.06-.03.01-.05.01-.08,0-.03,0-.05-.03-.06-.05-.03-.04-.06-.08-.1-.12-.04-.04-.09-.06-.15-.09-.06-.02-.12-.03-.2-.03-.14,0-.25.03-.34.09-.09.06-.13.15-.13.26,0,.06.02.12.05.17s.08.09.16.13c.07.04.17.06.3.08.22.03.39.1.49.2.11.1.16.24.16.41,0,.1-.02.18-.05.25-.03.07-.08.14-.15.19s-.14.09-.22.12c-.08.03-.17.04-.27.04Z"/>
    <path class="cls-3" d="m71.2,35.82s-.07-.02-.09-.05c-.02-.03-.02-.07,0-.1l.78-1.85s.05-.07.1-.07.08.02.1.07l.78,1.86s.01.07,0,.1c-.02.03-.05.05-.09.05-.02,0-.04,0-.06-.02s-.03-.03-.04-.05l-.73-1.77h.08l-.74,1.77s-.02.04-.04.05-.04.02-.06.02Zm.18-.49l.08-.18h1.08l.08.18h-1.24Z"/>
    <path class="cls-3" d="m74.06,35.85c-.14,0-.28-.03-.4-.08-.12-.05-.23-.13-.33-.23s-.17-.21-.22-.34c-.05-.13-.08-.27-.08-.41s.03-.28.08-.41.13-.24.22-.34c.09-.1.2-.17.33-.23.12-.06.26-.08.4-.08.13,0,.24.02.35.06.1.04.21.1.3.18.02.01.03.03.03.04s0,.03,0,.05c0,.01-.02.03-.03.03,0,.01-.01.03-.03.03-.01,0-.03,0-.05,0-.02,0-.04-.01-.05-.02-.07-.06-.14-.11-.23-.13-.08-.03-.18-.04-.28-.04-.12,0-.22.02-.32.07-.1.05-.19.11-.26.19s-.14.17-.18.28c-.04.1-.07.22-.07.33s.02.23.07.34c.04.11.1.2.18.28.08.08.16.14.26.19.1.04.21.07.32.07.1,0,.19-.02.28-.05.09-.03.17-.08.25-.14.02-.02.04-.02.07-.02s.04.01.06.03c.02.02.03.04.03.07,0,.01,0,.03,0,.04,0,.01-.01.02-.02.04-.09.08-.19.14-.3.18s-.23.05-.35.05Z"/>
    <path class="cls-3" d="m75.05,33.94s-.05,0-.07-.03c-.02-.02-.03-.04-.03-.07s0-.05.03-.07c.02-.02.04-.03.07-.03h1.47s.05,0,.07.03c.02.02.03.04.03.07s0,.05-.03.07c-.02.02-.04.03-.07.03h-1.47Zm.73,1.89s-.05,0-.07-.03-.03-.05-.03-.07v-1.97h.21v1.97s0,.05-.03.07c-.02.02-.04.03-.07.03Z"/>
    <path class="cls-3" d="m77.02,35.82s-.06,0-.07-.03c-.02-.02-.03-.04-.03-.07v-1.87s0-.06.03-.07c.02-.02.04-.03.07-.03s.05,0,.07.03c.02.02.03.04.03.07v1.87s0,.05-.03.07c-.02.02-.04.03-.07.03Z"/>
    <path class="cls-3" d="m78.34,35.82s-.08-.02-.1-.07l-.79-1.85c-.02-.05-.02-.09,0-.12.02-.03.05-.04.09-.04s.08.02.1.07l.73,1.75h-.06l.73-1.75s.02-.04.04-.06c.02-.01.04-.02.06-.02.04,0,.07.01.08.05.01.03.01.07,0,.11l-.79,1.86s-.02.04-.04.05c-.02,0-.03.01-.05.01Z"/>
    <path class="cls-3" d="m79.66,35.82s-.06,0-.07-.03c-.02-.02-.03-.04-.03-.07v-1.87s0-.06.03-.07c.02-.02.04-.03.07-.03s.05,0,.07.03c.02.02.03.04.03.07v1.87s0,.05-.03.07c-.02.02-.04.03-.07.03Z"/>
    <path class="cls-3" d="m80.17,33.94s-.05,0-.07-.03c-.02-.02-.03-.04-.03-.07s0-.05.03-.07c.02-.02.04-.03.07-.03h1.47s.05,0,.07.03c.02.02.03.04.03.07s0,.05-.03.07c-.02.02-.04.03-.07.03h-1.47Zm.73,1.89s-.05,0-.07-.03-.03-.05-.03-.07v-1.97h.21v1.97s0,.05-.03.07c-.02.02-.04.03-.07.03Z"/>
    <path class="cls-3" d="m82.14,35.82s-.06,0-.07-.03c-.02-.02-.03-.04-.03-.07v-1.87s0-.06.03-.07c.02-.02.04-.03.07-.03h1.25s.05,0,.07.03c.02.02.03.04.03.07,0,.03-.01.05-.03.07-.02.02-.04.03-.07.03h-1.14v.73h.83s.05,0,.07.03c.02.02.03.04.03.07s0,.05-.03.07c-.02.02-.04.03-.07.03h-.83v.74h1.14s.05,0,.07.03c.02.02.03.04.03.07,0,.03-.01.05-.03.07-.02.02-.04.03-.07.03h-1.25Z"/>
    <path class="cls-3" d="m84.51,35.85c-.11,0-.22-.02-.31-.05s-.18-.08-.25-.14c-.07-.06-.12-.13-.16-.21-.01-.03-.01-.05,0-.08s.04-.04.07-.05c.02,0,.05,0,.07,0,.02.01.04.03.05.06.03.05.07.1.12.14.05.04.11.07.18.09.07.02.15.03.23.03.09,0,.18-.02.25-.05.07-.03.13-.08.17-.14.04-.06.06-.13.06-.22,0-.11-.04-.2-.12-.28-.08-.08-.2-.13-.37-.15-.21-.03-.37-.09-.49-.19-.12-.1-.18-.23-.18-.38,0-.11.03-.2.09-.28.06-.08.14-.14.24-.18.1-.04.22-.07.35-.07.1,0,.19.02.27.05s.15.07.21.12.11.11.15.17c.02.03.02.06.02.08,0,.03-.02.05-.05.06-.03.01-.05.01-.08,0-.03,0-.05-.03-.06-.05-.03-.04-.06-.08-.1-.12-.04-.04-.09-.06-.15-.09-.06-.02-.12-.03-.2-.03-.14,0-.25.03-.34.09-.09.06-.13.15-.13.26,0,.06.02.12.05.17s.08.09.16.13c.07.04.17.06.3.08.22.03.39.1.49.2.11.1.16.24.16.41,0,.1-.02.18-.05.25-.03.07-.08.14-.15.19s-.14.09-.22.12c-.08.03-.17.04-.27.04Z"/>
    <path class="cls-3" d="m86.52,35.82s-.06,0-.07-.03c-.02-.02-.03-.04-.03-.07v-1.87s0-.06.03-.07c.02-.02.04-.03.07-.03h.48c.15,0,.29.03.42.08s.24.12.33.21c.09.09.16.2.21.33.05.13.08.27.08.42s-.03.29-.08.42c-.05.13-.12.24-.21.33-.09.09-.2.16-.33.21s-.27.08-.42.08h-.48Zm.1-.19h.37c.16,0,.31-.04.43-.11.12-.07.22-.17.29-.3s.11-.28.11-.44-.04-.31-.11-.44-.17-.23-.29-.3c-.13-.07-.27-.11-.43-.11h-.37v1.7Z"/>
    <path class="cls-3" d="m88.56,35.82s-.06,0-.07-.03c-.02-.02-.03-.04-.03-.07v-1.87s0-.06.03-.07c.02-.02.04-.03.07-.03h1.25s.05,0,.07.03c.02.02.03.04.03.07,0,.03-.01.05-.03.07-.02.02-.04.03-.07.03h-1.14v.73h.83s.05,0,.07.03c.02.02.03.04.03.07s0,.05-.03.07c-.02.02-.04.03-.07.03h-.83v.74h1.14s.05,0,.07.03c.02.02.03.04.03.07,0,.03-.01.05-.03.07-.02.02-.04.03-.07.03h-1.25Z"/>
    <path class="cls-3" d="m91.18,35.82s-.05,0-.07-.03c-.02-.02-.03-.04-.03-.07v-1.87s.01-.05.03-.07.04-.03.07-.03.05,0,.07.03.03.04.03.07v1.77h1.04s.05,0,.07.03c.02.02.03.04.03.07s-.01.05-.03.07c-.02.02-.04.03-.07.03h-1.14Z"/>
    <path class="cls-3" d="m92.64,35.82s-.07-.02-.09-.05c-.02-.03-.02-.07,0-.1l.78-1.85s.05-.07.1-.07.08.02.1.07l.78,1.86s.01.07,0,.1c-.02.03-.05.05-.09.05-.02,0-.04,0-.06-.02s-.03-.03-.04-.05l-.73-1.77h.08l-.74,1.77s-.02.04-.04.05-.04.02-.06.02Zm.18-.49l.08-.18h1.08l.08.18h-1.24Z"/>
    <path class="cls-3" d="m95.51,35.82s-.06,0-.07-.03c-.02-.02-.03-.04-.03-.07v-1.87s0-.06.03-.07c.02-.02.04-.03.07-.03h.48c.15,0,.29.03.42.08s.24.12.33.21c.09.09.16.2.21.33.05.13.08.27.08.42s-.03.29-.08.42c-.05.13-.12.24-.21.33-.09.09-.2.16-.33.21s-.27.08-.42.08h-.48Zm.1-.19h.37c.16,0,.31-.04.43-.11.12-.07.22-.17.29-.3s.11-.28.11-.44-.04-.31-.11-.44-.17-.23-.29-.3c-.13-.07-.27-.11-.43-.11h-.37v1.7Z"/>
    <path class="cls-3" d="m98.09,35.85c-.11,0-.22-.02-.31-.05s-.18-.08-.25-.14c-.07-.06-.12-.13-.16-.21-.01-.03-.01-.05,0-.08s.04-.04.07-.05c.02,0,.05,0,.07,0,.02.01.04.03.05.06.03.05.07.1.12.14.05.04.11.07.18.09.07.02.15.03.23.03.09,0,.18-.02.25-.05.07-.03.13-.08.17-.14.04-.06.06-.13.06-.22,0-.11-.04-.2-.12-.28-.08-.08-.2-.13-.37-.15-.21-.03-.37-.09-.49-.19-.12-.1-.18-.23-.18-.38,0-.11.03-.2.09-.28.06-.08.14-.14.24-.18.1-.04.22-.07.35-.07.1,0,.19.02.27.05s.15.07.21.12.11.11.15.17c.02.03.02.06.02.08,0,.03-.02.05-.05.06-.03.01-.05.01-.08,0-.03,0-.05-.03-.06-.05-.03-.04-.06-.08-.1-.12-.04-.04-.09-.06-.15-.09-.06-.02-.12-.03-.2-.03-.14,0-.25.03-.34.09-.09.06-.13.15-.13.26,0,.06.02.12.05.17s.08.09.16.13c.07.04.17.06.3.08.22.03.39.1.49.2.11.1.16.24.16.41,0,.1-.02.18-.05.25-.03.07-.08.14-.15.19s-.14.09-.22.12c-.08.03-.17.04-.27.04Z"/>
    <path class="cls-3" d="m99.31,35.82s-.06,0-.07-.03c-.02-.02-.03-.04-.03-.07v-1.87s0-.06.03-.07c.02-.02.04-.03.07-.03s.05,0,.07.03c.02.02.03.04.03.07v1.87s0,.05-.03.07c-.02.02-.04.03-.07.03Z"/>
  </g>
  <g>
    <path class="cls-5" d="m60.31,23.57h-3.88v-2.65h7.05v8.73c-.26.1-.59.19-.99.3-.4.1-.85.2-1.35.28-.5.08-1.01.15-1.53.2-.53.05-1.05.08-1.57.08-1.55,0-2.91-.21-4.07-.63s-2.13-1.01-2.9-1.77-1.35-1.66-1.73-2.71c-.38-1.05-.58-2.21-.58-3.47,0-.9.1-1.75.3-2.57s.5-1.57.89-2.26c.39-.69.87-1.32,1.43-1.88s1.2-1.04,1.92-1.44c.72-.4,1.51-.7,2.37-.91s1.78-.32,2.76-.32c.87,0,1.7.06,2.48.19.78.13,1.43.28,1.93.46v2.69c-.67-.22-1.35-.38-2.04-.49-.69-.11-1.38-.17-2.08-.17-.94,0-1.82.14-2.64.42-.82.28-1.53.69-2.13,1.24-.6.55-1.07,1.22-1.42,2.03-.34.8-.52,1.73-.52,2.78,0,2.05.54,3.58,1.6,4.6,1.06,1.02,2.57,1.53,4.52,1.53.36,0,.74-.02,1.13-.06.39-.04.73-.09,1.02-.15v-4.05Z"/>
    <path class="cls-5" d="m77.28,25.77h-6.52l-1.7,4.41h-3.38l6.87-17.31h2.9l6.87,17.31h-3.35l-1.7-4.41Zm-3.29-8.74c-.61,1.81-1.15,3.33-1.62,4.54l-.59,1.54h4.48l-.59-1.54c-.47-1.23-1.01-2.74-1.62-4.54h-.05Z"/>
    <path class="cls-5" d="m84.78,30.19V12.87h4.58c.41,0,.82.01,1.24.04.42.03.83.06,1.22.12.4.05.78.11,1.15.19.37.07.71.16,1.02.27.92.29,1.74.69,2.45,1.19.71.5,1.3,1.09,1.78,1.77.48.68.84,1.44,1.09,2.28.25.84.37,1.75.37,2.74,0,.93-.1,1.81-.31,2.62-.21.82-.52,1.56-.94,2.23-.42.67-.96,1.27-1.6,1.78-.64.51-1.4.93-2.28,1.26-.73.28-1.57.48-2.5.62-.93.14-1.98.21-3.14.21h-4.12Zm4.48-2.65c1.85,0,3.3-.25,4.35-.76.92-.46,1.62-1.12,2.1-1.99.47-.87.71-1.98.71-3.34,0-.71-.08-1.35-.23-1.91s-.38-1.08-.67-1.52-.65-.83-1.07-1.15c-.42-.32-.89-.58-1.42-.79-.49-.19-1.04-.33-1.64-.41-.6-.09-1.28-.13-2.03-.13h-1.4v12.01h1.31Z"/>
  </g>
  <g>
    <path class="cls-4" d="m24.84,31.61c.57,0,1.17-.03,1.78-.09.62-.06,1.16-.14,1.62-.24v-6.42h-12.81c.38,1.8,1.12,3.24,2.24,4.32,1.68,1.62,4.07,2.43,7.16,2.43Z"/>
    <path class="cls-1" d="m21.71.62C10.37.62,1.12,9.48.45,20.65h9.58c.08-.85.19-1.68.39-2.47.32-1.29.79-2.49,1.42-3.59.62-1.1,1.38-2.1,2.27-2.98.89-.89,1.9-1.65,3.05-2.28,1.14-.63,2.39-1.11,3.75-1.45s2.82-.5,4.38-.5c1.38,0,2.69.1,3.94.3,1.24.2,2.26.44,3.06.73v4.27c-1.07-.34-2.14-.6-3.23-.78-1.09-.18-2.18-.27-3.29-.27-1.49,0-2.89.22-4.19.67-1.3.44-2.42,1.1-3.38,1.97-.95.87-1.7,1.94-2.25,3.21-.41.95-.66,2.01-.77,3.18h18.08v13.85c-.41.15-.93.31-1.57.47-.64.16-1.35.31-2.13.44-.79.13-1.6.24-2.43.32-.83.08-1.66.12-2.48.12-2.46,0-4.61-.33-6.45-.99s-3.37-1.6-4.6-2.8c-1.22-1.2-2.14-2.64-2.75-4.3-.33-.91-.57-1.88-.72-2.9H.61c1.43,10.39,10.32,18.4,21.1,18.4,11.77,0,21.32-9.55,21.32-21.32S33.48.62,21.71.62Z"/>
    <path class="cls-2" d="m10.86,27.76c.61,1.66,1.52,3.1,2.75,4.3,1.22,1.2,2.76,2.14,4.6,2.8s3.99.99,6.45.99c.82,0,1.65-.04,2.48-.12.83-.08,1.64-.19,2.43-.32.79-.13,1.5-.28,2.13-.44.64-.16,1.16-.32,1.57-.47v-13.85H15.19c.1-1.17.36-2.23.77-3.18.55-1.27,1.3-2.34,2.25-3.21.95-.87,2.08-1.53,3.38-1.97,1.3-.44,2.69-.67,4.19-.67,1.11,0,2.21.09,3.29.27,1.09.18,2.16.44,3.23.78v-4.27c-.79-.29-1.81-.53-3.06-.73-1.24-.2-2.56-.3-3.94-.3-1.56,0-3.02.17-4.38.5s-2.61.82-3.75,1.45c-1.14.63-2.16,1.39-3.05,2.28-.89.89-1.64,1.88-2.27,2.98-.62,1.1-1.09,2.3-1.42,3.59-.2.8-.31,1.63-.39,2.47H.45c-.03.43-.06.85-.06,1.29,0,.99.09,1.96.22,2.92h9.53c.15,1.02.38,1.99.72,2.9Zm17.39-2.9v6.42c-.47.1-1.01.17-1.62.24-.61.06-1.21.09-1.78.09-3.09,0-5.48-.81-7.16-2.43-1.12-1.08-1.86-2.52-2.24-4.32h12.81Z"/>
  </g>
</svg>