<svg id="Layer_1" data-name="Layer 1" xmlns="http://www.w3.org/2000/svg" viewBox="0 0 50 50"><defs><style>.cls-1{fill:#aebbb5;}</style></defs><title>Motifs_Cauris_pied</title><polygon class="cls-1" points="1.9 23.77 0.63 21.66 18.26 11.88 0.63 2.11 1.9 0 23.33 11.88 1.9 23.77"/><path class="cls-1" d="M0,19.41v-15l13.57,7.52ZM2.54,8.58v6.61l6-3.3Z"/><polygon class="cls-1" points="48.1 23.77 26.67 11.88 48.1 0 49.37 2.11 31.74 11.88 49.37 21.66 48.1 23.77"/><polygon class="cls-1" points="25 15.27 17.17 24.5 20.98 24.5 24.78 19.88 29.02 24.5 32.83 24.5 25 15.27"/><path class="cls-1" d="M50,19.41,36.43,11.88,50,4.36Zm-8.5-7.52,6,3.3V8.58Z"/><polygon class="cls-1" points="1.9 26.23 0.63 28.34 18.26 38.12 0.63 47.89 1.9 50 23.33 38.12 1.9 26.23"/><path class="cls-1" d="M13.57,38.12,0,45.64v-15Zm-5.07,0-6-3.3v6.61Z"/><polygon class="cls-1" points="48.1 26.23 26.67 38.12 48.1 50 49.37 47.89 31.74 38.12 49.37 28.34 48.1 26.23"/><polygon class="cls-1" points="25 34.73 17.17 25.5 20.98 25.5 24.78 30.12 29.02 25.5 32.83 25.5 25 34.73"/><path class="cls-1" d="M50,45.64,36.43,38.12,50,30.59Zm-2.54-4.22V34.81l-6,3.3Z"/></svg>