<?xml version="1.0" encoding="UTF-8"?>
<svg id="Calque_1" data-name="Calque 1" xmlns="http://www.w3.org/2000/svg" viewBox="0 0 100 100">
  <defs>
    <style>
      .cls-1 {
        fill: #22384b;
      }

      .cls-2 {
        fill: #219fda;
      }
    </style>
  </defs>
  <polygon class="cls-2" points="94.84 40.9 94.84 51.83 87.82 51.83 82.99 51.83 16.94 51.83 12.12 51.83 5.16 51.83 5.16 46.38 5.16 40.9 0 40.9 0 72.05 5.16 72.05 5.16 70.76 5.16 63.01 12.12 63.01 16.94 63.01 82.99 63.01 87.82 63.01 94.84 63.01 94.84 72.05 100 72.05 100 40.9 94.84 40.9"/>
  <polygon class="cls-1" points="81.96 91.15 17.98 91.15 17.98 69.73 11.09 69.73 11.09 98.05 88.85 98.05 88.85 69.73 81.96 69.73 81.96 91.15"/>
  <polygon class="cls-1" points="11.09 21.22 11.09 47.41 17.98 47.41 17.98 24.5 37.22 8.87 81.96 8.87 81.96 47.41 88.85 47.41 88.85 1.98 34.77 1.98 11.09 21.22"/>
</svg>