<?xml version="1.0" encoding="UTF-8"?>
<svg id="Calque_1" data-name="Calque 1" xmlns="http://www.w3.org/2000/svg" viewBox="0 0 150 150">
  <defs>
    <style>
      .cls-1 {
        fill: #283456;
      }
    </style>
  </defs>
  <path class="cls-1" d="m70.68,125.89c-6,0-13.2-2.5-21.82-7.58-8.66-5.09-13.08-11.2-13.13-18.15-.04-5.86,2.97-10.98,5.4-15.1l26.42-44.92c10.06-17.1,17.4-19.8,31.42-11.55,6.5,3.82,10.29,8.17,11.59,13.29,1.88,7.39-2.14,14.07-5.08,18.95-.29.48-.57.94-.83,1.4-2.35,3.99-7.57,12.94-12.42,21.24-4.21,7.21-8.14,13.94-9.67,16.54-.26.45-.52.9-.78,1.36-1.92,3.38-4.31,7.59-9.01,8.85-3.43.92-7.34.06-11.92-2.64-2.36-1.39-5.93-3.48-7.2-7.59-1.21-3.9-.06-8.62,3.6-14.86,6.59-11.21,21.93-37.5,22.08-37.77,1.08-1.86,3.48-2.49,5.34-1.4,1.86,1.09,2.49,3.47,1.4,5.34-.15.26-15.5,26.57-22.1,37.79-3.16,5.37-3.16,7.69-2.88,8.6.32,1.02,1.54,1.9,3.7,3.17,2.58,1.52,4.69,2.17,5.95,1.83,1.55-.42,2.86-2.72,4.25-5.16.28-.49.56-.98.84-1.47,1.52-2.59,5.45-9.31,9.66-16.52,4.86-8.31,10.08-17.27,12.43-21.26.28-.47.57-.96.87-1.46,2.47-4.11,5.28-8.78,4.2-13.01-.75-2.96-3.44-5.81-7.98-8.49-5.21-3.06-8.29-3.96-10.64-3.1-2.76,1.01-5.87,4.67-10.11,11.87l-26.42,44.92c-2.04,3.46-4.35,7.39-4.32,11.09.01,1.5.05,6.05,9.28,11.48,9.09,5.35,16.07,7.41,20.74,6.14,3.58-.98,5.87-3.84,8.4-8.14l25.05-42.59c1.09-1.86,3.48-2.48,5.34-1.39h0c1.86,1.09,2.48,3.48,1.39,5.34l-25.05,42.59c-2.97,5.04-6.6,9.95-13.08,11.72-1.55.42-3.19.63-4.93.63Z"/>
</svg>