<?xml version="1.0" encoding="UTF-8"?>
<svg id="Calque_1" data-name="Calque 1" xmlns="http://www.w3.org/2000/svg" viewBox="0 0 150 150">
  <defs>
    <style>
      .cls-1 {
        fill: #fdc323;
      }

      .cls-2 {
        fill: #283456;
      }
    </style>
  </defs>
  <g>
    <path class="cls-2" d="m61.1,97.68c-.28-.91-.28-3.23,2.88-8.6,6.6-11.22,21.94-37.52,22.1-37.79,1.09-1.86.46-4.25-1.4-5.34-1.86-1.09-4.25-.46-5.34,1.4-.15.26-15.49,26.55-22.08,37.77-3.66,6.23-4.81,10.95-3.6,14.86,1.27,4.11,4.84,6.21,7.2,7.59.03.02.06.03.09.05-.02-.46-.03-.92-.03-1.38,0-2.56.36-5.03,1.02-7.38-.41-.39-.69-.78-.81-1.19Z"/>
    <path class="cls-2" d="m113.73,70.95c1.09-1.86.47-4.25-1.39-5.34-1.86-1.09-4.25-.47-5.34,1.39l-8.25,14.02c2.43,1.02,4.68,2.37,6.69,4.01l8.28-14.08Z"/>
    <path class="cls-2" d="m62.89,116.49c-3-1.09-6.36-2.71-10.08-4.9-9.24-5.43-9.27-9.98-9.28-11.48-.03-3.7,2.28-7.63,4.32-11.09l26.42-44.92c4.23-7.2,7.35-10.86,10.11-11.87,2.35-.86,5.43.03,10.64,3.1,4.55,2.67,7.23,5.53,7.98,8.49,1.08,4.23-1.73,8.9-4.2,13.01-.3.5-.59.99-.87,1.46-2.3,3.91-7.37,12.58-12.14,20.75.81-.07,1.62-.11,2.45-.11,2.15,0,4.23.26,6.23.72,4.14-7.09,8.19-14.02,10.18-17.4.27-.45.55-.92.83-1.4,2.94-4.88,6.96-11.56,5.08-18.95-1.3-5.12-5.09-9.47-11.59-13.29-14.03-8.25-21.37-5.55-31.42,11.55l-26.42,44.92c-2.42,4.12-5.44,9.25-5.4,15.1.05,6.95,4.47,13.05,13.13,18.15,7.92,4.66,14.63,7.14,20.32,7.52-2.7-2.62-4.85-5.8-6.29-9.34Z"/>
  </g>
  <circle class="cls-1" cx="88.23" cy="106.25" r="22.3"/>
  <path class="cls-2" d="m99.79,120.18s-1.13-13.18-13.1-24.52l2.74-3.33-10.08,2.24.25,9.66,3.16-3.84s14.36,6.01,17.03,19.8Z"/>
</svg>