<?xml version="1.0" encoding="UTF-8"?>
<svg id="Calque_1" data-name="Calque 1" xmlns="http://www.w3.org/2000/svg" xmlns:xlink="http://www.w3.org/1999/xlink" viewBox="0 0 150 150">
  <defs>
    <style>
      .cls-1 {
        fill: #283456;
      }

      .cls-2 {
        fill: url(#Dégradé_sans_nom_7);
      }
    </style>
    <linearGradient id="Dégradé_sans_nom_7" data-name="Dégradé sans nom 7" x1="97.13" y1="82.81" x2="119.19" y2="82.81" gradientTransform="translate(216.32 165.62) rotate(-180)" gradientUnits="userSpaceOnUse">
      <stop offset=".07" stop-color="#7e1710"/>
      <stop offset=".99" stop-color="#e40c23"/>
    </linearGradient>
  </defs>
  <g>
    <path class="cls-1" d="m72.9,91.75c-1.1,0-2,.9-2,2v13.5h-16.31c-1.1,0-2,.9-2,2s.9,2,2,2h30.1c1.1,0,2-.9,2-2s-.9-2-2-2h-9.79v-11.5h23.47v-4h-25.47Z"/>
    <path class="cls-1" d="m123.83,35.01H26.17c-1.1,0-2,.9-2,2v56.73c0,1.1.9,2,2,2h39.1c1.1,0,2-.9,2-2s-.9-2-2-2H28.17v-8.35h70.2v-4H28.17v-40.38h93.67v40.38h-3.89v4h3.89v8.35h-3.89v4h5.89c1.1,0,2-.9,2-2v-56.73c0-1.1-.9-2-2-2Z"/>
    <path class="cls-1" d="m33.64,84.17c-1.85,0-3.35,1.5-3.35,3.35s1.5,3.35,3.35,3.35,3.35-1.5,3.35-3.35-1.5-3.35-3.35-3.35Zm0,4.71c-.75,0-1.35-.61-1.35-1.35s.61-1.35,1.35-1.35,1.35.61,1.35,1.35-.61,1.35-1.35,1.35Z"/>
  </g>
  <polygon class="cls-2" points="110.73 112.94 110.73 65.26 119.19 65.26 108.16 52.68 97.13 65.26 105.07 65.26 105.07 112.94 110.73 112.94"/>
</svg>