<?xml version="1.0" encoding="UTF-8"?>
<svg id="Calque_1" data-name="Calque 1" xmlns="http://www.w3.org/2000/svg" viewBox="0 0 150 150">
  <defs>
    <style>
      .cls-1 {
        fill: #283456;
      }
    </style>
  </defs>
  <polygon class="cls-1" points="73 118.21 73 118.02 72.66 118.12 73 118.21"/>
  <polygon class="cls-1" points="113.43 84.7 113.43 100.47 75.78 110.71 75.78 66.35 78.89 65.51 75 61.85 73 63.73 70.22 66.35 47.48 87.72 31.81 83.38 31.81 106.8 70.22 117.44 72.66 118.12 73 118.02 118.99 105.52 118.99 83.16 113.43 84.7"/>
  <polygon class="cls-1" points="118.99 49.98 118.21 49.24 118.21 49.2 116.59 48.69 114.08 47.9 86.48 39.24 37 48.2 31.58 49.18 31.61 49.41 31.61 49.41 5.76 73.7 31.81 80.92 46.96 85.11 70.22 63.25 73 60.64 72.84 60.59 35.15 50.15 40.53 49.18 86.4 40.87 111.27 48.68 113.77 49.46 115.44 49.99 77 60.64 81.44 64.81 103.04 85.11 113.43 82.24 118.99 80.69 144.24 73.7 118.99 49.98"/>
</svg>