<?xml version="1.0" encoding="UTF-8"?>
<svg id="Calque_1" data-name="Calque 1" xmlns="http://www.w3.org/2000/svg" viewBox="0 0 150 150">
  <defs>
    <style>
      .cls-1 {
        fill: none;
        stroke: #283456;
        stroke-miterlimit: 10;
        stroke-width: 3px;
      }

      .cls-2 {
        fill: #283456;
      }
    </style>
  </defs>
  <path class="cls-2" d="m53.47,52.52c-5.84,0-10.24,5.01-10.24,11.65,0,5.16,5.98,14.04,8.98,18.16.53.73.97,1.32,1.27,1.71.29-.39.74-.97,1.27-1.71,3-4.13,8.98-13.01,8.98-18.16,0-6.64-4.4-11.65-10.24-11.65Zm0,17.56c-4.08,0-7.39-3.31-7.39-7.39s3.31-7.39,7.39-7.39,7.39,3.31,7.39,7.39-3.31,7.39-7.39,7.39Z"/>
  <path class="cls-2" d="m99.53,42.32c-3.96,0-6.94,3.39-6.94,7.89,0,3.49,4.05,9.51,6.08,12.3.36.5.66.9.86,1.16.2-.26.5-.66.86-1.16,2.03-2.8,6.08-8.81,6.08-12.3,0-4.5-2.98-7.89-6.94-7.89Zm0,11.89c-2.76,0-5-2.24-5-5s2.24-5,5-5,5,2.24,5,5-2.24,5-5,5Z"/>
  <g>
    <path class="cls-1" d="m79.87,103.74c15.32-10.47-20.17-7.66-3.44-19.67,0,0,0,0,0,0-11.07,5.34-26.16,16.07-40.23,3.08-5.22-4.82-8.5-5.65-10.51-4.25,3.76,22.41,23.24,39.48,46.72,39.48,4.26,0,8.38-.57,12.31-1.62-7.19-5.53-12.1-12.07-4.86-17.02Z"/>
    <path class="cls-1" d="m36.21,87.15c14.07,12.99,29.16,2.26,40.23-3.08,16.72-12.01,15.69-19.9,1.9-41.6-4.92-7.74-3.66-12.03.41-14.42-2.07-.28-4.18-.43-6.33-.43-26.17,0-47.38,21.21-47.38,47.38,0,2.69.24,5.33.67,7.9,2-1.4,5.29-.57,10.51,4.25Z"/>
    <path class="cls-1" d="m78.75,28.05c-4.07,2.38-5.33,6.68-.41,14.42,13.78,21.7,14.82,29.59-1.9,41.6,4.6-2.22,8.5-3.51,11.35-1.78,6.43,3.9,21.95-6.22,31.98-5.76.02-.51.04-1.01.04-1.52,0-24.02-17.88-43.85-41.05-46.95Z"/>
    <path class="cls-1" d="m87.79,82.28c-2.85-1.73-6.75-.44-11.35,1.78,0,0,0,0,0,0-16.73,12.01,18.76,9.2,3.44,19.67-7.24,4.95-2.33,11.49,4.86,17.02,19.73-5.29,34.37-23,35.04-44.24-10.03-.46-25.55,9.66-31.98,5.76Z"/>
  </g>
</svg>