<?xml version="1.0" encoding="UTF-8"?>
<svg id="Calque_1" data-name="Calque 1" xmlns="http://www.w3.org/2000/svg" viewBox="0 0 150 150">
  <defs>
    <style>
      .cls-1 {
        fill: #1e3e81;
      }

      .cls-2 {
        fill: #283456;
      }
    </style>
  </defs>
  <g>
    <path class="cls-2" d="m64.96,111.01c-2.06,2.86-3.54,4.75-3.75,5.02l-.73.92-.73-.92c-.21-.27-1.7-2.16-3.75-5.01-5.13.47-8.8,1.72-8.8,3.2,0,1.88,5.95,3.41,13.28,3.41s13.28-1.53,13.28-3.41c0-1.48-3.67-2.73-8.8-3.2Z"/>
    <path class="cls-2" d="m61.84,113.61l10.41-86.17h-23.53l10.41,86.17c.19,1.6,2.52,1.6,2.72,0Z"/>
  </g>
  <path class="cls-1" d="m73.73,28.74c5.22.63,8.35,14.74,18.59,8.46,11.32-6.94,12.35-6.31,20.17-5.37,3.8.46,5.87,2,5.87,2l-4.45,36.83s-7.76-10.55-19.03-.35c-11.27,10.2-25.34-6.96-25.34-6.96l4.18-34.61Z"/>
</svg>