<?xml version="1.0" encoding="UTF-8"?>
<svg id="Calque_1" data-name="Calque 1" xmlns="http://www.w3.org/2000/svg" viewBox="0 0 150 150">
  <defs>
    <style>
      .cls-1 {
        fill: #fff;
      }

      .cls-2 {
        fill: #283456;
      }

      .cls-3 {
        fill: none;
      }
    </style>
  </defs>
  <path class="cls-2" d="m44.41,55.72c-.63-1.44-1.45-2.78-2.43-3.98-3.13-3.82-7.87-6.26-13.18-6.26-9.39,0-17.03,7.64-17.03,17.03s7.64,17.03,17.03,17.03c.18,0,.35-.02.52-.03,1.59-.05,3.13-.3,4.58-.76,6.9-2.17,11.93-8.63,11.93-16.25,0-2.41-.51-4.7-1.42-6.78Z"/>
  <path class="cls-1" d="m28.79,53.74c-3.24,0-5.69,2.78-5.69,6.47,0,2.87,3.32,7.8,4.99,10.09.3.41.54.73.7.95.16-.21.41-.54.7-.95,1.67-2.29,4.99-7.23,4.99-10.09,0-3.69-2.45-6.47-5.69-6.47Zm0,9.76c-2.27,0-4.11-1.84-4.11-4.11s1.84-4.11,4.11-4.11,4.11,1.84,4.11,4.11-1.84,4.11-4.11,4.11Z"/>
  <g>
    <path class="cls-3" d="m75.3,105.12c-.8,1.1-1.46,1.99-1.91,2.57-.44-.58-1.1-1.46-1.91-2.57-4.51-6.21-13.49-19.55-13.49-27.3,0-9.98,6.62-17.51,15.4-17.51s15.4,7.53,15.4,17.51c0,7.75-8.99,21.1-13.49,27.3Z"/>
    <path class="cls-3" d="m73.4,64.49c-6.13,0-11.11,4.97-11.11,11.11s4.97,11.11,11.11,11.11,11.11-4.97,11.11-11.11-4.97-11.11-11.11-11.11Z"/>
    <path class="cls-2" d="m73.4,60.3c-8.78,0-15.4,7.53-15.4,17.51,0,7.75,8.99,21.1,13.49,27.3.8,1.1,1.46,1.99,1.91,2.57.44-.58,1.1-1.46,1.91-2.57,4.51-6.21,13.49-19.55,13.49-27.3,0-9.98-6.62-17.51-15.4-17.51Zm0,26.4c-6.13,0-11.11-4.97-11.11-11.11s4.97-11.11,11.11-11.11,11.11,4.97,11.11,11.11-4.97,11.11-11.11,11.11Z"/>
    <path class="cls-2" d="m112.85,78.35c.16,1.46.26,2.95.26,4.45,0,21.89-17.81,39.71-39.71,39.71s-38.51-16.64-39.64-37.52c-1.45.32-2.95.5-4.48.53,1.41,23.12,20.65,41.5,44.12,41.5s44.22-19.83,44.22-44.22c0-1.5-.08-2.97-.22-4.43-.67.05-1.35.1-2.03.1-.85,0-1.68-.06-2.51-.13Z"/>
    <path class="cls-2" d="m73.4,43.1c4.42,0,8.68.74,12.65,2.08.19-1.52.5-3.01.91-4.45-4.28-1.38-8.84-2.14-13.57-2.14-10.12,0-19.45,3.43-26.91,9.17.96,1.15,1.82,2.4,2.55,3.73,6.73-5.25,15.19-8.39,24.37-8.39Z"/>
    <path class="cls-2" d="m115.36,25.35c-10.94,0-20.13,7.5-22.77,17.62-.39,1.51-.64,3.08-.72,4.69-.02.41-.06.82-.06,1.24,0,11.72,8.61,21.44,19.83,23.23,1.22.19,2.45.32,3.72.32.34,0,.67-.04,1.01-.05,12.52-.53,22.55-10.86,22.55-23.5s-10.57-23.56-23.56-23.56Z"/>
  </g>
  <path class="cls-1" d="m115.36,30.11c-6.96,0-12.22,5.97-12.22,13.89,0,6.15,7.13,16.74,10.7,21.66.64.88,1.16,1.58,1.51,2.04.35-.46.88-1.16,1.51-2.04,3.57-4.92,10.7-15.51,10.7-21.66,0-7.92-5.25-13.89-12.22-13.89Zm0,20.94c-4.87,0-8.81-3.95-8.81-8.81s3.94-8.81,8.81-8.81,8.81,3.94,8.81,8.81-3.94,8.81-8.81,8.81Z"/>
</svg>