<?xml version="1.0" encoding="UTF-8"?>
<svg id="Calque_1" data-name="Calque 1" xmlns="http://www.w3.org/2000/svg" viewBox="0 0 150 150">
  <defs>
    <style>
      .cls-1 {
        fill: #283456;
      }
    </style>
  </defs>
  <g>
    <polygon class="cls-1" points="59.21 22.48 59.21 22.46 45.03 33.41 45.03 56.19 45.03 60.6 45.03 127.43 62.58 127.43 64.02 127.43 64.02 56.19 64.02 26.89 101.75 26.89 101.75 127.43 106.58 127.43 106.58 22.48 59.21 22.48"/>
    <g>
      <g>
        <rect class="cls-1" x="67.88" y="32.73" width="4.53" height="3.7"/>
        <rect class="cls-1" x="80.12" y="32.73" width="4.53" height="3.7"/>
        <rect class="cls-1" x="92.35" y="32.73" width="4.53" height="3.7"/>
      </g>
      <g>
        <rect class="cls-1" x="67.88" y="37.94" width="4.53" height="3.7"/>
        <rect class="cls-1" x="80.12" y="37.94" width="4.53" height="3.7"/>
        <rect class="cls-1" x="92.35" y="37.94" width="4.53" height="3.7"/>
      </g>
    </g>
    <g>
      <g>
        <rect class="cls-1" x="67.88" y="44.58" width="4.53" height="3.7"/>
        <rect class="cls-1" x="80.12" y="44.58" width="4.53" height="3.7"/>
        <rect class="cls-1" x="92.35" y="44.58" width="4.53" height="3.7"/>
      </g>
      <g>
        <rect class="cls-1" x="67.88" y="49.79" width="4.53" height="3.7"/>
        <rect class="cls-1" x="80.12" y="49.79" width="4.53" height="3.7"/>
        <rect class="cls-1" x="92.35" y="49.79" width="4.53" height="3.7"/>
      </g>
    </g>
    <g>
      <g>
        <rect class="cls-1" x="67.88" y="56.42" width="4.53" height="3.7"/>
        <rect class="cls-1" x="80.12" y="56.42" width="4.53" height="3.7"/>
        <rect class="cls-1" x="92.35" y="56.42" width="4.53" height="3.7"/>
      </g>
      <g>
        <rect class="cls-1" x="67.88" y="61.63" width="4.53" height="3.7"/>
        <rect class="cls-1" x="80.12" y="61.63" width="4.53" height="3.7"/>
        <rect class="cls-1" x="92.35" y="61.63" width="4.53" height="3.7"/>
      </g>
    </g>
  </g>
  <g>
    <polygon class="cls-1" points="115.78 77.44 115.78 77.43 109.03 82.65 109.03 93.5 109.03 95.6 109.03 127.43 117.39 127.43 118.07 127.43 118.07 93.5 118.07 79.54 136.04 79.54 136.04 127.43 138.34 127.43 138.34 77.44 115.78 77.44"/>
    <rect class="cls-1" x="123.69" y="84.09" width="7.42" height="43.34"/>
  </g>
  <g>
    <polygon class="cls-1" points="20.02 77.44 20.02 77.43 13.26 82.65 13.26 93.5 13.26 95.6 13.26 127.43 21.63 127.43 22.31 127.43 22.31 93.5 22.31 79.54 40.28 79.54 40.28 127.43 42.58 127.43 42.58 77.44 20.02 77.44"/>
    <rect class="cls-1" x="27.91" y="84.09" width="7.42" height="43.34"/>
  </g>
</svg>