<?xml version="1.0" encoding="UTF-8"?>
<svg id="Calque_1" data-name="Calque 1" xmlns="http://www.w3.org/2000/svg" viewBox="0 0 150 150">
  <defs>
    <style>
      .cls-1 {
        fill: #283456;
      }
    </style>
  </defs>
  <g>
    <path class="cls-1" d="m49.61,66.93v29.34h76.33v-29.34H49.61Zm43.73,15.15c0,.87-.71,1.58-1.58,1.58h-6.83c-.87,0-1.58-.71-1.58-1.58v-.02c0-.87.71-1.58,1.58-1.58h6.83c.87,0,1.58.71,1.58,1.58v.02Z"/>
    <path class="cls-1" d="m49.61,131.34h76.33v-29.34H49.61v29.34Zm33.73-14.21c0-.87.71-1.58,1.58-1.58h6.83c.87,0,1.58.71,1.58,1.58v.02c0,.87-.71,1.58-1.58,1.58h-6.83c-.87,0-1.58-.71-1.58-1.58v-.02Z"/>
  </g>
  <g>
    <path class="cls-1" d="m125.94,51.73H58.35c-1.55-2.78-4.51-4.67-7.91-4.67-.11,0-.22,0-.33,0-.25-.83-.52-1.82-.78-2.89-1.37-5.76-2.35-14.26,1.53-17.56,3.24-2.76,9.81-1.72,19.03,3-.47.79-.73,1.69-.73,2.62v1.31h10.38v-1.31c0-1.61-.77-3.14-2.05-4.11-.48-2.34-1.66-3.77-3.14-3.77-1.34,0-2.42,1.15-2.97,3.09-10.68-5.53-17.95-6.45-22.22-2.81-5,4.26-3.84,13.72-2.52,19.55.31,1.36.63,2.52.88,3.37-2.14.73-3.91,2.24-5,4.18h-9.38v79.49h9.47V61.2h83.32v-9.47Z"/>
    <path class="cls-1" d="m74.72,35.35c.78,0,1.41-.63,1.41-1.41h-2.82c0,.78.63,1.41,1.41,1.41Z"/>
  </g>
</svg>