<?xml version="1.0" encoding="UTF-8"?>
<svg id="Calque_1" data-name="Calque 1" xmlns="http://www.w3.org/2000/svg" viewBox="0 0 150 150">
  <defs>
    <style>
      .cls-1 {
        fill: #283456;
      }
    </style>
  </defs>
  <path class="cls-1" d="m61.02,74.03c4.19,2.49,8.79,4.3,13.97,4.3,3.79,0,7.41-.8,10.68-2.16,10.16-4.22,17.3-14.16,17.3-25.78s-7.14-21.57-17.26-25.78c-3.31-1.37-6.93-2.15-10.72-2.15-5.18,0-9.78,1.8-13.97,4.3-8.19,4.87-13.95,13.42-13.95,23.63s5.76,18.77,13.95,23.64Z"/>
  <path class="cls-1" d="m78.22,88.41l-2.55-3.33-2.74,3.02c.71-.36,1.52-.56,2.37-.56,1.08,0,2.08.33,2.92.88Z"/>
  <path class="cls-1" d="m84.67,85.8v11.05l-4.35-5.7c.17.52.27,1.08.27,1.66,0,2.12-1.25,3.95-3.05,4.79l4.97,11.88h.07l-.03.08.03.08h-.07l-7.21,17.24-7.21-17.24h-.07l.03-.08-.03-.08h.07l4.97-11.88c-1.8-.84-3.05-2.67-3.05-4.79,0-.67.13-1.32.36-1.91l-5.4,5.94v-11.14c-.41.08-.82.17-1.23.26-21.71,4.74-38.16,22.84-40.98,45.17h104.5c-2.89-22.83-20.13-41.14-42.58-45.33Z"/>
</svg>