<?xml version="1.0" encoding="UTF-8"?>
<svg id="Calque_1" data-name="Calque 1" xmlns="http://www.w3.org/2000/svg" viewBox="0 0 150 150">
  <defs>
    <style>
      .cls-1 {
        fill: #3aaf74;
      }

      .cls-2 {
        fill: #283456;
      }
    </style>
  </defs>
  <polygon class="cls-2" points="48.03 44.98 82.56 44.98 82.56 51.71 86.98 51.71 86.98 40.58 43.63 40.58 43.63 40.56 30.65 51.51 30.65 127.43 48.03 127.43 48.03 44.98"/>
  <polygon class="cls-2" points="86.98 56.19 82.56 56.19 71.8 56.19 71.8 56.17 58.82 67.12 58.82 127.43 76.2 127.43 76.2 60.6 82.56 60.6 86.98 60.6 94.66 60.6 94.66 56.19 86.98 56.19"/>
  <g>
    <polygon class="cls-1" points="94.44 67.13 94.44 67.12 86.98 73.41 86.98 86.5 86.98 89.03 86.98 127.43 96.22 127.43 96.97 127.43 96.97 86.5 96.97 69.66 116.81 69.66 116.81 127.43 119.35 127.43 119.35 67.13 94.44 67.13"/>
    <g>
      <g>
        <rect class="cls-2" x="100.19" y="78.13" width="2.21" height="11.67"/>
        <rect class="cls-2" x="106.15" y="78.13" width="2.21" height="11.67"/>
        <rect class="cls-2" x="112.11" y="78.13" width="2.21" height="11.67"/>
      </g>
      <g>
        <rect class="cls-2" x="100.19" y="94.57" width="2.21" height="11.67"/>
        <rect class="cls-2" x="106.15" y="94.57" width="2.21" height="11.67"/>
        <rect class="cls-2" x="112.11" y="94.57" width="2.21" height="11.67"/>
      </g>
    </g>
  </g>
</svg>