<?xml version="1.0" encoding="UTF-8"?>
<svg id="Calque_1" data-name="Calque 1" xmlns="http://www.w3.org/2000/svg" viewBox="0 0 150 150">
  <defs>
    <style>
      .cls-1 {
        fill: #3aaf74;
      }

      .cls-2 {
        fill: #283456;
      }
    </style>
  </defs>
  <path class="cls-2" d="m86.35,117.13c-3.69,5.13-6.35,8.52-6.73,9l-1.31,1.65-1.31-1.65c-.38-.48-3.04-3.87-6.73-9-9.21.85-15.8,3.1-15.8,5.75,0,3.37,10.67,6.11,23.84,6.11s23.84-2.74,23.84-6.11c0-2.65-6.6-4.9-15.8-5.75Z"/>
  <path class="cls-1" d="m78.3,20.66c-18.84,0-33.05,16.16-33.05,37.59,0,16.64,19.29,45.29,28.96,58.61,1.72,2.37,3.14,4.26,4.09,5.51.95-1.25,2.37-3.14,4.09-5.51,9.67-13.32,28.96-41.98,28.96-58.61,0-21.43-14.21-37.59-33.05-37.59Zm0,56.66c-13.17,0-23.84-10.67-23.84-23.84s10.67-23.84,23.84-23.84,23.84,10.67,23.84,23.84-10.67,23.84-23.84,23.84Z"/>
</svg>