<svg id="Layer_1" data-name="Layer 1" xmlns="http://www.w3.org/2000/svg" viewBox="0 0 15 13"><defs><style>.cls-1{fill:#221510;}</style></defs><title>Icons_Size_books</title><path class="cls-1" d="M11,.48H6.75L6.6.5l-.17,0v0a1.28,1.28,0,0,0-.51.22l-2.59,2a1.25,1.25,0,0,0-.2.21h0l-.06.08-.21.3H2.9a1.3,1.3,0,0,0-.1.46v7.3a1.35,1.35,0,0,0,1.35,1.35H11a1.35,1.35,0,0,0,1.35-1.35V1.83A1.35,1.35,0,0,0,11,.48Zm-4.83.59A.86.86,0,0,1,6.42.93V3H3.69Zm5.79,10.1a1,1,0,0,1-1,1H4.16a1,1,0,0,1-1-1V3.87a.94.94,0,0,1,.13-.46H6.81V.87H11a1,1,0,0,1,1,1Z"/></svg>