<svg id="Layer_1" data-name="Layer 1" xmlns="http://www.w3.org/2000/svg" xmlns:xlink="http://www.w3.org/1999/xlink" viewBox="0 0 30 29.62"><defs><style>.cls-1{fill:none;}.cls-2{fill:url(#linear-gradient);}.cls-3{fill:url(#linear-gradient-2);}.cls-4{fill:url(#linear-gradient-3);}.cls-5{fill:url(#linear-gradient-4);}</style><linearGradient id="linear-gradient" x1="17.32" y1="4.51" x2="17.32" y2="15.98" gradientUnits="userSpaceOnUse"><stop offset="0" stop-color="#3e819e"/><stop offset="1" stop-color="#04202a"/></linearGradient><linearGradient id="linear-gradient-2" x1="13.78" y1="9.43" x2="17.73" y2="31.91" xlink:href="#linear-gradient"/><linearGradient id="linear-gradient-3" x1="15.33" y1="14.45" x2="15.33" y2="28.26" gradientUnits="userSpaceOnUse"><stop offset="0" stop-color="#099e58"/><stop offset="1" stop-color="#25528a"/></linearGradient><linearGradient id="linear-gradient-4" x1="11.73" y1="26.86" x2="19.66" y2="26.86" xlink:href="#linear-gradient"/></defs><title>Icons_Size_books</title><circle class="cls-1" cx="15.33" cy="2.13" r="1.09"/><path class="cls-2" d="M17.51,3.43a2.34,2.34,0,0,0,.23-1,2.42,2.42,0,0,0-4.83,0,2.35,2.35,0,0,0,.24,1,6.47,6.47,0,0,0-4.6,2.08c3,3,8.42,6.93,17.55,10.05C25,10.13,22.38,3.62,17.51,3.43Zm-2.18-.21a1.09,1.09,0,1,1,1.09-1.09A1.09,1.09,0,0,1,15.33,3.22Z"/><path class="cls-3" d="M26.1,15.57C17,12.45,11.59,8.52,8.55,5.52,7,7.08,5.87,9.53,5.07,12.85a43.45,43.45,0,0,0-1,5.68H26.59C26.48,17.61,26.31,16.61,26.1,15.57Z"/><path class="cls-4" d="M28.16,23.58a7.46,7.46,0,0,1-.24-1.93c0-1.11-.06-2.07-1.23-2.73v-.07H4v.07c-1.18.67-1.23,1.64-1.28,2.76a7.87,7.87,0,0,1-.25,1.9l0,.17H28.21Z"/><path class="cls-5" d="M11.73,24.24c0,2.11,1.7,5.37,4,5.37s4-3.26,4-5.37v-.13H11.73Z"/></svg>