<svg id="Layer_1" data-name="Layer 1" xmlns="http://www.w3.org/2000/svg" viewBox="0 0 512 512"><defs><style>.cls-1{fill:gray;}</style></defs><title>Untitled-2</title><path class="cls-1" d="M436.46,72.88v56.28c0,27.3-23.75,49.5-52.94,49.5s-52.93-22.21-52.93-49.5V72H202.23v57.2c0,27.3-23.75,49.5-52.94,49.5s-52.93-22.21-52.93-49.5V72H85.61a59.55,59.55,0,0,0-59.55,59.55V452.45A59.55,59.55,0,0,0,85.61,512H426.39a59.55,59.55,0,0,0,59.55-59.55V131.52A59.52,59.52,0,0,0,436.46,72.88Zm-1.79,384.53H74V233.53H434.67Z"/><path class="cls-1" d="M149.3,0c-15.5,0-28.12,11.07-28.12,24.69V129.16c0,13.61,12.62,24.69,28.12,24.69s28.12-11.07,28.12-24.69V24.69C177.42,11.07,164.8,0,149.3,0Z"/><path class="cls-1" d="M383.52,0C368,0,355.4,11.07,355.4,24.69V129.16c0,13.61,12.62,24.69,28.12,24.69s28.12-11.07,28.12-24.69V24.69C411.64,11.07,399,0,383.52,0Z"/><circle class="cls-1" cx="144.33" cy="296.53" r="33.5"/><circle class="cls-1" cx="252.84" cy="296.53" r="33.5"/><circle class="cls-1" cx="361.34" cy="296.53" r="33.5"/><circle class="cls-1" cx="144.33" cy="387.52" r="33.5"/><circle class="cls-1" cx="252.84" cy="387.52" r="33.5"/><circle class="cls-1" cx="361.34" cy="387.52" r="33.5"/></svg>