<svg id="Layer_1" data-name="Layer 1" xmlns="http://www.w3.org/2000/svg" viewBox="0 0 512 512"><defs><style>.cls-1{fill:gray;}</style></defs><title>Untitled-2</title><path class="cls-1" d="M325.9,439.09a29.7,29.7,0,0,1-29.67,29.67h-279V169.19l.68-.62,117-3.33L142.57,54.6l1.6-1.46H325.9v76.41q8.46-4.85,17.23-9.59V35.91H137.48L0,161.6V486H296.23a47,47,0,0,0,46.9-46.9V238.43q-8.37,2.32-17.23,5.07Z"/><path class="cls-1" d="M268.49,284.1a6.46,6.46,0,0,0,0-12.92H254.32q-12.73,6-25.6,12.92Z"/><path class="cls-1" d="M80.41,271.18a6.46,6.46,0,1,0,0,12.92h55.91q5.61-6.4,11.61-12.92Z"/><path class="cls-1" d="M268.49,314.25a6.46,6.46,0,0,0,0-12.92h-69.1q-9.62,6.14-19.1,12.92Z"/><path class="cls-1" d="M80.41,301.33a6.46,6.46,0,1,0,0,12.92h30.91q5-6.36,10.37-12.92Z"/><path class="cls-1" d="M268.49,344.4a6.46,6.46,0,0,0,0-12.92H157.76c-5,4.14-10,8.47-14.85,12.92Z"/><path class="cls-1" d="M80.41,331.48a6.46,6.46,0,1,0,0,12.92H89q4.39-6.29,9.24-12.92Z"/><path class="cls-1" d="M268.49,374.55a6.46,6.46,0,0,0,0-12.92H125.15q-6.06,6.28-11.91,12.92Z"/><path class="cls-1" d="M268.49,404.7a6.46,6.46,0,0,0,0-12.92H99c-3.27,4.21-6.48,8.5-9.6,12.92Z"/><path class="cls-1" d="M57.43,427.42s87-200.32,333.95-315.08L366,45.78l146,88L457.35,283.62l-29.3-76.79S171.73,225.46,57.43,427.42Z"/></svg>