<svg id="Layer_1" data-name="Layer 1" xmlns="http://www.w3.org/2000/svg" viewBox="0 0 20 16"><defs><style>.cls-1{fill:#504644;}</style></defs><title>Icons_Size_books</title><path class="cls-1" d="M14.34,6.73,10.42,1.09a.25.25,0,0,0-.39,0L6.11,6.73a.16.16,0,0,0,0,.19A.24.24,0,0,0,6.3,7H8.13l1-1.38v4.51a1,1,0,0,0,1,1h.26a1,1,0,0,0,1-1V5.63l1,1.38h1.83a.24.24,0,0,0,.2-.09.16.16,0,0,0,0-.19Z"/><path class="cls-1" d="M16.87,7.43h-.26a1,1,0,0,0-1,1v4.18H4.54V8.43a1,1,0,0,0-1-1H3.28a1,1,0,0,0-1,1v6.44H17.87V8.43A1,1,0,0,0,16.87,7.43Z"/></svg>