<svg id="Layer_1" data-name="Layer 1" xmlns="http://www.w3.org/2000/svg" viewBox="0 0 22 22"><defs><style>.cls-1{fill:#aa1921;}</style></defs><title>Icons_Size_books</title><path class="cls-1" d="M14.62,20.11h-7A2.77,2.77,0,0,1,4.76,17.4V7.34H4.32a.61.61,0,0,1,0-1.22H5.93V17.4a1.58,1.58,0,0,0,1.65,1.49h7a1.58,1.58,0,0,0,1.65-1.49V6.12h1.4a.61.61,0,0,1,0,1.22h-.24V17.4A2.77,2.77,0,0,1,14.62,20.11Z"/><path class="cls-1" d="M13,3.44v-1a.77.77,0,0,0-.75-.79H10a.77.77,0,0,0-.75.79v1H3.74V4.66H18.19V3.44Z"/><path class="cls-1" d="M9,6.12a.63.63,0,0,0-.61.66v9.85a.61.61,0,1,0,1.22,0V6.78A.63.63,0,0,0,9,6.12Z"/><path class="cls-1" d="M13,6.12a.63.63,0,0,0-.61.66v9.85a.61.61,0,1,0,1.22,0V6.78A.63.63,0,0,0,13,6.12Z"/></svg>