<svg id="Layer_1" data-name="Layer 1" xmlns="http://www.w3.org/2000/svg" xmlns:xlink="http://www.w3.org/1999/xlink" viewBox="0 0 30 28.2"><defs><style>.cls-1{fill:none;}.cls-2{fill:url(#linear-gradient);}.cls-3{fill:#556f82;}</style><linearGradient id="linear-gradient" x1="15.17" y1="12.84" x2="15.17" y2="48.55" gradientUnits="userSpaceOnUse"><stop offset="0" stop-color="#007f82"/><stop offset="1" stop-color="#3a1f51"/></linearGradient></defs><title>Icons_Size_books</title><path class="cls-1" d="M20.53,24.11l.83.41L20.81,24Z"/><path class="cls-2" d="M26.95,12H26a11,11,0,0,0-1.28-3.24l.71-.71c.76-.76.55-2.19-.46-3.2s-2.45-1.22-3.2-.46l-.64.64a11,11,0,0,0-3.23-1.4v-1c0-1.07-1.16-1.94-2.59-1.94s-2.59.87-2.59,1.94v.89a11,11,0,0,0-2.21.78,11,11,0,0,0-1.06.53l-.67-.67c-.76-.76-2.19-.55-3.2.46S4.34,7.13,5.1,7.89l.64.64a11.11,11.11,0,0,0-.91,1.85,11,11,0,0,0-.46,1.38h-1c-1.07,0-1.94,1.16-1.94,2.59s.87,2.59,1.94,2.59h1a11,11,0,0,0,1.31,3.21l-.73.73c-.76.76-.55,2.19.46,3.2s2.45,1.22,3.2.46l.71-.71a11,11,0,0,0,3.16,1.34v1.08c0,1.07,1.16,1.94,2.59,1.94s2.59-.87,2.59-1.94v-1a11,11,0,0,0,2.9-1.13l.28-.14.55.55.22.22a1.65,1.65,0,0,0,1.23.45,2.94,2.94,0,0,0,2-.91c1-1,1.22-2.44.46-3.2l-.71-.71a11.14,11.14,0,0,0,.9-1.78,10.85,10.85,0,0,0,.48-1.38h1c1.07,0,1.94-1.16,1.94-2.59S28,12,26.95,12Zm-5.06,2.86a6.72,6.72,0,0,1-6.23,6.25l-.18,0-.32,0-.39,0a6.75,6.75,0,0,1-6.36-6.37V14.7c0-.09,0-.18,0-.28s0-.23,0-.34a6.73,6.73,0,0,1,1.73-4.19,7,7,0,0,1,.5-.5,7.18,7.18,0,0,1,4.22-1.72h.29l.42,0a6.73,6.73,0,0,1,4.18,1.79,6.81,6.81,0,0,1,.5.51,6.73,6.73,0,0,1,1.66,4.2c0,.08,0,.16,0,.24S21.9,14.73,21.89,14.89Z"/><path class="cls-3" d="M19.38,14.28v-.1a4.31,4.31,0,0,0-3.81-4,4.23,4.23,0,0,0-.48,0h-.23a4.3,4.3,0,0,0-4.06,4c0,.11,0,.23,0,.34s0,.25,0,.37a4.28,4.28,0,0,0,1,2.45,4.39,4.39,0,0,0,.51.5,4.29,4.29,0,0,0,2.42,1l.32,0,.39,0a4.29,4.29,0,0,0,2.36-1,4.34,4.34,0,0,0,.51-.5,4.28,4.28,0,0,0,1-2.34,4.46,4.46,0,0,0,0-.47S19.39,14.33,19.38,14.28Z"/></svg>