<svg id="Layer_1" data-name="Layer 1" xmlns="http://www.w3.org/2000/svg" viewBox="0 0 15 13"><defs><style>.cls-1{fill:none;}.cls-2{fill:#221510;}</style></defs><title>Icons_Size_books</title><path class="cls-1" d="M6.24.93A.85.85,0,0,0,6,1.07L3.52,3H6.24Z"/><path class="cls-2" d="M4,12.07a1,1,0,0,1-1-1V3.85a.93.93,0,0,1,.13-.46H6.63V.87h4.14a1,1,0,0,1,1,1v1.9h.39V1.82A1.34,1.34,0,0,0,10.78.48H6.57L6.42.5l-.17,0v0a1.29,1.29,0,0,0-.51.22l-2.58,2A1.24,1.24,0,0,0,3,3H3l-.06.08h0l-.21.3h.06a1.29,1.29,0,0,0-.1.46v7.26A1.34,1.34,0,0,0,4,12.46H5.78v-.39Zm2-11A.85.85,0,0,1,6.24.93V3H3.52Z"/><path class="cls-2" d="M12,4.07H9l-.11,0H8.77v0a.91.91,0,0,0-.36.16L6.6,5.7a.87.87,0,0,0-.14.15h0l0,.06h0l-.15.21h0a.91.91,0,0,0-.07.33v5.13a1,1,0,0,0,.95.95H12a1,1,0,0,0,.95-.95V5A1,1,0,0,0,12,4.07Zm-3.39.42a.6.6,0,0,1,.19-.1V5.85H6.85Zm4.06,7.09a.68.68,0,0,1-.68.67H7.18a.68.68,0,0,1-.68-.67V6.45a.66.66,0,0,1,.09-.33H9V4.34H12a.68.68,0,0,1,.68.67Z"/></svg>