<svg id="Layer_1" data-name="Layer 1" xmlns="http://www.w3.org/2000/svg" viewBox="0 0 15 13"><defs><style>.cls-1{fill:#221510;}</style></defs><title>Icons_Size_books</title><path class="cls-1" d="M12.12,8.17H4.4v-.3h7.72Z"/><polygon class="cls-1" points="12.03 2.68 11.88 2.98 13.8 2.98 13.8 10.64 1.2 10.64 1.2 2.98 10.54 2.98 10.69 2.68 0.9 2.68 0.9 10.94 14.1 10.94 14.1 2.68 12.03 2.68"/><polygon class="cls-1" points="12.12 6.96 12.12 6.66 10.14 6.66 10 6.96 12.12 6.96"/><polygon class="cls-1" points="4.4 6.96 8.67 6.96 8.66 6.96 8.8 6.66 4.4 6.66 4.4 6.96"/><rect class="cls-1" x="4.4" y="7.86" width="7.72" height="0.3"/><polygon class="cls-1" points="9.35 7.28 9.07 7.15 12.13 0.68 12.41 0.81 9.35 7.28"/></svg>