<svg id="Layer_1" data-name="Layer 1" xmlns="http://www.w3.org/2000/svg" viewBox="0 0 22 22"><defs><style>.cls-1{fill:none;}.cls-2{fill:#545e69;}</style></defs><title>Icons_Size_books</title><path class="cls-1" d="M6,6.48h9.52V7.9H6Zm0,4.95h9.52v1.42H6Z"/><path class="cls-2" d="M5.17,17.86A1.51,1.51,0,0,1,3.7,16.32V4.59A1.51,1.51,0,0,1,5.17,3H16.36a1.51,1.51,0,0,1,1.47,1.54V15.68L19,17.25a3,3,0,0,0,.18-.93V4.59a2.9,2.9,0,0,0-2.83-3H5.17a2.9,2.9,0,0,0-2.83,3V16.32a2.9,2.9,0,0,0,2.83,3H16.36a2.57,2.57,0,0,0,.63-.13l-1-1.29Z"/><polygon class="cls-2" points="18.66 17.94 17.75 16.73 15.9 14.26 14.83 15.14 16.81 17.77 17.66 18.9 18.59 20.14 19.66 19.25 18.66 17.94"/><rect class="cls-2" x="6.01" y="6.48" width="9.52" height="1.42"/><rect class="cls-2" x="6.01" y="11.43" width="9.52" height="1.42"/></svg>