<svg id="Layer_1" data-name="Layer 1" xmlns="http://www.w3.org/2000/svg" viewBox="0 0 512 512"><defs><style>.cls-1{fill:gray;}</style></defs><title>Untitled-2</title><path class="cls-1" d="M422.6,203.37h-9.1q21.69,7.72,42.69,24.48C449.4,213.23,436.9,203.37,422.6,203.37Z"/><path class="cls-1" d="M263.49,442.6c0,6.07-3.33,11.92-9.39,16.47-6.7,5-15.71,7.79-25.38,7.79-18.87,0-34.82-11.12-34.82-24.26V419.31l-5.57-1.39a172.09,172.09,0,0,1-49.37-21l-5-3.1-15.7,15.7c-4.3,4.29-10.78,6.07-18.29,5-8.29-1.18-16.61-5.6-23.45-12.45-8-8-12.77-18.33-12.77-27.63,0-4,.92-9.74,5.3-14.12l16-16-3-4.94a172.24,172.24,0,0,1-20.39-50.2l-1.32-5.69H39c-6.07,0-11.92-3.34-16.46-9.39-5-6.7-7.79-15.71-7.79-25.38,0-18.87,11.12-34.81,24.26-34.81H60.8l1.38-5.6a172.72,172.72,0,0,1,21.35-50.45l3.11-5L72,138.28c-9.3-9.3-5.89-28.42,7.45-41.76C86.34,89.68,94.68,85.25,103,84.07c7.49-1.06,14,.71,18.29,5l15,15,4.93-3a171.82,171.82,0,0,1,51.14-20.5l5.75-1.29V59c0-13.15,15.93-24.26,34.79-24.26S267.7,45.83,267.7,59V80.26l5.55,1.4a171.55,171.55,0,0,1,50.41,21.85l5,3.19L343.31,92c4.29-4.29,10.8-6.07,18.29-5,8.29,1.18,16.62,5.6,23.46,12.45s11.27,15.18,12.46,23.47c1.07,7.5-.7,14-5,18.28L377,156.77l2.9,4.92a171.94,171.94,0,0,1,16.33,37,114.29,114.29,0,0,1,16.53,4.43,186.54,186.54,0,0,0-17.35-43.91l7.53-7.52c15.2-15.2,11.84-43.27-7.47-62.58-9.08-9.08-20.37-15-31.79-16.61-12.2-1.75-23.14,1.51-30.79,9.16L326.54,88a186.34,186.34,0,0,0-44.12-19.1V59c0-21.49-22.22-39-49.52-39s-49.51,17.49-49.51,39v8.66a186.45,186.45,0,0,0-44.77,18l-6.95-6.94C124,71,113.06,67.77,100.88,69.49,89.46,71.12,78.17,77,69.08,86.11c-19.31,19.31-22.65,47.38-7.45,62.58L68,155.06a187.37,187.37,0,0,0-18.66,44.11H39c-21.48,0-39,22.22-39,49.53,0,12.84,3.81,25,10.74,34.22C18.13,292.78,28.16,298.2,39,298.2H48.8A186.71,186.71,0,0,0,66.59,342l-7.92,7.92c-6.2,6.19-9.62,14.9-9.62,24.53,0,13.33,6.22,27.19,17.08,38,9.07,9.08,20.36,15,31.79,16.61,12.2,1.75,23.13-1.51,30.78-9.16l7.5-7.5a186.42,186.42,0,0,0,43,18.26V442.6c0,21.48,22.22,39,49.54,39,12.84,0,25-3.82,34.21-10.74,9.86-7.4,15.29-17.43,15.28-28.25v-.41q-7.4-6.06-14.72-13.1Z"/><path class="cls-1" d="M201.5,349.87l.72-1.52A101.51,101.51,0,0,1,162,326.13a102.49,102.49,0,0,1-33.92-70.75l-.13-2c-.08-1.22-.17-2.44-.17-3.69,0-1.09.08-2.16.16-3.23l.12-1.93a102.85,102.85,0,0,1,26.32-63.64,105.27,105.27,0,0,1,7.67-7.64A102.7,102.7,0,0,1,226.1,147.2c.67,0,1.33-.07,2-.12.81-.06,1.63-.12,2.46-.12,1.58,0,3.14.11,4.7.22l1.68.12a102.82,102.82,0,0,1,63.45,27.2,105.2,105.2,0,0,1,7.55,7.76,102.2,102.2,0,0,1,16.77,26.81,135.36,135.36,0,0,1,13.57-5.67A117,117,0,0,0,319,172.58a120.2,120.2,0,0,0-8.61-8.87,117.62,117.62,0,0,0-72.57-31.11l-1.58-.1a66.67,66.67,0,0,0-9.19-.1l-1.59.1a117.45,117.45,0,0,0-73.27,29.84,120.16,120.16,0,0,0-8.75,8.72,117.61,117.61,0,0,0-30.1,72.75l-.11,1.67c-.1,1.41-.19,2.82-.19,4.25,0,1.59.1,3.15.21,4.71l.12,1.75a117.08,117.08,0,0,0,98.2,109.28c-1.9-2.86-3.8-5.75-5.69-8.71Z"/><path class="cls-1" d="M281.52,192.48a76.66,76.66,0,0,0-43.27-19.66,61.19,61.19,0,0,0-11.7-.41l-1.15.07a76.82,76.82,0,0,0-45.15,17.47,78.29,78.29,0,0,0-9.14,9,76.7,76.7,0,0,0-18.77,44.69c-.16,2-.31,4.05-.31,6.12,0,2.44.17,4.75.34,6.69a76.85,76.85,0,0,0,18.7,44.08,79,79,0,0,0,9.12,9,76.65,76.65,0,0,0,33.8,16c2.28-4,4.95-8.6,8-13.61a62.08,62.08,0,0,1-32.45-13.78,64.38,64.38,0,0,1-7.39-7.29A62.21,62.21,0,0,1,167,255.15c-.15-1.78-.28-3.58-.28-5.42,0-1.66.13-3.3.27-5a62.06,62.06,0,0,1,15.18-36.17,63.57,63.57,0,0,1,7.41-7.3,62.16,62.16,0,0,1,36.53-14.11l1.43-.09c.63,0,1.27-.09,1.91-.09a59.06,59.06,0,0,1,7.07.45A63.19,63.19,0,0,1,278.71,211h0a62.11,62.11,0,0,1,10.79,20.8q6-4.92,12.39-9.34a77.07,77.07,0,0,0-20.38-29.94Z"/><path class="cls-1" d="M413.5,203.37l-.74-.28c0,.09.06.18.08.28Z"/><path class="cls-1" d="M459.69,268.06q-6.5-7.12-12.91-13c-36.69-33.59-71-37.26-100.89-26.47A109.36,109.36,0,0,0,332,234.79a146.19,146.19,0,0,0-25.13,17.07,206.27,206.27,0,0,0-17.57,16.56A292.41,292.41,0,0,0,260.82,304c-5.29,7.72-9.76,14.9-13.34,21-6.55,11.15-10.1,18.59-10.1,18.59,1.75,2.75,3.5,5.37,5.24,8,3.11,4.66,6.21,9.15,9.3,13.41,14,19.34,27.82,34.56,41.29,46.35q6.59,5.77,13.07,10.45C421.58,505.28,510.06,342,510.06,342,493,310.25,476.14,286.09,459.69,268.06ZM409.45,377.55a68.35,68.35,0,0,1-16,8.76c-23,8.59-52.24,2.46-83.44-46.45,0,0,1.51-3.14,4.31-8a155.93,155.93,0,0,1,19.94-27.27c16.15-17.31,39.18-31.45,65.38-16.05a77.46,77.46,0,0,1,16.9,13.83c8.42,8.91,17.06,21.14,25.82,37.45C442.34,339.86,429.8,362.84,409.45,377.55Z"/><path class="cls-1" d="M401.58,327.83a26.79,26.79,0,1,0,1.55,8.95A27,27,0,0,0,401.58,327.83Z"/></svg>