<svg id="Layer_1" data-name="Layer 1" xmlns="http://www.w3.org/2000/svg" viewBox="0 0 512 512"><defs><style>.cls-1{fill:#9dc53b;}.cls-2{fill:gray;}</style></defs><title>Untitled-2</title><path class="cls-1" d="M176.64,392.82C348.35,662,495.22,391,495.22,391,326.82,77.38,176.64,392.82,176.64,392.82Zm84.82-4.39s72.89-152.21,154.63,0C416.09,388.43,344.81,519.1,261.46,388.43Z"/><circle class="cls-1" cx="338.78" cy="384.83" r="31.51"/><path class="cls-2" d="M126.58,0,17.44,105.45V504.16H241L225.9,490.93c-24.08-21-47.68-49.55-70.16-84.78l-11.31-17.73H105.89v-8.55h49.45l2.11-4.1c3.89-7.6,10.45-19.64,19.59-33.86l7.46-11.62H105.89v-8.56h84.95l2.26-3a336.6,336.6,0,0,1,28.65-33.74l12.51-12.82H105.89v-8.55H245.27l2-1.59c23.14-18,47.11-29.11,71.23-33l-1.21-15H105.89v-8.55H318.42V190.33H90.8v38.73H270.92a200.4,200.4,0,0,0-30.81,19.42H90.8v38.73H199.12q-8.06,9.21-15.83,19.41H90.8v38.74h66.32c-4.52,7.54-8.18,14.15-11,19.41H90.8V403.5h45.36L143,414.26c18.87,29.58,38.59,54.66,58.8,74.81H32.53V114H138.81l-5.76-98.94H381V219a135.72,135.72,0,0,0-46-6.77l.42,15.08a124,124,0,0,1,50.23,9.46l10.4,4.25V0Z"/></svg>