<svg id="Layer_1" data-name="Layer 1" xmlns="http://www.w3.org/2000/svg" viewBox="0 0 40 40"><defs><style>.cls-1{fill:#30b5ab;}.cls-2{fill:gray;}</style></defs><title>Icons_Size_books</title><path class="cls-1" d="M32.55,8.92a4,4,0,0,0-4,4.8L16.29,18.49a4.09,4.09,0,1,0,.38,5l7.83,3.83a4.06,4.06,0,0,0-.15,1.05,4.15,4.15,0,1,0,.89-2.52L17.29,22a3.82,3.82,0,0,0-.16-2.08l12-4.67a4.1,4.1,0,1,0,3.44-6.33Z"/><polygon class="cls-2" points="27.18 34.33 3.97 34.33 3.97 6.77 27.47 6.77 27.47 10.39 26.88 10.39 26.88 7.25 4.55 7.25 4.55 33.84 27.18 33.84 27.18 34.33"/></svg>