<svg id="Layer_1" data-name="Layer 1" xmlns="http://www.w3.org/2000/svg" viewBox="0 0 22 22"><defs><style>.cls-1{fill:#545e69;}</style></defs><title>Icons_Size_books</title><polygon class="cls-1" points="19.38 9.05 19.38 11.19 18.07 11.19 17.17 11.19 4.82 11.19 3.92 11.19 2.62 11.19 2.62 10.13 2.62 9.05 1.65 9.05 1.65 15.15 2.62 15.15 2.62 14.9 2.62 13.38 3.92 13.38 4.82 13.38 17.17 13.38 18.07 13.38 19.38 13.38 19.38 15.15 20.35 15.15 20.35 9.05 19.38 9.05"/><polygon class="cls-1" points="17.17 19.1 4.82 19.1 4.82 14.9 3.92 14.9 3.92 20.05 18.07 20.05 18.07 14.9 17.17 14.9 17.17 19.1"/><polygon class="cls-1" points="4.82 5.74 8.54 2.57 17.17 2.57 17.17 10.13 18.07 10.13 18.07 1.63 8.22 1.63 3.92 5.29 3.92 10.13 4.82 10.13 4.82 5.74"/></svg>