<svg id="Layer_1" data-name="Layer 1" xmlns="http://www.w3.org/2000/svg" xmlns:xlink="http://www.w3.org/1999/xlink" viewBox="0 0 30 28.2"><defs><style>.cls-1{fill:#fff;}.cls-2{fill:url(#linear-gradient);}.cls-3{fill:url(#linear-gradient-2);}.cls-4{fill:url(#linear-gradient-3);}.cls-5{fill:url(#linear-gradient-4);}</style><linearGradient id="linear-gradient" x1="14.48" y1="20.42" x2="10.45" y2="28.82" gradientUnits="userSpaceOnUse"><stop offset="0" stop-color="#3e819e"/><stop offset="1" stop-color="#a7c266"/></linearGradient><linearGradient id="linear-gradient-2" x1="15" y1="13.91" x2="15" y2="30.5" gradientUnits="userSpaceOnUse"><stop offset="0" stop-color="#39a69b"/><stop offset="1" stop-color="#a7c266"/></linearGradient><linearGradient id="linear-gradient-3" x1="0.11" y1="7.42" x2="29.51" y2="7.42" gradientUnits="userSpaceOnUse"><stop offset="0" stop-color="#3e819e"/><stop offset="1" stop-color="#099e58"/></linearGradient><linearGradient id="linear-gradient-4" x1="6.56" y1="33.4" x2="6.56" y2="20.25" xlink:href="#linear-gradient"/></defs><title>Icons_Size_books</title><path class="cls-1" d="M29.51,10.93a1.35,1.35,0,0,0-1-.51H1.53a1.27,1.27,0,0,0-.45.1L15.6,20.26Z"/><path class="cls-2" d="M15.6,20.26,1.08,10.53A1.57,1.57,0,0,0,.11,12v14.6A1.51,1.51,0,0,0,1.53,28.2H28.48a1.51,1.51,0,0,0,1.42-1.59V12a1.67,1.67,0,0,0-.39-1.08Z"/><path class="cls-3" d="M.11,13S18.52,25.79,28.48,28.2c0,0,1.42.2,1.42-2s0-14.15,0-14.53a1.18,1.18,0,0,0-.35-.72L15.74,20.26,1,10.53S0,10.65.11,13Z"/><path class="cls-4" d="M.11,12s.09-1.38,1-1.49S14.81,2.83,14.81,2.83l14.7,8.1s-.26-.51-1.5-.51H2.67C1.53,10.43.46,10.07.11,12Z"/><path class="cls-5" d="M.11,20.67,13,28.2H2.15C.6,28.2.09,27.75.09,26.06.09,25.12.11,20.67.11,20.67Z"/></svg>