<svg id="Layer_1" data-name="Layer 1" xmlns="http://www.w3.org/2000/svg" viewBox="0 0 20 20"><defs><style>.cls-1{fill:#939598;}</style></defs><title>Icones_lat</title><path class="cls-1" d="M7.25,5.54a13.19,13.19,0,0,1,6,.19S14,1.94,10.43,2,7.25,5.54,7.25,5.54Z"/><path class="cls-1" d="M18.12,6.15l0-.06A.59.59,0,0,0,17.24,6L15.15,7.61c-.83-1.23-2.66-1.89-5.49-1.88s-4.16.75-4.85,1.84L2.76,6a.59.59,0,0,0-.83.11l0,.06A.6.6,0,0,0,2,7L4.37,8.84a6,6,0,0,0,.32,2.59H3.25a.6.6,0,0,0-.59.6v.08a.6.6,0,0,0,.59.6H5.18a16.42,16.42,0,0,0,1.08,2l-.06,0-2.45,1.9a.64.64,0,0,0,.78,1L7,15.7c1.15,1.57,2.35,2.7,2.79,2.7.76,0,2-1.14,3.23-2.73l0,0,2.21,1.71a.64.64,0,1,0,.78-1L13.8,14.69l-.1-.05a16.2,16.2,0,0,0,1.06-1.94H17a.6.6,0,0,0,.6-.6V12a.6.6,0,0,0-.6-.6H15.26a9.33,9.33,0,0,0,.3-1.1,4.27,4.27,0,0,0,0-1.45L18,7A.59.59,0,0,0,18.12,6.15ZM10.42,17.39a.26.26,0,0,1-.26.26H9.83a.26.26,0,0,1-.26-.26V7.71a.26.26,0,0,1,.26-.26h.33a.26.26,0,0,1,.26.26Z"/></svg>