<svg id="Layer_1" data-name="Layer 1" xmlns="http://www.w3.org/2000/svg" viewBox="0 0 15 15"><defs><style>.cls-1{fill:#232d36;}</style></defs><title>Icons_Size_books</title><path class="cls-1" d="M13.67,12.86h-12A1.19,1.19,0,0,1,.46,11.67V10.55a1.18,1.18,0,0,1,.19-.64L.22,10l.22-.11H.27L3.92,8.08H5.41a3.55,3.55,0,0,1-.36-.52l-4,1.22a.83.83,0,0,1-1-.55A.81.81,0,0,1,.1,7.6a.82.82,0,0,1,.49-.4L4.56,6a3.75,3.75,0,1,1,6.63,2.1h1.66l.05,0a8.9,8.9,0,0,1,1.92,2l.17.18-.15-.07v.06l0,0a1.22,1.22,0,0,1,0,.22v1.12A1.19,1.19,0,0,1,13.67,12.86ZM1.34,9.79l-.14.09a.8.8,0,0,0-.36.67v1.12a.8.8,0,0,0,.8.8h12a.8.8,0,0,0,.8-.8V10.55a.84.84,0,0,0,0-.21l0-.15h0l-.22-.26L14,9.83a.81.81,0,0,0-.36-.08H1.52Zm7.73-.43h4.47c-.3-.29-.62-.59-.87-.82H10.73a3.72,3.72,0,0,1-1.33.73Zm-6.74,0H7.52a3.76,3.76,0,0,1-1.65-.82H4ZM6,8.16l.06,0a3.35,3.35,0,0,0,4.46,0l.09-.08A3.36,3.36,0,1,0,5,6.09l0,.16L.7,7.56A.44.44,0,1,0,1,8.41L5.24,7.1l.07.14A3.32,3.32,0,0,0,6,8.13Zm7,3.76a.76.76,0,1,1,.76-.76A.76.76,0,0,1,13,11.92Zm0-1.13a.37.37,0,1,0,.37.37A.37.37,0,0,0,13,10.78Zm-2.54,1H2.33v-.82h8.18Zm-7.8-.39h7.41v0H2.72ZM8.3,8.17A2.48,2.48,0,1,1,9,8.06,2.5,2.5,0,0,1,8.3,8.17Zm0-4.57a2.07,2.07,0,0,0-.61.09,2.09,2.09,0,0,0-.37,3.84,2.09,2.09,0,1,0,1-3.94Z"/></svg>