<svg id="Layer_1" data-name="Layer 1" xmlns="http://www.w3.org/2000/svg" xmlns:xlink="http://www.w3.org/1999/xlink" viewBox="0 0 30 28.2"><defs><style>.cls-1{fill:url(#linear-gradient);}.cls-2{fill:url(#linear-gradient-2);}</style><linearGradient id="linear-gradient" x1="7.75" y1="12.8" x2="7.75" y2="36.45" gradientUnits="userSpaceOnUse"><stop offset="0" stop-color="#007f82"/><stop offset="1" stop-color="#2da555"/></linearGradient><linearGradient id="linear-gradient-2" x1="35.29" y1="22.99" x2="16.66" y2="13.67" xlink:href="#linear-gradient"/></defs><title>Icons_Size_books</title><path class="cls-1" d="M15.29,0c-.38.12-.7.14-.95.41L.54,15.13a1.29,1.29,0,0,0,.94,2.17H4.13v9.19A1.71,1.71,0,0,0,5.84,28.2h4.87a1.71,1.71,0,0,0,1.72-1.72V20.72h2.89V0Z"/><path class="cls-2" d="M29.66,15.14,16.23.42A1.29,1.29,0,0,0,15.32,0V20.72h2.82v5.76a1.71,1.71,0,0,0,1.72,1.72H25a1.71,1.71,0,0,0,1.72-1.72V17.29h2a1.29,1.29,0,0,0,1-2.15Z"/></svg>