<svg id="Layer_1" data-name="Layer 1" xmlns="http://www.w3.org/2000/svg" viewBox="0 0 20 16"><defs><style>.cls-1{fill:#574737;}</style></defs><title>Icons_Size_books</title><path class="cls-1" d="M12.87,15H7.29a2.15,2.15,0,0,1-2.23-2V5.31H4.71a.46.46,0,1,1,0-.92H6V12.9A1.23,1.23,0,0,0,7.29,14h5.57a1.23,1.23,0,0,0,1.31-1.12V4.38h1.11a.46.46,0,0,1,0,.92H15.1V12.9A2.15,2.15,0,0,1,12.87,15Z"/><path class="cls-1" d="M11.59,2.36V1.59A.59.59,0,0,0,11,1H9.23a.59.59,0,0,0-.59.59v.77H4.26v.92H15.69V2.36Z"/><path class="cls-1" d="M8.41,4.38a.49.49,0,0,0-.48.5v7.44a.48.48,0,1,0,1,0V4.88A.49.49,0,0,0,8.41,4.38Z"/><path class="cls-1" d="M11.59,4.38a.49.49,0,0,0-.48.5v7.44a.48.48,0,1,0,1,0V4.88A.49.49,0,0,0,11.59,4.38Z"/></svg>