<svg id="Layer_1" data-name="Layer 1" xmlns="http://www.w3.org/2000/svg" viewBox="0 0 20 20"><defs><style>.cls-1{fill:gray;}.cls-2{fill:#fff;}</style></defs><title>Icones_lat</title><path class="cls-1" d="M3,17.15V6.58l0,0,3.71-.12L7,2.53,7,2.48h5.77V7.22l.55,0V1.87H6.81L2.45,6.31V17.76H8a6.63,6.63,0,0,1-.4-.61Z"/><path class="cls-1" d="M5,10.18a.23.23,0,0,0,0,.46H7.53q.13-.23.28-.46Z"/><path class="cls-1" d="M5,11.24a.23.23,0,0,0,0,.46H7.06c.05-.15.11-.31.17-.46Z"/><path class="cls-1" d="M5,12.3a.23.23,0,0,0,0,.46H6.8c0-.15.06-.31.09-.46Z"/><path class="cls-1" d="M5,13.37a.23.23,0,0,0,0,.46H6.71c0-.15,0-.31,0-.46Z"/><path class="cls-1" d="M5,14.43a.23.23,0,0,0,0,.46H6.8q0-.23-.06-.46Z"/><path class="cls-2" d="M16,16.24a1.49,1.49,0,0,0,.35-.19,2.81,2.81,0,0,0,.72-.82,3.81,3.81,0,0,0-.56-.82,1.69,1.69,0,0,0-.37-.3,1.1,1.1,0,0,0-1.42.35,3.4,3.4,0,0,0-.43.59l-.09.17C14.9,16.3,15.54,16.43,16,16.24Zm-.38-1.67a.59.59,0,1,1-.59.59A.58.58,0,0,1,15.67,14.57Z"/><path class="cls-1" d="M11.17,13.6a.24.24,0,0,0-.06-.15,1.36,1.36,0,0,0,0,.22A.25.25,0,0,0,11.17,13.6Z"/><path class="cls-1" d="M16.68,12.26h-.2a3.24,3.24,0,0,1,.93.53A.84.84,0,0,0,16.68,12.26Z"/><path class="cls-1" d="M9.6,17.17a.87.87,0,0,0,.38,0h-.5Z"/><path class="cls-1" d="M16.08,11.29l.16-.16a1,1,0,0,0-.16-1.36,1.25,1.25,0,0,0-.69-.36.77.77,0,0,0-.67.2l-.14.14a4.06,4.06,0,0,0-1-.42V9.11a.76.76,0,0,0-.29-.57,1.17,1.17,0,0,0-.55-.25l-.25,0a1,1,0,0,0-1.08.85V9.3a4.06,4.06,0,0,0-1,.39l-.15-.15a.77.77,0,0,0-.67-.2A1.25,1.25,0,0,0,9,9.7a1.3,1.3,0,0,0-.31.48,1,1,0,0,0-.06.46.72.72,0,0,0,.2.43L9,11.2l0,0a4.11,4.11,0,0,0-.39.92H8.32a.71.71,0,0,0-.42.14,1,1,0,0,0-.34.46,1.31,1.31,0,0,0-.09.48s0,.08,0,.13a1.27,1.27,0,0,0,.12.46,1.08,1.08,0,0,0,.1.16.77.77,0,0,0,.62.33h.21l0,.11a4.2,4.2,0,0,0,.35.84l-.17.17a.75.75,0,0,0-.21.53,1.2,1.2,0,0,0,.37.83,1.28,1.28,0,0,0,.57.34H10a.7.7,0,0,0,.29-.17l.16-.16a4.07,4.07,0,0,0,.75.34l.19.06v.26a.69.69,0,0,0,.07.29,1.1,1.1,0,0,0,1,.56,1.25,1.25,0,0,0,.75-.23.77.77,0,0,0,.33-.62h0l-.32-.29v.29a.46.46,0,0,1-.2.36.93.93,0,0,1-.55.17.89.89,0,0,1-.63-.24.42.42,0,0,1-.13-.29V17l-.12,0a3.75,3.75,0,0,1-1.08-.46l-.11-.07-.34.34a.46.46,0,0,1-.4.11.92.92,0,0,1-.51-.27.89.89,0,0,1-.28-.6A.43.43,0,0,1,9,15.68l.35-.35-.07-.11a4.06,4.06,0,0,1-.36-.79c0-.1-.06-.2-.09-.31l0-.12H8.32A.44.44,0,0,1,8,13.82l0,0a.88.88,0,0,1-.16-.43,1.07,1.07,0,0,1,0-.13,1,1,0,0,1,.13-.48.49.49,0,0,1,.4-.28h.48l0-.12,0-.06a3.94,3.94,0,0,1,.45-1v0l.05-.09L9,10.84a.39.39,0,0,1-.1-.2A.71.71,0,0,1,9,10.18a1,1,0,0,1,.18-.25.93.93,0,0,1,.51-.27.46.46,0,0,1,.4.11l.33.33.11-.06a3.74,3.74,0,0,1,1.11-.45l.13,0V9.11c0-.29.35-.53.76-.53a1,1,0,0,1,.25,0c.29.07.51.27.51.5v.46h0l.09,0a3.74,3.74,0,0,1,1.1.48l.11.07.32-.32a.46.46,0,0,1,.4-.11,1,1,0,0,1,.78.78.46.46,0,0,1-.11.4l-.34.34.06.11a3.75,3.75,0,0,1,.36.81l.36.1A4.06,4.06,0,0,0,16.08,11.29Z"/><path class="cls-1" d="M14.42,11.58l-.19-.19a2.56,2.56,0,0,0-1.44-.66h-.41a2.56,2.56,0,0,0-1.45.53l-.15.12-.19.19-.12.15a2.61,2.61,0,0,0-.54,1.44v0s0,.06,0,.09,0,.07,0,.1h0v0a2.54,2.54,0,0,0,.06.42,2.53,2.53,0,0,0,.52,1.06l.07.09.19.19a2.56,2.56,0,0,0,1.29.62L12,15.6l-.1-.15,0,0a2.21,2.21,0,0,1-.88-.48l0,0-.12-.12a2.22,2.22,0,0,1-.25-.33,2.28,2.28,0,0,1-.33-1v0s0-.05,0-.08,0,0,0-.07v0a2.27,2.27,0,0,1,.57-1.39l.07-.07.1-.1.17-.14A2.24,2.24,0,0,1,12.4,11h.24l.16,0a2.25,2.25,0,0,1,1.22.58l.16.17a2.23,2.23,0,0,1,.37.58l.3-.12A2.55,2.55,0,0,0,14.42,11.58Z"/><path class="cls-1" d="M13.79,12.22a1.67,1.67,0,0,0-.19-.2,1.7,1.7,0,0,0-.27-.2,1.66,1.66,0,0,0-.55-.21l-.13,0h-.28a1.67,1.67,0,0,0-1,.38,1.7,1.7,0,0,0-.2.2l-.13.17a1.66,1.66,0,0,0-.2.43,1.69,1.69,0,0,0-.07.37s0,.09,0,.13,0,.07,0,.1v0a1.69,1.69,0,0,0,.41,1,1.72,1.72,0,0,0,.2.2,1.67,1.67,0,0,0,.74.35l.18-.3a1.35,1.35,0,0,1-.71-.3l-.16-.16a1.39,1.39,0,0,1-.32-.72v-.06s0-.08,0-.12,0-.07,0-.11a1.35,1.35,0,0,1,.33-.79l.16-.16a1.35,1.35,0,0,1,.8-.31h.23l.17,0a1.35,1.35,0,0,1,.55.28l0,0,.15.17h0a1.35,1.35,0,0,1,.24.45l.27-.2A1.67,1.67,0,0,0,13.79,12.22Z"/><path class="cls-1" d="M16.48,12.26h0Z"/><path class="cls-1" d="M17.49,13.66l-.28-.28a2.06,2.06,0,0,0-2.2-.58l-.3.13a3.19,3.19,0,0,0-.55.37,4.5,4.5,0,0,0-.38.36,6,6,0,0,0-.44.52l-.19.26c-.12.17-.21.32-.29.46l-.07.12c-.1.17-.15.28-.15.28l.11.17,0,.05.17.24c.13.17.25.33.37.47a5.36,5.36,0,0,0,.53.54l.28.23c2.51,1.82,4.44-1.74,4.44-1.74A8,8,0,0,0,17.49,13.66Zm-1.09,2.39a1.49,1.49,0,0,1-.35.19c-.5.19-1.14.05-1.82-1l.09-.17a3.4,3.4,0,0,1,.43-.59,1.1,1.1,0,0,1,1.42-.35,1.69,1.69,0,0,1,.37.3,3.81,3.81,0,0,1,.56.82A2.81,2.81,0,0,1,16.39,16.05Z"/><path class="cls-1" d="M15.67,15.75a.59.59,0,1,0-.59-.59A.58.58,0,0,0,15.67,15.75Z"/></svg>