<svg id="Layer_1" data-name="Layer 1" xmlns="http://www.w3.org/2000/svg" viewBox="0 0 15 15"><defs><style>.cls-1{fill:#232d36;}</style></defs><title>Icons_Size_books</title><path class="cls-1" d="M14,1.85H.95a.83.83,0,0,0-.82.83v8.09a.82.82,0,0,0,.82.82H14a.82.82,0,0,0,.82-.82V2.68A.83.83,0,0,0,14,1.85Zm0,9.39H.95a.48.48,0,0,1-.48-.48V2.68A.48.48,0,0,1,.95,2.2H14a.48.48,0,0,1,.48.48v8.09A.48.48,0,0,1,14,11.25Z"/><polygon class="cls-1" points="3.23 12.51 2.53 12.51 2.53 11.6 2.18 11.6 2.18 12.85 3.57 12.85 3.57 11.6 3.23 11.6 3.23 12.51"/><polygon class="cls-1" points="13 12.51 12.3 12.51 12.3 11.6 11.96 11.6 11.96 12.85 13.35 12.85 13.35 11.6 13 11.6 13 12.51"/><path class="cls-1" d="M10.4,5.44H9a.48.48,0,0,0-.48.48v.34A.48.48,0,0,0,9,6.73H10.4a.48.48,0,0,0,.48-.48V5.92A.48.48,0,0,0,10.4,5.44Zm-1.55.48A.18.18,0,0,1,9,5.74H10.4a.18.18,0,0,1,.18.18v.34a.18.18,0,0,1-.18.18H9a.18.18,0,0,1-.18-.18Z"/><path class="cls-1" d="M13,5.44H11.58a.48.48,0,0,0-.48.48v.34a.48.48,0,0,0,.48.48H13a.48.48,0,0,0,.48-.48V5.92A.48.48,0,0,0,13,5.44Zm-1.55.48a.18.18,0,0,1,.18-.18H13a.18.18,0,0,1,.18.18v.34a.18.18,0,0,1-.18.18H11.58a.18.18,0,0,1-.18-.18Z"/><path class="cls-1" d="M10.4,6.91H9a.48.48,0,0,0-.48.48v.34A.48.48,0,0,0,9,8.21H10.4a.48.48,0,0,0,.48-.48V7.39A.48.48,0,0,0,10.4,6.91Zm-1.55.48A.18.18,0,0,1,9,7.21H10.4a.18.18,0,0,1,.18.18v.34a.18.18,0,0,1-.18.18H9a.18.18,0,0,1-.18-.18Z"/><path class="cls-1" d="M13,6.91H11.58a.48.48,0,0,0-.48.48v.34a.48.48,0,0,0,.48.48H13a.48.48,0,0,0,.48-.48V7.39A.48.48,0,0,0,13,6.91Zm-1.55.48a.18.18,0,0,1,.18-.18H13a.18.18,0,0,1,.18.18v.34a.18.18,0,0,1-.18.18H11.58a.18.18,0,0,1-.18-.18Z"/><path class="cls-1" d="M4.29,4.49A2.5,2.5,0,1,0,6.79,7,2.5,2.5,0,0,0,4.29,4.49Zm.15,4.67c-.05,0-.09,0-.15,0s-.09,0-.15,0Zm1.29-.53.2-.2Zm.21-.21L5.48,8l-.22.21.45.45a2.16,2.16,0,0,1-1.27.53V8.52h-.3v.63a2.16,2.16,0,0,1-1.27-.53l.45-.45L3.1,8l-.45.45a2.16,2.16,0,0,1-.53-1.27h.63v-.3H2.13a2.16,2.16,0,0,1,.53-1.27L3.1,6l.21-.21-.45-.45a2.16,2.16,0,0,1,1.27-.53v.63h.3V4.82a2.16,2.16,0,0,1,1.27.53l-.45.45L5.48,6l.45-.45a2.16,2.16,0,0,1,.53,1.27H5.82V7A1.53,1.53,0,1,0,4.29,8.52,1.53,1.53,0,0,0,5.82,7v.15h.63A2.16,2.16,0,0,1,5.93,8.41Zm-3.07.21-.2-.2ZM2.1,7s0-.09,0-.14v.28S2.1,7,2.1,7ZM4.15,4.82c.05,0,.09,0,.15,0s.09,0,.15,0Zm-1.29.53-.2.2Zm2.87,0,.2.2ZM5.52,7A1.23,1.23,0,1,1,4.29,5.76,1.23,1.23,0,0,1,5.52,7Zm.94-.15c0,.05,0,.09,0,.15s0,.09,0,.15Z"/></svg>