<svg id="Layer_1" data-name="Layer 1" xmlns="http://www.w3.org/2000/svg" xmlns:xlink="http://www.w3.org/1999/xlink" viewBox="0 0 20 20"><defs><style>.cls-1{fill:url(#linear-gradient);}.cls-2{fill:url(#linear-gradient-2);}</style><linearGradient id="linear-gradient" x1="9.05" y1="15.19" x2="10.6" y2="-0.59" gradientUnits="userSpaceOnUse"><stop offset="0" stop-color="#b5e3f0"/><stop offset="1" stop-color="#396384"/></linearGradient><linearGradient id="linear-gradient-2" y1="9.34" x2="20" y2="9.34" gradientUnits="userSpaceOnUse"><stop offset="0" stop-color="#2d9ab6"/><stop offset="1" stop-color="#396384"/></linearGradient></defs><title>Icones_lat</title><path class="cls-1" d="M19.74,3.68A.91.91,0,0,0,19,3.34H1a.85.85,0,0,0-.3.07L10.4,9.95Z"/><path class="cls-2" d="M10.4,9.95.65,3.41a1.05,1.05,0,0,0-.65,1v9.8a1,1,0,0,0,1,1.07H19a1,1,0,0,0,1-1.07V4.41a1.12,1.12,0,0,0-.26-.73Z"/></svg>