<svg id="Layer_1" data-name="Layer 1" xmlns="http://www.w3.org/2000/svg" viewBox="0 0 15 13"><defs><style>.cls-1{fill:#1e1e1c;}</style></defs><title>Icons_Size_books</title><path class="cls-1" d="M11.82,7.09a.36.36,0,0,0-.39.33V11.9H9.86V9.22a.36.36,0,0,0-.39-.33H5.74a.36.36,0,0,0-.39.33V11.9H3.56V7.42a.36.36,0,0,0-.39-.33.36.36,0,0,0-.39.33v4.81a.36.36,0,0,0,.39.33H5.74a.36.36,0,0,0,.39-.33V9.56h3v2.68a.36.36,0,0,0,.39.33h2.34a.36.36,0,0,0,.39-.33V7.42A.36.36,0,0,0,11.82,7.09Z"/><path class="cls-1" d="M13.9,7.27,12.13,5.32l-1.84-2L7.8.55a.42.42,0,0,0-.61,0L4.71,3.29l-1.84,2L1.1,7.27a.3.3,0,0,0,.06.47.42.42,0,0,0,.24.07.41.41,0,0,0,.3-.13L3.48,5.73l1.84-2L7.5,1.3,9.68,3.71l1.84,2,1.77,1.95a.41.41,0,0,0,.3.13.42.42,0,0,0,.24-.07A.3.3,0,0,0,13.9,7.27Z"/></svg>