<svg id="Layer_1" data-name="Layer 1" xmlns="http://www.w3.org/2000/svg" viewBox="0 0 15 15"><defs><style>.cls-1{fill:#232d36;}</style></defs><title>Icons_Size_books</title><path class="cls-1" d="M7.54,13.6A1.22,1.22,0,0,1,6.2,12.54v-.29a4.94,4.94,0,0,1-1.1-.47L4.91,12a1.22,1.22,0,0,1-1.69-.2A1.22,1.22,0,0,1,3,10.07l.2-.19a5,5,0,0,1-.46-1.12H2.52A1.22,1.22,0,0,1,1.47,7.42,1.22,1.22,0,0,1,2.52,6.08h.25a5,5,0,0,1,.48-1.13L3.1,4.79A1.22,1.22,0,0,1,3.3,3.1,1.22,1.22,0,0,1,5,2.9l.17.17a5,5,0,0,1,1.15-.46V2.4A1.22,1.22,0,0,1,7.65,1.35,1.22,1.22,0,0,1,9,2.4v.24a5,5,0,0,1,1.13.49L10.27,3a1.22,1.22,0,0,1,1.69.2,1.23,1.23,0,0,1,.2,1.69L12,5.06a5,5,0,0,1,.45,1.13h.24a1.22,1.22,0,0,1,1.06,1.34,1.22,1.22,0,0,1-1.06,1.34h-.28A5,5,0,0,1,11.9,10l.18.18a1.23,1.23,0,0,1-.2,1.69,1.23,1.23,0,0,1-1.69.2L10,11.83a4.89,4.89,0,0,1-1.11.44v.27A1.22,1.22,0,0,1,7.54,13.6ZM5,11.21l.15.09a4.54,4.54,0,0,0,1.29.55l.17,0v.64c0,.33.41.61.89.61s.89-.28.89-.61v-.62l.17,0a4.47,4.47,0,0,0,1.3-.52l.15-.09.45.45c.24.24.72.14,1.06-.2s.43-.83.2-1.06L11.33,10l.1-.15A4.52,4.52,0,0,0,12,8.58l0-.17h.62c.33,0,.61-.41.61-.89s-.28-.89-.61-.89h-.59l0-.18a4.57,4.57,0,0,0-.52-1.33L11.42,5l.43-.43c.24-.23.14-.72-.2-1.06s-.83-.43-1.06-.2l-.4.4L10,3.61A4.55,4.55,0,0,0,8.71,3L8.54,3V2.4c0-.33-.41-.61-.89-.61s-.89.28-.89.61V3L6.58,3a4.54,4.54,0,0,0-1.34.54l-.15.09-.41-.41C4.44,3,4,3.08,3.61,3.42s-.43.83-.2,1.06l.4.4L3.72,5a4.5,4.5,0,0,0-.56,1.32l0,.17h-.6c-.33,0-.61.41-.61.89s.28.89.61.89h.59l0,.17A4.47,4.47,0,0,0,3.69,9.8l.09.15-.44.44c-.24.23-.14.72.2,1.06s.83.43,1.06.2Zm2.55-.64H7.44a3.13,3.13,0,0,1-1.95-.8l-.23-.23a3.14,3.14,0,0,1-.8-1.92c0-.08,0-.13,0-.17s0-.09,0-.13a3.17,3.17,0,0,1,.8-2l.23-.23a3.15,3.15,0,0,1,2-.8,1.68,1.68,0,0,1,.29,0,3.17,3.17,0,0,1,2,.83,2.7,2.7,0,0,1,.23.24,3.14,3.14,0,0,1,.77,1.94v.11c0,.05,0,.1,0,.15v.06a3.14,3.14,0,0,1-.82,1.91l-.24.23a3.15,3.15,0,0,1-1.92.77v-.22l0,.22Zm0-5.82H7.52a2.73,2.73,0,0,0-1.73.69l-.2.2a2.7,2.7,0,0,0-.69,1.66c0,.07,0,.1,0,.13s0,.07,0,.1a2.7,2.7,0,0,0,.69,1.69l.2.2a2.65,2.65,0,0,0,1.64.68h.28a2.66,2.66,0,0,0,1.64-.66l.2-.2a2.68,2.68,0,0,0,.7-1.63V7.56s0-.08,0-.12v-.1a2.65,2.65,0,0,0-.66-1.66l-.2-.2a2.69,2.69,0,0,0-1.66-.71Z"/><path class="cls-1" d="M7.56,9.52H7.4A2.05,2.05,0,0,1,6.24,9,2.33,2.33,0,0,1,6,8.8a2.08,2.08,0,0,1-.5-1.18c0-.06,0-.12,0-.18s0-.11,0-.16A2,2,0,0,1,6,6.08a2.1,2.1,0,0,1,.24-.24,2.06,2.06,0,0,1,1.21-.47h.34A2.05,2.05,0,0,1,9,5.91a2.12,2.12,0,0,1,.23.25h0a2.05,2.05,0,0,1,.44,1.17c0,.06,0,.09,0,.12a1.94,1.94,0,0,1,0,.23A2.06,2.06,0,0,1,9.13,8.8,2.13,2.13,0,0,1,8.88,9a2.07,2.07,0,0,1-1.14.47Zm0-3.7H7.47a1.61,1.61,0,0,0-.95.37,1.56,1.56,0,0,0-.19.19,1.59,1.59,0,0,0-.4.94s0,.09,0,.13,0,.1,0,.15a1.62,1.62,0,0,0,.39.92,1.55,1.55,0,0,0,.19.19,1.62,1.62,0,0,0,.91.37H7.7a1.61,1.61,0,0,0,.9-.37,1.57,1.57,0,0,0,.19-.19,1.62,1.62,0,0,0,.39-.88c0-.06,0-.12,0-.18V7.35a1.6,1.6,0,0,0-.34-.91h0a1.67,1.67,0,0,0-.19-.2,1.61,1.61,0,0,0-.91-.41Z"/></svg>