<svg id="Layer_1" data-name="Layer 1" xmlns="http://www.w3.org/2000/svg" viewBox="0 0 20 16"><defs><style>.cls-1{fill:#574737;}.cls-2{fill:#808181;}.cls-3{fill:#fff;}</style></defs><title>Icons_Size_books</title><path class="cls-1" d="M12.79,8.66l-.05-.05h0L5.87,1.35,3.07,4l6.88,7.25h0l0,0,0,0,3.54,1.08h.07a.07.07,0,0,0,0-.07l-.84-3.61ZM13,11.75,10.66,11l1.86-1.73Z"/><path class="cls-2" d="M3.37,1.53A2,2,0,0,0,3,3.85L5.71,1.27A2,2,0,0,0,3.37,1.53Z"/><path class="cls-3" d="M12.58,9.07a.08.08,0,0,0-.08,0l-2,1.9a.09.09,0,0,0,0,.14l2.61.8a.09.09,0,0,0,.08,0h0a.08.08,0,0,0,0-.08l-.58-2.7A.08.08,0,0,0,12.58,9.07Z"/><polygon class="cls-1" points="8.1 1.82 9.04 2.93 16.13 2.93 16.13 13.84 5.21 13.84 5.21 8.17 4.1 6.87 4.1 14.95 17.24 14.95 17.24 1.82 8.1 1.82"/></svg>