<svg id="Layer_1" data-name="Layer 1" xmlns="http://www.w3.org/2000/svg" viewBox="0 0 15 13"><defs><style>.cls-1{fill:#221510;}</style></defs><title>Icons_Size_books</title><path class="cls-1" d="M13.53,6.5a5.91,5.91,0,0,0-.18-1.3h0l0-.19,0-.12h0a6,6,0,0,0-1.53-2.63l0,0-.12-.11L11.53,2h0A6,6,0,0,0,9.44.83h0l0,0h0L8.9.64l0,0A5.72,5.72,0,0,0,7.5.48,5.55,5.55,0,0,0,6.29.64l0,0L5.84.74H5.78A6,6,0,0,0,3.49,2h0l-.11.1-.12.11,0,0A6,6,0,0,0,1.73,4.89h0l0,.12,0,.19h0a5.92,5.92,0,0,0-.18,1.3,5.87,5.87,0,0,0,.26,1.61h0l.06.2,0,.11h0a6,6,0,0,0,1.6,2.46l0,0,.13.12.1.09h0a6,6,0,0,0,1.88,1.07h0l0,0,.44.15,0,0a5.76,5.76,0,0,0,1.49.23,5.88,5.88,0,0,0,1.68-.28l0,.05.45-.17,0,0h0a6,6,0,0,0,1.69-1h0l.1-.09.13-.12,0,0a6,6,0,0,0,1.6-2.46h0l0-.11.06-.2h0A5.87,5.87,0,0,0,13.53,6.5Zm-.31,0A5.55,5.55,0,0,1,13,8.11h-2s0-.07,0-.11A12.93,12.93,0,0,0,11,6.62,13.06,13.06,0,0,0,11,5.21H13A5.45,5.45,0,0,1,13.22,6.5ZM9,9.48a5.72,5.72,0,0,0-1.06-.15c-.12,0-.24,0-.36,0H7.5a5.69,5.69,0,0,0-1.36.17L6,9.49a6.21,6.21,0,0,0-1.14.41,11,11,0,0,1-.31-1.48h6A11.12,11.12,0,0,1,10.25,10a6.13,6.13,0,0,0-.76-.3C9.32,9.62,9.15,9.53,9,9.48ZM6.15,3.85a5.71,5.71,0,0,0,.7.09A5.67,5.67,0,0,0,7.5,4h.05A5.74,5.74,0,0,0,9,3.83c.13,0,.25-.1.37-.14a6.07,6.07,0,0,0,.92-.36,11.06,11.06,0,0,1,.32,1.57h-6a11.25,11.25,0,0,1,.31-1.5,6.06,6.06,0,0,0,.63.23A6.2,6.2,0,0,0,6.15,3.85ZM4.52,5.21h6.11a13.06,13.06,0,0,1,.09,1.41,12.94,12.94,0,0,1-.1,1.49H4.54a12.94,12.94,0,0,1-.1-1.49A13.2,13.2,0,0,1,4.52,5.21Zm6.39-.31h0a11.36,11.36,0,0,0-.36-1.73h0a6,6,0,0,0,1-.69A5.68,5.68,0,0,1,13,4.89Zm.36-2.65a5.7,5.7,0,0,1-.82.6c0-.07-.06-.12-.09-.19a7.23,7.23,0,0,0-.52-1.16c0-.06-.06-.15-.1-.22A5.61,5.61,0,0,1,11.28,2.24Zm-2-1.15A5.21,5.21,0,0,1,9.77,2c0,.07.06.15.09.23a8,8,0,0,1,.32.82,5.92,5.92,0,0,1-.83.34c-.14,0-.27.13-.41.16a5.41,5.41,0,0,1-2.71,0c-.15,0-.3-.12-.45-.17A5.89,5.89,0,0,1,5,3.07a8,8,0,0,1,.35-.9c0-.07.06-.16.09-.22A5.13,5.13,0,0,1,6,1,5.48,5.48,0,0,1,7.5.79,5.59,5.59,0,0,1,9.23,1.09Zm-4,.57c0,.08-.09.15-.13.23a8.09,8.09,0,0,0-.41,1,5.74,5.74,0,0,1-1-.67,5.65,5.65,0,0,1,1.75-1C5.38,1.33,5.3,1.5,5.21,1.66Zm-1.74.81a6.11,6.11,0,0,0,1.1.77h0a11.5,11.5,0,0,0-.34,1.66H2A5.68,5.68,0,0,1,3.48,2.46Zm-1.69,4A5.46,5.46,0,0,1,2,5.21H4.2a13.28,13.28,0,0,0-.08,1.41A12.88,12.88,0,0,0,4.21,8s0,.07,0,.11H2A5.55,5.55,0,0,1,1.78,6.5ZM4.25,8.43h0a11.4,11.4,0,0,0,.34,1.63h0a6.06,6.06,0,0,0-.94.64A5.69,5.69,0,0,1,2.15,8.43Zm-.34,2.49a5.79,5.79,0,0,1,.78-.54c0,.07.05.12.08.18a7.65,7.65,0,0,0,.42,1c0,.06.05.14.08.19A5.69,5.69,0,0,1,3.91,10.91Zm1.85,1a5.72,5.72,0,0,1-.44-.79c0-.06,0-.14-.08-.2-.09-.22-.18-.46-.26-.71a5.89,5.89,0,0,1,.8-.31c.15-.05.3-.13.45-.17A5.45,5.45,0,0,1,7.56,9.6h0a5.43,5.43,0,0,1,1.34.19c.14,0,.26.11.4.16a5.9,5.9,0,0,1,.83.35l0,.07a6.88,6.88,0,0,1-.67,1.45l0,.05a5.7,5.7,0,0,1-1.93.36A5.61,5.61,0,0,1,5.76,11.92ZM10,11.48a7.49,7.49,0,0,0,.36-.83c0-.07.06-.13.09-.2a5.8,5.8,0,0,1,.65.46,5.73,5.73,0,0,1-1.17.75C9.95,11.61,10,11.54,10,11.48Zm1.35-.79a6,6,0,0,0-.8-.56h0a11.42,11.42,0,0,0,.36-1.71h2A5.69,5.69,0,0,1,11.35,10.7Z"/></svg>