<svg id="Layer_1" data-name="Layer 1" xmlns="http://www.w3.org/2000/svg" viewBox="0 0 40 40"><defs><style>.cls-1{fill:none;}.cls-2{fill:#30b5ab;}.cls-3{fill:gray;}</style></defs><title>Icons_Size_books</title><path class="cls-1" d="M21.54,12.18l.87,3.09h9.44a2.61,2.61,0,0,1,2.69,2.52V29h2.77a.83.83,0,0,0,.86-.8v-14a.83.83,0,0,0-.86-.8H26.46L25.22,9a.84.84,0,0,0-.83-.6H13.32a.83.83,0,0,0-.85.8v1.09h6.47A2.67,2.67,0,0,1,21.54,12.18Z"/><path class="cls-2" d="M37.31,11.67H27.87L27,8.57A2.67,2.67,0,0,0,24.4,6.7H13.32a2.61,2.61,0,0,0-2.69,2.52v1.09h1.83V9.22a.83.83,0,0,1,.85-.8H24.4a.84.84,0,0,1,.83.6l1.23,4.37H37.31a.83.83,0,0,1,.86.8v14a.83.83,0,0,1-.86.8H34.54v1.72h2.77A2.61,2.61,0,0,0,40,28.2v-14A2.61,2.61,0,0,0,37.31,11.67Z"/><path class="cls-2" d="M31.85,15.28H22.41l-.87-3.09a2.67,2.67,0,0,0-2.6-1.88H7.86a2.61,2.61,0,0,0-2.69,2.52v5.88H7V12.83a.83.83,0,0,1,.85-.8H18.94a.84.84,0,0,1,.83.6L21,17H31.85a.83.83,0,0,1,.86.8v14a.83.83,0,0,1-.86.8H17.06v1.72H31.85a2.61,2.61,0,0,0,2.69-2.52v-14A2.61,2.61,0,0,0,31.85,15.28Z"/><polygon class="cls-3" points="12.9 26.68 7.65 26.68 7.65 21.43 5.25 21.43 5.25 26.68 0.01 26.68 0.01 29.08 5.25 29.08 5.25 34.33 7.65 34.33 7.65 29.08 12.9 29.08 12.9 26.68"/></svg>