<svg id="Layer_1" data-name="Layer 1" xmlns="http://www.w3.org/2000/svg" viewBox="0 0 15 13"><defs><style>.cls-1{fill:none;}.cls-2{fill:#221510;}</style></defs><title>Icons_Size_books</title><path class="cls-1" d="M13.88,3H1.12a.71.71,0,0,0-.71.71v7.77a.71.71,0,0,0,.71.71H13.88a.71.71,0,0,0,.71-.71V3.71A.71.71,0,0,0,13.88,3Z"/><path class="cls-2" d="M13.88,2.66H1.12A1.05,1.05,0,0,0,.07,3.71v7.77a1.05,1.05,0,0,0,1.05,1.05H13.88a1.05,1.05,0,0,0,1.05-1.05V3.71A1.05,1.05,0,0,0,13.88,2.66Zm.71,8.82a.71.71,0,0,1-.71.71H1.12a.71.71,0,0,1-.71-.71V3.71A.71.71,0,0,1,1.12,3H13.88a.71.71,0,0,1,.71.71Z"/><path class="cls-2" d="M12.63,5.74l-.35.16-3,1.34-.38.17-.38.17L7.5,8l-.92-.45L6.24,7.4l-.35-.17L3.14,5.89l-.31-.15L2.68,6l3,1.47V9.18H9.31V7.59L12.77,6ZM9,8.85H6V7.68L7.5,8.4,9,7.74Z"/><polygon class="cls-2" points="5.01 0.47 5.01 2.39 5.18 2.39 5.35 2.39 5.35 0.81 9.65 0.81 9.65 2.39 9.82 2.39 9.99 2.39 9.99 0.47 5.01 0.47"/></svg>