<svg id="Layer_1" data-name="Layer 1" xmlns="http://www.w3.org/2000/svg" viewBox="0 0 512 512"><defs><style>.cls-1{fill:none;}.cls-2{fill:#606161;}.cls-3{fill:#9dc53b;}</style></defs><title>Untitled-2</title><path class="cls-1" d="M210.51,159.43c95.24,0,172.72-32.32,172.72-72A33.81,33.81,0,0,0,378,69.76a60.44,60.44,0,0,0-14-15.35c-28.74-23.18-86.73-39.07-153.49-39.07S85.76,31.24,57,54.42A60.44,60.44,0,0,0,43,69.76a33.81,33.81,0,0,0-5.25,17.62C37.79,127.11,115.28,159.43,210.51,159.43Z"/><path class="cls-2" d="M37.79,400.22V325.35c39.93,23,86.8,41.8,138.3,47.17-.38-4.58-.62-9.2-.62-13.87q0-4.27.22-8.48c-51.47-6-98.49-26.73-137.9-51.18V224.13c45.81,26.44,100.75,47.24,161.35,48.64A169,169,0,0,1,215,250.54c-2.5.09-5,.21-7.52.23h-1.82c-63.2,0-120.9-23.89-167.84-53v-70c32.57,27.91,97.75,51.12,172.72,51.12s140.15-23.21,172.72-51.12v55.18c-4.25,3.4-8.53,6.62-12.82,9.77a166.6,166.6,0,0,1,34.94,9.64V84.21c0,.8,0,1.45-.06,2.15-.3-11.29-5.38-22.06-14.39-31.94C361.84,22.53,292,0,210.51,0S59.19,22.53,30.11,54.42c-8.66,9.5-13.67,19.83-14.32,30.64-.08-1.17-.13-2.44-.13-3.92V412.94q10.67,7,22.13,13.63c47.43,27.38,104.64,48.77,167.79,48.77h1.9c4.93,0,9.84-.25,14.74-.55a169.25,169.25,0,0,1-17.56-21.6C141.85,452.95,84.5,429.18,37.79,400.22ZM43,69.76A60.44,60.44,0,0,1,57,54.42c28.74-23.18,86.73-39.07,153.49-39.07S335.27,31.24,364,54.42a60.44,60.44,0,0,1,14,15.35,33.81,33.81,0,0,1,5.25,17.62c0,39.72-77.48,72-172.72,72s-172.72-32.32-172.72-72A33.81,33.81,0,0,1,43,69.76Z"/><path class="cls-3" d="M343.58,512C259,512,190.23,443.2,190.23,358.65S259,205.3,343.58,205.3s153.35,68.8,153.35,153.35S428.14,512,343.58,512Zm0-277.2A123.85,123.85,0,1,0,467.43,358.65,124,124,0,0,0,343.58,234.8Z"/><path class="cls-2" d="M405.36,318.92H363.11V433.85H334.69V318.92H293v-23H405.36Z"/></svg>