<svg id="Layer_1" data-name="Layer 1" xmlns="http://www.w3.org/2000/svg" xmlns:xlink="http://www.w3.org/1999/xlink" viewBox="0 0 30 28.2"><defs><style>.cls-1{fill:#556f82;}.cls-2{fill:url(#linear-gradient);}.cls-3{fill:#bcd3cd;}</style><linearGradient id="linear-gradient" x1="15.11" y1="3.42" x2="15.52" y2="28" gradientUnits="userSpaceOnUse"><stop offset="0" stop-color="#90a84a"/><stop offset="1" stop-color="#4e8484"/></linearGradient></defs><title>Icons_Size_books</title><path class="cls-1" d="M20.84,27.9a.93.93,0,0,0,1.32,0L25,25.26a.93.93,0,0,0,0-1.32l-6.38-6.77-4.45,3.7Z"/><path class="cls-1" d="M10.92,8.95A5.5,5.5,0,0,0,4.79,2.08L8.44,6l-.18.17-4.21,4-.18.17L.23,6.38a5.5,5.5,0,0,0,6.48,6.53l2.74,2.91,4.45-3.7Z"/><path class="cls-2" d="M29.1,3.41l-7.22-.1L20.31,7.87l-5.83,4.85L10,16.43.9,24a.56.56,0,0,0-.07.79L3.48,28a.56.56,0,0,0,.79.07l9.38-7.8,4.45-3.7,5.6-4.66,4.74-.71,1.45-6.84Z"/><path class="cls-3" d="M22.13,7.33a8.24,8.24,0,0,1,6.42-3S23.28,3.39,22.13,7.33Z"/></svg>