<svg id="Layer_1" data-name="Layer 1" xmlns="http://www.w3.org/2000/svg" viewBox="0 0 15 15"><defs><style>.cls-1{fill:#263d4a;}.cls-2{fill:#657c87;}</style></defs><title>Icons_Size_books</title><path class="cls-1" d="M14,6.17h-.52a6,6,0,0,0-.7-1.78L13.14,4a1.28,1.28,0,0,0-.25-1.76A1.28,1.28,0,0,0,11.13,2l-.35.35A6,6,0,0,0,9,1.59V1.06C9,.48,8.37,0,7.59,0S6.17.48,6.17,1.06v.49a6,6,0,0,0-1.8.72L4,1.9a1.28,1.28,0,0,0-1.76.25A1.28,1.28,0,0,0,2,3.91l.35.35A6.06,6.06,0,0,0,1.6,6H1.06C.48,6,0,6.67,0,7.45S.48,8.87,1.06,8.87h.52a6,6,0,0,0,.72,1.76l-.4.4a1.28,1.28,0,0,0,.25,1.76A1.28,1.28,0,0,0,3.91,13l.39-.39A6,6,0,0,0,6,13.39V14C6,14.56,6.67,15,7.45,15S8.87,14.56,8.87,14v-.56a6.05,6.05,0,0,0,1.74-.7l.42.42a1.28,1.28,0,0,0,1.76-.25A1.28,1.28,0,0,0,13,11.13l-.39-.39A6.05,6.05,0,0,0,13.4,9H14C14.56,9,15,8.37,15,7.59S14.56,6.17,14,6.17Zm-6.29,5H7.3A3.69,3.69,0,0,1,5,10.24L4.76,10a3.69,3.69,0,0,1-.95-2.28c0-.07,0-.13,0-.2s0-.12,0-.19A3.69,3.69,0,0,1,4.76,5L5,4.73a3.69,3.69,0,0,1,2.31-.94h.39a3.69,3.69,0,0,1,2.29,1l.27.28a3.69,3.69,0,0,1,.91,2.3s0,.09,0,.13,0,.17,0,.26a3.69,3.69,0,0,1-1,2.25l-.28.27A3.69,3.69,0,0,1,7.69,11.18Z"/><path class="cls-2" d="M9.33,6a2.38,2.38,0,0,0-1.59-.88l-.27,0H7.35A2.36,2.36,0,0,0,5.13,7.3c0,.06,0,.12,0,.19s0,.14,0,.2A2.35,2.35,0,0,0,5.7,9,2.4,2.4,0,0,0,6,9.3a2.35,2.35,0,0,0,1.32.53h.39A2.35,2.35,0,0,0,9,9.3,2.37,2.37,0,0,0,9.26,9a2.35,2.35,0,0,0,.56-1.28,2.44,2.44,0,0,0,0-.26s0-.09,0-.13A2.34,2.34,0,0,0,9.33,6Z"/></svg>