<svg id="Layer_1" data-name="Layer 1" xmlns="http://www.w3.org/2000/svg" xmlns:xlink="http://www.w3.org/1999/xlink" viewBox="0 0 20 20"><defs><style>.cls-1{fill:url(#linear-gradient);}.cls-2{fill:#3d80a0;}</style><linearGradient id="linear-gradient" y1="10" x2="20" y2="10" gradientUnits="userSpaceOnUse"><stop offset="0" stop-color="#2d9ab6"/><stop offset="1" stop-color="#396384"/></linearGradient></defs><title>Icones_lat</title><path class="cls-1" d="M18.58,8.21h-.7A8,8,0,0,0,17,5.84l.51-.51A1.7,1.7,0,0,0,17.14,3a1.7,1.7,0,0,0-2.33-.33l-.47.47a8,8,0,0,0-2.35-1v-.7C12,.63,11.14,0,10.09,0S8.21.63,8.21,1.42v.65A8,8,0,0,0,5.82,3l-.49-.49A1.7,1.7,0,0,0,3,2.86,1.7,1.7,0,0,0,2.66,5.2l.47.47A8.06,8.06,0,0,0,2.13,8H1.41C.63,8,0,8.86,0,9.91s.63,1.89,1.42,1.89h.7a8,8,0,0,0,1,2.34l-.53.53A1.7,1.7,0,0,0,2.86,17a1.7,1.7,0,0,0,2.33.33l.52-.52a8,8,0,0,0,2.3,1v.79C8,19.37,8.86,20,9.91,20s1.89-.63,1.89-1.42v-.75a8,8,0,0,0,2.32-.93l.56.56A1.7,1.7,0,0,0,17,17.14a1.7,1.7,0,0,0,.33-2.33l-.52-.52a8,8,0,0,0,1-2.3h.76c.78,0,1.41-.84,1.42-1.89S19.37,8.21,18.58,8.21Zm-8.36,6.66H9.71a4.92,4.92,0,0,1-4.63-4.64c0-.09,0-.18,0-.27s0-.16,0-.25A4.9,4.9,0,0,1,6.34,6.65a5.09,5.09,0,0,1,.37-.37A4.9,4.9,0,0,1,9.78,5H10l.31,0a4.92,4.92,0,0,1,4.61,4.74c0,.06,0,.12,0,.18s0,.23,0,.34a4.92,4.92,0,0,1-4.68,4.58Z"/><path class="cls-2" d="M12.4,8a3.16,3.16,0,0,0-2.11-1.18l-.35,0H9.78a3.13,3.13,0,0,0-3,2.88c0,.08,0,.16,0,.25s0,.18,0,.27A3.12,3.12,0,0,0,7.58,12a3.19,3.19,0,0,0,.37.36,3.12,3.12,0,0,0,1.76.71h.52a3.12,3.12,0,0,0,1.72-.71,3.16,3.16,0,0,0,.37-.37,3.12,3.12,0,0,0,.74-1.7,3.25,3.25,0,0,0,0-.34c0-.06,0-.12,0-.18A3.12,3.12,0,0,0,12.4,8Z"/></svg>