<?xml version="1.0" encoding="UTF-8"?>
<svg id="Calque_1" data-name="Calque 1" xmlns="http://www.w3.org/2000/svg" viewBox="0 0 150 150">
  <defs>
    <style>
      .cls-1 {
        fill: #3aaf74;
      }

      .cls-2 {
        fill: #283456;
      }
    </style>
  </defs>
  <g>
    <path class="cls-2" d="m62.88,75.34v-14.6l-19.68,9.98c3.53,2.71,8.53,4.08,14.94,4.08,1.64,0,3.21.21,4.74.55Z"/>
    <path class="cls-2" d="m60.14,92.88c.93.8,1.84,1.44,2.74,2.01v-17.79c-1.53-.37-3.1-.6-4.74-.6-7.18,0-12.71-1.68-16.57-4.95l-9.52,4.83v17.79c3.61-3.24,7.68-5.75,12.14-6.52,5.44-.94,10.8.82,15.95,5.24Z"/>
    <path class="cls-2" d="m44.48,89.31c-4.57.79-8.75,3.58-12.43,7.14v29.85l30.83-15.63v-13.76c-1.25-.72-2.53-1.62-3.85-2.74-4.75-4.07-9.64-5.71-14.55-4.85Z"/>
    <path class="cls-2" d="m83.44,92.28c1.63-1.16,3.26-2.43,4.91-3.72,4.54-3.54,9.17-7.13,14.22-8.83v-8.38l-38.21-10.61v14.97c7.76,2.26,14.05,8.62,19.08,16.57Z"/>
    <path class="cls-2" d="m64.36,97.69v12.98l28.77,7.99c-2.51-7.86-5.9-16.49-10.3-23.9-5.69,3.77-11.68,6.08-18.47,2.93Z"/>
    <path class="cls-2" d="m64.36,77.52v18.24c6.4,3.31,12.03,1.24,17.57-2.45-4.71-7.51-10.52-13.51-17.57-15.79Z"/>
    <path class="cls-2" d="m84.32,93.74c4.75,7.93,8.32,17.2,10.88,25.5l7.37,2.05v-39.76c-4.53,1.65-8.8,4.96-13.18,8.38-1.68,1.31-3.36,2.62-5.07,3.84Z"/>
    <path class="cls-2" d="m117.03,80.97c4.56,2.37,8.6,4.57,12.2,6.6v-32.15l-25.18,15.94v7.95c3.99-1.01,8.26-.78,12.98,1.68Z"/>
    <path class="cls-2" d="m104.05,81.04v40.24l25.18-15.94v-15.82c-3.78-2.14-8.08-4.49-12.98-7.04-4.43-2.3-8.42-2.48-12.2-1.44Z"/>
  </g>
  <path class="cls-1" d="m85.93,24.09c-10.95,0-19.21,9.39-19.21,21.85,0,9.68,11.21,26.33,16.83,34.07,1,1.38,1.83,2.48,2.38,3.2.55-.72,1.38-1.83,2.38-3.2,5.62-7.74,16.83-24.4,16.83-34.07,0-12.46-8.26-21.85-19.21-21.85Zm0,32.94c-7.65,0-13.86-6.2-13.86-13.86s6.2-13.86,13.86-13.86,13.86,6.2,13.86,13.86-6.2,13.86-13.86,13.86Z"/>
</svg>