<?xml version="1.0" encoding="UTF-8"?>
<svg id="Calque_1" data-name="Calque 1" xmlns="http://www.w3.org/2000/svg" xmlns:xlink="http://www.w3.org/1999/xlink" viewBox="0 0 150 150">
  <defs>
    <style>
      .cls-1 {
        fill: #fff;
      }

      .cls-2 {
        fill: #283456;
      }

      .cls-3 {
        fill: none;
      }

      .cls-4 {
        fill: url(#Dégradé_sans_nom_252);
      }
    </style>
    <linearGradient id="Dégradé_sans_nom_252" data-name="Dégradé sans nom 252" x1="84.5" y1="77.28" x2="129.47" y2="77.28" gradientUnits="userSpaceOnUse">
      <stop offset=".07" stop-color="#3cae66"/>
      <stop offset=".99" stop-color="#21673c"/>
    </linearGradient>
  </defs>
  <g>
    <path class="cls-3" d="m95.97,112.56c1.74,0,3.15-1.41,3.15-3.15s-1.41-3.15-3.15-3.15-3.15,1.41-3.15,3.15,1.41,3.15,3.15,3.15Z"/>
    <rect class="cls-3" x="37.4" y="109.13" width="43.38" height="2.42"/>
    <path class="cls-2" d="m65.95,100.48h-33.43c-.31,0-.62.03-.91.08l13.66-6.77h10.57c-.03-.15-.06-.31-.08-.46h-10.6l-16.23,8.05.53.03c-1.49,1-2.47,2.69-2.47,4.61v6.23c0,3.05,2.49,5.54,5.54,5.54h66.92c3.05,0,5.54-2.49,5.54-5.54v-6.23c0-.5-.08-.98-.2-1.44-4.5-.36-8.68-1.82-12.31-4.09h-26.51Zm14.83,11.08h-43.38v-2.42h43.38v2.42Zm15.19-5.31c1.74,0,3.15,1.41,3.15,3.15s-1.41,3.15-3.15,3.15-3.15-1.41-3.15-3.15,1.41-3.15,3.15-3.15Z"/>
    <path class="cls-2" d="m75.29,93.33l.26.46h9.6c-.12-.15-.23-.31-.35-.46h-9.52Z"/>
    <path class="cls-2" d="m75.29,93.33l-4.47-7.88h10c-.63-2.01-1-4.13-1.15-6.32h-44.07c-1.69,0-3.07-1.42-3.07-3.16v-31.93c0-1.74,1.38-3.16,3.07-3.16h58.68c1.69,0,3.07,1.42,3.07,3.16v7.62c1.95-.74,4.01-1.26,6.14-1.53v-6.09c0-5.22-4.13-9.47-9.21-9.47h-58.68c-5.08,0-9.21,4.25-9.21,9.47v31.93c0,5.22,4.13,9.47,9.21,9.47h29.67l-1.08,1.91-3.65,6.43-2.21,3.9h19.45l-2.21-3.9-.26-.46h0Z"/>
    <polygon class="cls-2" points="75.29 93.33 75.55 93.79 75.29 93.33 75.29 93.33"/>
  </g>
  <circle class="cls-4" cx="106.98" cy="77.28" r="22.49"/>
  <g>
    <g>
      <rect class="cls-1" x="97.66" y="67.41" width="7.93" height="7.93"/>
      <rect class="cls-1" x="108.37" y="67.41" width="7.93" height="7.93"/>
    </g>
    <g>
      <rect class="cls-1" x="97.66" y="77.92" width="7.93" height="7.93"/>
      <rect class="cls-1" x="108.37" y="77.92" width="7.93" height="7.93"/>
    </g>
  </g>
</svg>