<?xml version="1.0" encoding="UTF-8"?>
<svg id="Calque_1" data-name="Calque 1" xmlns="http://www.w3.org/2000/svg" viewBox="0 0 150 150">
  <defs>
    <style>
      .cls-1 {
        fill: #fff;
      }

      .cls-2 {
        fill: #283456;
      }

      .cls-3 {
        fill: none;
      }
    </style>
  </defs>
  <g>
    <path class="cls-2" d="m31.18,110.94v-2.4h23.79v-8.58h-28.64c-.31,0-.61.03-.91.08l13.55-6.72h10.49c-.03-.15-.06-.3-.08-.46h-10.51l-16.1,7.99.53.03c-1.48.99-2.45,2.67-2.45,4.57v6.18c0,3.02,2.47,5.49,5.49,5.49h28.64v-6.18h-23.79Z"/>
    <polygon class="cls-2" points="54.13 93.31 51.94 97.19 54.97 97.19 54.97 91.83 54.13 93.31"/>
    <path class="cls-2" d="m54.96,78.77h-25.56c-1.68,0-3.05-1.41-3.05-3.13v-31.67c0-1.73,1.37-3.13,3.05-3.13h58.21c1.68,0,3.05,1.41,3.05,3.13v13.07h6.09v-13.07c0-5.18-4.1-9.4-9.14-9.4H29.4c-5.04,0-9.14,4.22-9.14,9.4v31.67c0,5.18,4.1,9.4,9.14,9.4h25.58v-6.27h-.01Z"/>
  </g>
  <g>
    <rect class="cls-3" x="65.2" y="111.98" width="23.06" height="1.63"/>
    <polygon class="cls-3" points="88.26 97.17 88.26 96.07 87.64 96.07 88.26 97.17"/>
    <path class="cls-2" d="m65.2,113.6v-1.63h23.06v-5.81h-26.34c-.21,0-.41.02-.61.06l9.17-4.55h7.1c-.02-.1-.04-.21-.06-.31h-7.11l-10.9,5.41.36.02c-1,.67-1.66,1.81-1.66,3.09v4.18c0,2.04,1.67,3.72,3.72,3.72h26.34v-4.18h-23.06Z"/>
    <path class="cls-2" d="m87.64,96.07h.62v-4.24h-24.27c-1.14,0-2.06-.95-2.06-2.12v-21.44c0-1.17.92-2.12,2.06-2.12h39.4c1.14,0,2.06.95,2.06,2.12v3.97h4.12v-3.97c0-3.51-2.77-6.36-6.19-6.36h-39.4c-3.41,0-6.19,2.85-6.19,6.36v21.44c0,3.51,2.77,6.36,6.19,6.36h19.92l-.73,1.28-2.45,4.32-1.49,2.62h9.01v-7.13l-.62-1.09Z"/>
    <polygon class="cls-1" points="90.82 101.67 90.64 101.36 90.64 101.36 90.82 101.67"/>
  </g>
  <g>
    <path class="cls-2" d="m129.11,111.44s.03-.02.04-.02c.03-.03.04-.08.04-.12-.14-.84-4.5-4.76-5-5.21l-.03-.03h-9.2l.13.22h8.99c1.15,1.02,2.62,2.41,3.65,3.48-.35-.18-.75-.28-1.17-.28h-32.14c-.15,0-.3.02-.44.04l6.56-3.25h5.08c-.01-.07-.03-.15-.04-.22h-5.09l-7.8,3.86.26.02c-.71.48-1.19,1.29-1.19,2.21v2.99c0,1.46,1.2,2.65,2.66,2.65h32.14c1.46,0,2.66-1.19,2.66-2.65v-2.99c0-.24-.04-.48-.1-.7Zm-11.52,3.36h-20.83v-1.16h20.83v1.16Zm7.29.48c-.84,0-1.51-.68-1.51-1.51s.68-1.51,1.51-1.51,1.51.68,1.51,1.51-.68,1.51-1.51,1.51Z"/>
    <path class="cls-2" d="m124.08,77.9h-28.18c-2.44,0-4.42,2.04-4.42,4.54v15.3c0,2.5,1.98,4.54,4.42,4.54h14.25l-.52.92-1.75,3.08-1.06,1.87h9.34l-1.06-1.87-2.27-4h11.27c2.44,0,4.42-2.04,4.42-4.54v-15.3c0-2.5-1.98-4.54-4.42-4.54Zm-1.36,23.7c-.45,0-.81-.37-.81-.83s.36-.83.81-.83.81.37.81.83-.36.83-.81.83Zm2.84-3.86c0,.83-.66,1.51-1.47,1.51h-28.18c-.81,0-1.47-.68-1.47-1.51v-15.3c0-.83.66-1.51,1.47-1.51h28.18c.81,0,1.47.68,1.47,1.51v15.3Z"/>
  </g>
</svg>