<?xml version="1.0" encoding="UTF-8"?>
<svg id="Calque_1" data-name="Calque 1" xmlns="http://www.w3.org/2000/svg" viewBox="0 0 150 150">
  <defs>
    <style>
      .cls-1 {
        fill: #283456;
      }
    </style>
  </defs>
  <path class="cls-1" d="m62.49,36.85l-34.68,25.67v66.25h74.72c6.52,0,11.83-4.3,11.83-9.58V36.85h-51.87Zm47.53,82.34c0,3.34-3.36,6.06-7.49,6.06H32.16v-61.18l.17-.13,29.5-.68,1.94-22.59.4-.3h45.84v78.82Z"/>
  <path class="cls-1" d="m97.32,85.02h-47.44c-.9,0-1.63,2.11-1.63,4.7s.73,4.7,1.63,4.7h47.44c.9,0,1.63-2.11,1.63-4.7s-.73-4.7-1.63-4.7Z"/>
  <path class="cls-1" d="m97.32,99.55h-47.44c-.9,0-1.63,2.11-1.63,4.7s.73,4.7,1.63,4.7h47.44c.9,0,1.63-2.11,1.63-4.7s-.73-4.7-1.63-4.7Z"/>
</svg>