<?xml version="1.0" encoding="UTF-8"?>
<svg id="Calque_1" data-name="Calque 1" xmlns="http://www.w3.org/2000/svg" viewBox="0 0 150 150">
  <defs>
    <style>
      .cls-1 {
        fill: #283456;
      }
    </style>
  </defs>
  <path class="cls-1" d="m77.93,67.34c-10.43,0-18.91,8.49-18.91,18.92s8.48,18.91,18.91,18.91,18.92-8.48,18.92-18.91-8.49-18.92-18.92-18.92Zm0,11.71c3.97,0,7.21,3.23,7.21,7.21s-3.23,7.2-7.21,7.2-7.2-3.23-7.2-7.2,3.23-7.21,7.2-7.21Z"/>
  <g>
    <path class="cls-1" d="m35.73,78.51c1.34-1.47,13.89-14.75,33.15-18.79,17.47-3.66,34.85,1.27,58.11,16.51l2.55,1.67,6.41-9.79-2.55-1.67c-26.16-17.18-46.19-22.61-66.93-18.18-23.43,4.91-38.95,21.38-40.48,23.7l-1.69,2.56,9.94,6.47,1.49-2.48Z"/>
    <path class="cls-1" d="m107.14,73.79l.12.81c.24,1.61,2.15,16.04-5.92,25.69h0c-5.13,6.15-13.58,9.27-25.1,9.27-24.91,0-26.25-25.13-26.33-28l-.07-2.77c-4.13,2.13-7.63,4.4-10.47,6.48-.09.16-.18.33-.25.48l-.43.88.16.97c1.72,10.13,8.79,33.68,37.39,33.68,15.15,0,26.62-4.53,34.09-13.47,8.14-9.74,9.24-21.99,8.98-29.54-4.17-1.84-8.23-3.33-12.16-4.48Z"/>
  </g>
</svg>