<svg id="Layer_1" data-name="Layer 1" xmlns="http://www.w3.org/2000/svg" xmlns:xlink="http://www.w3.org/1999/xlink" viewBox="0 0 20 20"><defs><style>.cls-1{fill:none;}.cls-2{fill:url(#linear-gradient);}.cls-3{fill:#3d80a0;}.cls-4{fill:url(#linear-gradient-2);}</style><linearGradient id="linear-gradient" x1="1.71" y1="6.56" x2="18.29" y2="6.56" gradientUnits="userSpaceOnUse"><stop offset="0" stop-color="#2d9ab6"/><stop offset="1" stop-color="#396384"/></linearGradient><linearGradient id="linear-gradient-2" x1="7.68" y1="18.23" x2="12.79" y2="18.23" xlink:href="#linear-gradient"/></defs><title>Icones_lat</title><circle class="cls-1" cx="10" cy="1.37" r="0.7"/><path class="cls-2" d="M17.3,12.36c-.36-3.59-2-10-5.89-10.16a1.51,1.51,0,0,0,.15-.65,1.55,1.55,0,1,0-3.11,0,1.51,1.51,0,0,0,.15.66c-3.29.1-5.27,3.57-5.87,10.32h0A40.35,40.35,0,0,0,17.3,12.36Zm-8-11a.7.7,0,1,1,.7.7A.7.7,0,0,1,9.3,1.37Z"/><path class="cls-3" d="M18.11,14.29c0-.71,0-1.33-.79-1.76l0-.17a40.35,40.35,0,0,1-14.58.17C2,13,1.94,13.59,1.9,14.31a5.06,5.06,0,0,1-.16,1.22l0,.11H18.29l0-.11A4.8,4.8,0,0,1,18.11,14.29Z"/><path class="cls-4" d="M7.68,16.54c0,1.36,1.1,3.46,2.55,3.46s2.55-2.1,2.55-3.46v-.08H7.68Z"/></svg>