<svg id="Layer_1" data-name="Layer 1" xmlns="http://www.w3.org/2000/svg" viewBox="0 0 20 20"><defs><style>.cls-1{fill:#d1d3d4;}.cls-2{fill:#939597;}.cls-3{fill:#6d6e71;}.cls-4{fill:#939598;}.cls-5{fill:#fffcfd;}</style></defs><title>Icones_lat</title><polygon class="cls-1" points="20 11.31 13.67 9.87 9.9 18.92 20 11.31"/><polygon class="cls-2" points="8.61 0.63 1.31 4.21 1.31 17.24 8.61 19.39 15.67 13.3 15.67 0.63 8.61 0.63"/><polygon class="cls-1" points="1.02 4.45 8.49 5.39 8.43 18.92 1.02 16.98 1.02 4.45"/><polygon class="cls-3" points="9.06 18.51 9.06 5.37 15.33 1.2 15.33 13.27 9.06 18.51"/><polygon class="cls-4" points="5.28 7.04 8.43 7.44 10.52 6.43 10.52 8.01 8.38 8.98 5.28 8.6 5.28 7.04"/><polygon class="cls-4" points="5.28 8.76 8.43 9.16 10.52 8.15 10.52 9.73 8.38 10.7 5.28 10.32 5.28 8.76"/><polygon class="cls-4" points="5.28 10.47 8.43 10.88 10.52 9.87 10.52 11.45 8.38 12.41 5.28 12.03 5.28 10.47"/><path class="cls-5" d="M8.72,19.92.84,17.5V3.92L8.5.16h7.64V13.37ZM1.78,16.81l6.71,2.06,6.7-5.92V1.1H8.72L1.78,4.51Z"/></svg>