<svg id="Layer_1" data-name="Layer 1" xmlns="http://www.w3.org/2000/svg" xmlns:xlink="http://www.w3.org/1999/xlink" viewBox="0 0 20 20"><defs><style>.cls-1{fill:gray;}.cls-2{fill:url(#linear-gradient);}.cls-3{fill:#b0cdc6;}</style><linearGradient id="linear-gradient" x1="0.4" y1="10.43" x2="20" y2="10.43" gradientUnits="userSpaceOnUse"><stop offset="0" stop-color="#2d9ab6"/><stop offset="1" stop-color="#396384"/></linearGradient></defs><title>Icones_lat</title><path class="cls-1" d="M13.92,18.59a.62.62,0,0,0,.88,0l1.92-1.8a.62.62,0,0,0,0-.88l-4.28-4.55-3,2.49Z"/><path class="cls-1" d="M7.26,5.86A3.69,3.69,0,0,0,3.14,1.25l2.45,2.6L5.48,4,2.65,6.63l-.12.11L.08,4.14A3.69,3.69,0,0,0,4.44,8.52l1.84,2L9.27,8Z"/><path class="cls-2" d="M19.47,2.14l-4.85-.07L13.57,5.14,9.65,8.4l-3,2.49L.53,16a.38.38,0,0,0,0,.53l1.78,2.14a.38.38,0,0,0,.53,0l6.3-5.24,3-2.49,3.76-3.13L19,7.37l1-4.59Z"/><path class="cls-3" d="M14.79,4.77a5.54,5.54,0,0,1,4.31-2S15.56,2.13,14.79,4.77Z"/></svg>