<svg id="Layer_1" data-name="Layer 1" xmlns="http://www.w3.org/2000/svg" xmlns:xlink="http://www.w3.org/1999/xlink" viewBox="0 0 20 20"><defs><style>.cls-1{fill:url(#linear-gradient);}.cls-2{fill:url(#linear-gradient-2);}</style><linearGradient id="linear-gradient" x1="-8.07" y1="11.08" x2="38.68" y2="8.05" gradientUnits="userSpaceOnUse"><stop offset="0" stop-color="#2d9ab6"/><stop offset="1" stop-color="#396384"/></linearGradient><linearGradient id="linear-gradient-2" x1="10.15" y1="10" x2="20" y2="10" xlink:href="#linear-gradient"/></defs><title>Icones_lat</title><path class="cls-1" d="M10.13.54c-.26.08-.47.1-.64.27L.23,10.69a.86.86,0,0,0,.63,1.45H2.64v6.17a1.15,1.15,0,0,0,1.15,1.15H7.06a1.15,1.15,0,0,0,1.15-1.15V14.45h1.94V.54Z"/><path class="cls-2" d="M19.78,10.7l-9-9.88a.86.86,0,0,0-.61-.28v13.9H12v3.87a1.15,1.15,0,0,0,1.15,1.15h3.46a1.15,1.15,0,0,0,1.15-1.15V12.14h1.32a.86.86,0,0,0,.64-1.45Z"/></svg>