<?xml version="1.0" encoding="UTF-8"?>
<svg id="Calque_1" data-name="Calque 1" xmlns="http://www.w3.org/2000/svg" viewBox="0 0 150 150">
  <defs>
    <style>
      .cls-1 {
        fill: #283456;
      }
    </style>
  </defs>
  <path class="cls-1" d="m129.24,65.38c-.74,0-1.44.15-2.1.36-1.15-8.74-4.6-16.76-9.73-23.43.63-.32,1.23-.71,1.76-1.24,2.67-2.67,2.67-6.99,0-9.66-2.67-2.67-6.99-2.67-9.66,0-.53.53-.92,1.13-1.24,1.76-6.68-5.13-14.7-8.57-23.43-9.73.22-.67.36-1.36.36-2.1,0-3.77-3.06-6.83-6.83-6.83s-6.83,3.06-6.83,6.83c0,.74.15,1.43.36,2.1-8.74,1.15-16.76,4.6-23.43,9.73-.32-.63-.71-1.23-1.24-1.76-2.67-2.67-6.99-2.67-9.66,0-2.67,2.67-2.67,6.99,0,9.66.53.53,1.13.92,1.76,1.24-5.13,6.68-8.57,14.7-9.73,23.43-.67-.22-1.36-.36-2.1-.36-3.77,0-6.83,3.06-6.83,6.83s3.06,6.83,6.83,6.83c.74,0,1.43-.15,2.1-.36,1.15,8.74,4.6,16.76,9.73,23.43-.63.32-1.23.71-1.76,1.24-2.67,2.67-2.67,6.99,0,9.66,2.67,2.67,6.99,2.67,9.66,0,.53-.53.92-1.13,1.24-1.76,6.68,5.13,14.7,8.57,23.43,9.73-.22.67-.36,1.36-.36,2.1,0,3.77,3.06,6.83,6.83,6.83s6.83-3.06,6.83-6.83c0-.74-.15-1.43-.36-2.1,8.74-1.15,16.76-4.6,23.43-9.73.32.63.71,1.23,1.24,1.76,2.67,2.67,6.99,2.67,9.66,0,2.67-2.67,2.67-6.99,0-9.66-.53-.53-1.13-.92-1.76-1.24,5.13-6.68,8.57-14.7,9.73-23.43.67.22,1.36.36,2.1.36,3.77,0,6.83-3.06,6.83-6.83s-3.06-6.83-6.83-6.83Zm-50.87,45.7c-21.43,0-38.87-17.44-38.87-38.87s17.44-38.87,38.87-38.87,38.87,17.44,38.87,38.87-17.44,38.87-38.87,38.87Z"/>
  <circle class="cls-1" cx="78.37" cy="72.21" r="24.1"/>
</svg>