<?xml version="1.0" encoding="UTF-8"?>
<svg id="Calque_1" data-name="Calque 1" xmlns="http://www.w3.org/2000/svg" viewBox="0 0 150 150">
  <defs>
    <style>
      .cls-1 {
        fill: #283456;
      }
    </style>
  </defs>
  <g>
    <path class="cls-1" d="m30.79,121v-2.97h29.42v-10.62H24.8c-.38,0-.75.04-1.12.1l16.76-8.31h12.97c-.03-.19-.07-.38-.1-.57h-13l-19.92,9.88.65.04c-1.83,1.22-3.04,3.3-3.04,5.65v7.64c0,3.74,3.06,6.79,6.79,6.79h35.42v-7.64h-29.42Z"/>
    <polygon class="cls-1" points="59.17 99.2 56.46 103.99 60.21 103.99 60.21 97.37 59.17 99.2"/>
    <path class="cls-1" d="m60.2,81.21h-31.62c-2.08,0-3.77-1.74-3.77-3.87v-39.17c0-2.14,1.69-3.87,3.77-3.87h71.99c2.08,0,3.77,1.74,3.77,3.87v16.16h7.53v-16.16c0-6.41-5.07-11.62-11.3-11.62H28.58c-6.23,0-11.3,5.21-11.3,11.62v39.17c0,6.41,5.07,11.62,11.3,11.62h31.63v-7.75h-.01Z"/>
  </g>
  <g>
    <path class="cls-1" d="m132.89,118.06s.05-.03.07-.04c.06-.06.08-.14.07-.21-.25-1.52-8.09-8.56-8.99-9.36l-.06-.05h-16.54l.23.4h16.16c2.06,1.84,4.71,4.33,6.57,6.27-.64-.32-1.35-.5-2.11-.5h-57.78c-.27,0-.53.03-.79.07l11.79-5.84h9.13c-.02-.13-.05-.26-.07-.4h-9.15l-14.02,6.94.46.03c-1.29.86-2.14,2.32-2.14,3.97v5.37c0,2.62,2.15,4.77,4.78,4.77h57.78c2.63,0,4.78-2.15,4.78-4.77v-5.37c0-.44-.06-.86-.18-1.26Zm-20.71,6.04h-37.46v-2.09h37.46v2.09Zm13.12.86c-1.5,0-2.72-1.22-2.72-2.72s1.22-2.72,2.72-2.72,2.72,1.22,2.72,2.72-1.22,2.72-2.72,2.72Z"/>
    <path class="cls-1" d="m123.84,57.76h-50.67c-4.39,0-7.95,3.66-7.95,8.16v27.51c0,4.5,3.57,8.16,7.95,8.16h25.62l-.94,1.65-3.15,5.54-1.91,3.36h16.79l-1.91-3.36-4.09-7.19h20.26c4.39,0,7.95-3.66,7.95-8.16v-27.51c0-4.5-3.57-8.16-7.95-8.16Zm-2.45,42.61c-.8,0-1.45-.67-1.45-1.49s.65-1.49,1.45-1.49,1.45.67,1.45,1.49-.65,1.49-1.45,1.49Zm5.1-6.94c0,1.5-1.19,2.72-2.65,2.72h-50.67c-1.46,0-2.65-1.22-2.65-2.72v-27.51c0-1.5,1.19-2.72,2.65-2.72h50.67c1.46,0,2.65,1.22,2.65,2.72v27.51Z"/>
  </g>
</svg>