<?xml version="1.0" encoding="UTF-8"?>
<svg id="Calque_1" data-name="Calque 1" xmlns="http://www.w3.org/2000/svg" viewBox="0 0 150 150">
  <defs>
    <style>
      .cls-1 {
        fill: #283456;
      }
    </style>
  </defs>
  <g>
    <path class="cls-1" d="m66.55,20.44l-34.68,26.97v69.61h74.72c6.52,0,11.83-4.51,11.83-10.06V20.44h-51.87Zm47.53,86.52c0,3.51-3.36,6.37-7.49,6.37H36.22V49.04l.17-.13,29.5-.72,1.94-23.74.4-.31h45.84v82.82Z"/>
    <path class="cls-1" d="m66.95,71.05h-19.26c-.37,0-.66,2.21-.66,4.94s.3,4.94.66,4.94h19.26c.37,0,.66-2.21.66-4.94s-.3-4.94-.66-4.94Z"/>
    <path class="cls-1" d="m66.95,86.32h-19.26c-.37,0-.66,2.21-.66,4.94s.3,4.94.66,4.94h19.26c.37,0,.66-2.21.66-4.94s-.3-4.94-.66-4.94Z"/>
  </g>
  <path class="cls-1" d="m83.41,71.05l6.93,17.5,6.91-17.5h9.85v25.15h-7.51v-5.87l.72-12.02-7.51,17.89h-4.95l-7.53-17.91.72,12.04v5.87h-7.49v-25.15h9.83Z"/>
</svg>