<?xml version="1.0" encoding="UTF-8"?>
<svg id="Calque_1" data-name="Calque 1" xmlns="http://www.w3.org/2000/svg" viewBox="0 0 150 150">
  <defs>
    <style>
      .cls-1 {
        fill: #283456;
      }
    </style>
  </defs>
  <g>
    <path class="cls-1" d="m63.4,20.44l-34.68,26.97v69.61h74.72c6.52,0,11.83-4.51,11.83-10.06V20.44h-51.87Zm47.53,86.52c0,3.51-3.36,6.37-7.49,6.37H33.07V49.04l.17-.13,29.5-.72,1.94-23.74.4-.31h45.84v82.82Z"/>
    <path class="cls-1" d="m69.08,71.05h-19.26c-.37,0-.66,2.21-.66,4.94s.3,4.94.66,4.94h19.26c.37,0,.66-2.21.66-4.94s-.3-4.94-.66-4.94Z"/>
    <path class="cls-1" d="m69.08,86.32h-19.26c-.37,0-.66,2.21-.66,4.94s.3,4.94.66,4.94h19.26c.37,0,.66-2.21.66-4.94s-.3-4.94-.66-4.94Z"/>
  </g>
  <path class="cls-1" d="m105.26,58.48v29.04c0,3.29-.67,6.14-2,8.55-1.33,2.41-3.25,4.24-5.74,5.5-2.49,1.26-5.44,1.89-8.84,1.89-5.14,0-9.19-1.4-12.15-4.21s-4.47-6.64-4.52-11.52v-29.25h10.24v29.46c.12,4.86,2.26,7.28,6.44,7.28,2.11,0,3.7-.61,4.79-1.83,1.08-1.22,1.62-3.2,1.62-5.94v-28.98h10.18Z"/>
</svg>